<svg xmlns="http://www.w3.org/2000/svg" fill="none" viewBox="0 0 207 46" height="46" width="207">
<path fill="white" d="M183.209 45.6836C180.748 43.7959 179.177 41.9081 178.05 39.2113C177.161 36.8141 176.568 34.2672 176.864 31.6302C177.19 28.3341 177.813 25.4875 178.436 22.3113C178.614 22.1314 178.495 21.8618 178.584 21.652C178.999 19.8242 179.473 18.0263 179.888 16.1686C180.037 16.1385 180.274 16.1385 180.422 16.1686L180.215 16.1985C181.756 16.2884 183.387 16.3782 184.958 16.4981C185.047 16.618 185.225 16.618 185.344 16.5881C185.462 16.618 185.611 16.618 185.729 16.6479C185.878 16.2584 186.026 15.8988 186.204 15.6891C185.64 14.5804 185.462 14.4305 184.781 13.3818C184.781 13.3818 183.446 11.3142 183.12 11.1045C182.824 10.8948 182.527 10.8048 182.112 10.5951C181.697 10.3854 181.223 10.4153 180.6 10.2055C179.859 7.77842 178.614 4.8419 177.902 1.84544L178.851 2.8043L182.142 6.01047L184.099 7.59867C184.158 8.01817 184.158 8.55753 184.336 8.97697C184.454 9.51633 184.87 9.87595 185.077 10.3554C186.174 11.8835 186.708 12.4828 187.745 14.041C187.745 14.041 188.398 13.8013 188.813 13.4417C188.249 13.172 188.427 11.3442 188.427 11.3442C188.309 10.3854 187.508 9.57627 187.953 8.55753C188.012 8.46757 188.161 8.07804 188.22 7.95823C188.131 7.44877 187.479 7.11918 187.953 6.54984C188.012 6.45994 187.805 6.16032 187.805 6.04044C187.775 4.96177 188.101 3.913 188.22 2.86417C188.487 2.44474 188.783 2.14506 189.198 1.93528C190.295 1.48582 191.659 1.39597 192.786 1.06632C192.875 1.12626 192.934 0.976478 193.023 1.00639C193.616 1.00639 194.12 0.526954 194.713 0.736671C195.602 1.57572 196.433 2.47465 197.263 3.37363C197.885 3.79307 198.182 4.42234 198.656 4.99168C198.805 5.29136 199.071 5.74076 198.923 6.10044L198.538 6.54984L198.39 8.67734C198.271 8.85709 198.301 9.09684 198.152 9.27665V9.39646L198.123 9.36655C198.034 9.87595 198.004 10.3854 197.856 10.8348C197.767 11.3741 197.678 11.9734 197.648 12.5727C197.559 13.6215 197.856 14.0411 198.182 14.9999C198.449 15.2696 198.923 15.8388 199.338 16.3482C199.872 17.0075 201.117 18.0862 202.155 20.0639C203.193 22.0416 204.319 25.6373 205.12 29.6526C205.327 31.1808 205.772 32.3194 205.15 33.8776C204.379 34.8964 204.112 35.0162 203.015 35.4357C203.015 35.4357 206.039 39.421 206.039 40.1701C206.039 40.7095 205.802 40.9193 205.802 40.9193H192.727C191.303 42.7771 187.241 45.2941 183.209 45.6836Z"></path>
<path fill="black" d="M194.469 1.52717C195.27 2.30635 196.041 3.0854 196.782 3.92439C197.345 4.31392 197.612 4.88325 198.057 5.39265C198.176 5.66243 198.383 5.96199 198.235 6.29158L198.027 6.53132L197.82 8.74873C197.731 8.92854 197.76 9.13826 197.612 9.28804V9.378L197.583 9.34797C197.523 9.79744 197.464 10.2769 197.316 10.6964C197.256 11.1759 197.049 11.7152 197.019 12.2546C196.96 13.2135 197.227 14.1423 197.523 14.9814C197.76 15.221 197.76 15.4908 198.027 15.6705C198.709 16.4495 199.45 17.2287 200.162 18.0677L200.963 19.0565C200.963 19.2064 201.052 19.2663 201.17 19.3562C203.038 22.2628 203.542 25.7386 204.432 29.0947C204.639 30.4731 205.113 32.0611 204.58 33.4694C203.868 34.3984 202.831 34.8479 201.822 35.2075C202.919 36.7955 204.194 38.3836 205.262 40.0018C205.262 40.0916 205.291 40.1516 205.291 40.2414C204.669 40.2115 204.046 40.1217 203.453 40.1516C202.445 38.5935 201.378 37.0653 200.251 35.567C200.221 35.5371 200.103 35.567 200.103 35.5072C200.103 35.5072 200.073 35.5371 200.073 35.567C199.777 35.5371 199.451 35.6269 199.124 35.6569C199.006 35.8067 198.976 36.0764 198.946 36.2861C198.887 36.4659 198.887 36.6757 198.769 36.8255C198.976 37.0952 199.035 37.4248 199.273 37.6645C199.688 38.5335 200.014 39.4324 200.399 40.3314H198.087H193.817C193.61 40.3613 193.402 40.2714 193.224 40.3314L192.72 40.3015C192.928 40.1516 193.076 39.8819 193.254 39.7321C195.3 39.7021 197.286 39.822 199.332 39.6722C199.065 38.6833 198.561 37.7844 197.968 36.9154L197.227 36.1064C196.634 35.8367 195.982 35.7468 195.389 35.4771L196.071 33.1099C197.197 33.3796 198.294 33.889 199.332 34.2785C201.081 31.432 202.326 28.2557 202.06 24.6599L201.911 23.4913C201.793 23.3714 201.882 23.2515 201.822 23.1317C201.467 21.0341 200.577 19.1464 199.095 17.5583C199.065 17.6182 199.154 17.6481 199.154 17.7081C199.213 18.0976 199.421 18.5472 199.095 18.8768C198.828 19.2064 198.383 19.1763 198.057 19.0865C197.049 18.3973 196.337 17.2886 195.507 16.4495C194.381 15.281 193.046 14.1423 191.327 14.2323C190.674 14.2022 190.081 14.3521 189.518 14.5019C189.459 14.5318 189.488 14.5917 189.488 14.6218C190.437 14.7417 191.238 15.1911 192.038 15.7005C193.135 16.5695 193.788 17.7082 194.173 18.9666C193.491 18.7569 192.809 18.5172 192.068 18.3973C192.186 18.2475 192.394 18.2176 192.364 18.0078C192.216 17.7979 191.979 17.8579 191.742 17.7979H191.534C191.534 18.0677 191.801 18.2774 191.979 18.3674C191.771 18.2774 191.564 18.2176 191.356 18.1575C191.445 18.0378 191.356 17.9179 191.208 17.9179C191 17.9478 190.763 17.7979 190.556 17.8879L190.645 17.9777C190.467 17.9179 190.289 17.9179 190.111 17.828C190.23 17.768 190.23 17.6782 190.23 17.5882C190.022 17.4683 189.755 17.5882 189.637 17.3186H189.577C189.548 17.3785 189.607 17.4085 189.637 17.4384C189.548 17.4384 189.429 17.2886 189.37 17.4085C189.34 17.5583 189.488 17.6481 189.577 17.7082L189.755 17.768C188.48 17.5883 187.176 17.2586 185.842 17.0489C186.079 16.5695 186.435 16.18 186.79 15.7605C186.257 14.7417 185.515 13.8427 184.893 12.8839L183.44 10.9062C183.143 10.7264 182.966 10.4267 182.61 10.3369C182.106 10.0073 181.572 9.79744 180.979 9.58772C180.297 7.40034 179.526 5.24287 178.548 3.14534L179.437 4.04426L182.432 6.98079L183.499 7.93965C183.559 8.29927 183.559 8.80867 183.707 9.19819C183.796 9.67769 184.181 10.0073 184.389 10.4567C185.367 11.8651 186.405 13.1236 187.324 14.5618C187.413 14.6817 187.591 14.8016 187.532 14.9215V14.9514C187.739 14.8615 187.887 14.6218 188.125 14.502C188.717 14.1724 189.34 13.9027 190.022 13.7828L190.081 13.8127C190.141 13.6629 189.992 13.633 189.992 13.4831C189.963 13.4232 189.815 13.4532 189.874 13.3333C189.459 13.1835 188.866 13.0336 188.836 12.4644L188.717 11.1459C188.629 10.2769 187.887 9.52778 188.273 8.59895C188.332 8.53901 188.332 8.41914 188.391 8.32918H188.332C188.421 8.29927 188.48 8.14949 188.51 8.02949C188.451 7.55012 187.858 7.13057 188.273 6.62117C188.332 6.56135 188.362 6.47139 188.332 6.38154C188.273 6.44136 188.095 6.41145 188.095 6.32161C188.065 5.33284 188.362 4.40388 188.451 3.44502C188.688 3.05537 188.955 2.78572 189.34 2.60603C190.348 2.18648 191.564 2.12654 192.602 1.82686C192.691 1.88679 192.72 1.76704 192.809 1.76704C193.491 1.76692 193.936 1.34749 194.469 1.52717Z"></path>
<path fill="white" d="M194.388 2.09191C194.684 2.4215 195.129 2.57141 195.277 2.99084C195.099 3.05078 194.951 2.901 194.773 2.84112C194.15 2.57141 193.439 2.4215 192.757 2.30169V2.21173C193.231 2.12182 193.795 2.54132 194.091 2.03198C194.239 1.79223 194.388 1.9721 194.388 2.09191Z"></path>
<path fill="white" d="M194.973 3.22468C195.655 3.67421 196.456 3.91389 197.019 4.6031C196.989 4.6031 196.96 4.6031 196.96 4.63301C196.96 4.66298 197.019 4.66298 197.019 4.69295L197.049 4.66298C197.256 4.99257 197.108 5.47206 197.108 5.86159L196.96 7.12013C197.108 7.26997 197.226 7.41969 197.315 7.59956L197.375 7.47969C197.434 6.79048 197.493 6.10127 197.582 5.38216C197.582 5.35219 197.642 5.32222 197.642 5.29219C197.73 5.38216 197.819 5.50197 197.849 5.62178H197.79C197.79 6.43086 197.73 7.29982 197.582 8.07887L197.553 8.1089C197.493 8.1089 197.464 8.01893 197.404 7.95906C197.464 7.83925 197.286 7.89912 197.286 7.80922C197.108 7.62947 196.989 7.41969 196.811 7.26985C196.604 6.94026 196.248 6.67061 195.952 6.43086C195.625 6.22108 195.299 5.92146 194.943 5.77168C194.113 5.17238 193.046 5.08247 192.038 4.84279C191.563 4.90266 191 4.78285 190.496 4.90266V4.84279H190.526C190.674 4.12361 190.882 3.40443 190.97 2.62538C191.919 2.53548 192.898 2.50545 193.758 2.77516L194.973 3.22468Z"></path>
<path fill="white" d="M190.65 2.71484C190.531 3.46399 190.324 4.21307 190.205 4.96222L189.79 5.112C189.879 4.39288 189.998 3.61377 190.175 2.89459C190.324 2.77478 190.472 2.74487 190.65 2.71484Z"></path>
<path fill="white" d="M189.13 3.71323L188.893 5.30136C188.774 5.30136 188.685 5.48111 188.626 5.45121C188.685 4.85196 188.833 4.22263 188.952 3.62332C189.011 3.53348 189.189 3.59342 189.13 3.71323Z"></path>
<path fill="white" d="M179.929 4.94342C181.026 6.05219 182.035 7.13092 183.191 8.08978C183.369 8.08978 183.22 8.23956 183.28 8.32941C183.517 9.8877 184.703 11.0562 185.444 12.4047C185.444 12.4946 185.355 12.4646 185.296 12.4946C185.237 12.5544 185.177 12.6443 185.088 12.6443L185.118 12.5844C184.228 11.296 183.309 9.97754 182.361 8.71899C181.886 8.02979 181.471 7.2807 180.908 6.65149C181.175 7.46051 181.59 8.23956 181.857 9.07855C181.827 9.19843 181.708 9.2583 181.59 9.22839C181.382 9.13849 181.234 8.86877 181.145 8.659L179.663 4.7337L179.544 4.61377C179.751 4.7038 179.9 4.7937 179.929 4.94342Z"></path>
<path fill="white" d="M194.469 5.94181C194.41 6.24143 194.677 6.4213 194.677 6.72092C194.884 7.70969 194.914 8.93833 194.736 9.95707C194.588 10.3466 194.439 10.7062 194.262 11.0957C194.024 11.4853 193.787 11.9348 193.372 12.1744C192.749 12.7438 191.801 12.9236 191.03 12.594C190.555 12.564 190.407 11.6052 189.873 12.1145C189.814 12.2644 189.666 12.3542 189.636 12.5041L189.577 12.534C189.458 12.3243 189.577 11.9947 189.547 11.8149C189.607 11.4853 189.962 11.4853 190.229 11.3954L190.704 11.4553L190.763 11.4253C190.644 11.2755 190.585 11.0358 190.526 10.856C190.318 10.7661 190.051 10.9159 189.814 10.856C189.725 10.856 189.607 10.856 189.547 10.7961H189.607C189.607 10.7362 189.547 10.6462 189.607 10.5863C189.873 10.4066 190.229 10.3766 190.555 10.2867C190.704 10.3766 190.882 10.2267 191 10.3466L191.504 10.4066C191.593 10.5264 191.712 10.5863 191.86 10.6462C191.949 10.5863 191.801 10.5563 191.801 10.4665V10.4964C191.682 10.4365 191.682 9.95701 191.415 10.1668C190.882 10.2267 190.496 9.56748 189.992 9.98704C189.814 10.047 189.696 9.77732 189.577 9.95707L189.429 10.1069C189.488 9.89713 189.577 9.68741 189.636 9.4777H189.607C189.814 9.38773 190.051 9.59751 190.2 9.35782L190.17 9.26792L190.2 9.29783V9.26792L190.14 9.20798L190.2 9.14805C190.466 9.14805 190.882 9.4177 191.03 9.08811C191.03 8.9083 190.911 8.75852 190.763 8.63859C190.466 8.60868 190.229 8.84836 189.962 8.78843C189.784 8.69852 189.547 8.57871 189.488 8.3989C189.636 7.85953 189.814 7.3502 190.111 6.8707C190.259 6.84073 190.377 6.96061 190.555 6.93064C190.704 7.26023 191.059 7.32023 191.297 7.52994C191.504 7.55991 191.712 7.70969 191.919 7.64982C191.979 7.61991 192.067 7.70975 192.127 7.67979C192.067 7.41013 191.741 7.26023 191.741 6.93064C191.712 6.90073 191.652 6.90073 191.682 6.84073C192.245 6.72092 192.809 6.81083 193.253 7.11045C193.283 7.11045 193.313 7.11045 193.313 7.08054C192.838 6.81083 192.364 6.30143 191.741 6.39133L191.623 6.3314C192.216 5.94187 192.898 6.39133 193.491 6.51114L193.55 6.48124C193.016 6.12162 192.423 5.85197 191.771 5.76212C191.356 5.76212 191.03 5.94181 190.644 6.03177C190.466 5.88193 190.318 5.76212 190.377 5.49241C190.348 5.43247 190.407 5.40244 190.437 5.37253C190.97 5.13279 191.563 5.13279 192.186 5.16282C192.957 5.37253 193.728 5.61222 194.469 5.94181Z"></path>
<path fill="white" d="M195.511 6.51862C195.363 6.51862 195.244 6.72839 195.066 6.63849C195.096 6.48871 194.77 6.3988 194.948 6.24902C195.126 6.33887 195.541 6.15906 195.511 6.51862Z"></path>
<path fill="white" d="M196.562 7.38623L196.503 7.50604C196.325 7.50604 196.236 7.32629 196.177 7.17645L196.117 6.93677C196.384 6.99664 196.443 7.23633 196.562 7.38623Z"></path>
<path fill="white" d="M195.783 7.04095C195.842 7.13085 195.872 7.19079 195.872 7.31066C195.812 7.40057 195.723 7.3706 195.634 7.40057C195.516 7.34063 195.427 7.16088 195.338 7.07098C195.427 6.86114 195.664 7.04095 195.783 7.04095Z"></path>
<path fill="white" d="M195.296 7.34013C195.326 7.46001 195.445 7.49003 195.445 7.60991C195.296 7.66984 195.207 7.54997 195.118 7.49003C195.089 7.46001 195.03 7.37004 195.089 7.34013C195.148 7.31022 195.267 7.42998 195.296 7.34013Z"></path>
<path fill="white" d="M196.527 7.95087C196.438 8.13068 196.26 8.04077 196.112 8.10071C195.964 8.07068 195.934 7.89093 195.815 7.80103C195.875 7.74109 195.964 7.71118 196.082 7.68115C196.26 7.74109 196.379 7.86096 196.527 7.95087Z"></path>
<path fill="white" d="M195.791 8.12786V8.42755C195.583 8.36755 195.287 8.36755 195.168 8.15783C195.227 8.09796 195.168 7.97802 195.287 7.94805C195.494 7.91808 195.642 8.03796 195.791 8.12786Z"></path>
<path fill="white" d="M197.182 8.32959C197.153 8.44946 196.975 8.50946 196.856 8.5993C196.649 8.56934 196.441 8.65918 196.352 8.44946C196.382 8.44946 196.412 8.41949 196.441 8.38959C196.441 8.32959 196.323 8.29962 196.293 8.29962C196.441 8.35956 196.589 8.35956 196.767 8.29962C196.797 8.23975 196.827 8.14984 196.797 8.11987C196.975 8.17981 197.123 8.20978 197.182 8.32959Z"></path>
<path fill="white" d="M195.377 8.67126C195.348 8.73126 195.318 8.73126 195.259 8.73126V8.61133C195.318 8.61133 195.348 8.64136 195.377 8.67126Z"></path>
<path fill="white" d="M196.437 8.86068C196.466 8.95052 196.377 9.04043 196.288 9.07046C196.14 9.10043 196.021 9.19027 195.873 9.10043C195.755 8.98043 195.666 8.86068 195.606 8.71084C195.814 8.62093 196.051 8.71084 196.288 8.83071L196.437 8.86068Z"></path>
<path fill="black" d="M191.296 8.6499C191.415 8.79974 191.652 8.6499 191.741 8.88965C191.978 9.18933 191.889 9.63879 192.156 9.90845C192.156 9.96838 192.215 10.0283 192.156 10.0882C192.067 10.0283 191.978 9.90845 191.889 9.84851C191.8 9.60883 191.563 9.57886 191.415 9.36908C191.445 9.09937 191.267 8.88965 191.178 8.6499L191.267 8.67987L191.296 8.6499Z"></path>
<path fill="white" d="M197.255 8.7384C197.285 8.76831 197.107 8.79828 197.196 8.85822C197.255 8.88818 197.344 8.85822 197.344 8.94818C197.314 9.00806 197.344 9.06799 197.344 9.1579C197.225 9.36761 197.047 9.1579 196.87 9.2179L196.751 9.06799C196.781 8.88824 196.988 9.03802 196.988 8.85822C197.047 8.82831 197.107 8.7384 197.196 8.76831V8.7384L197.285 8.67847C197.255 8.67847 197.225 8.7384 197.255 8.7384Z"></path>
<path fill="white" d="M195.692 9.24835C195.721 9.30829 195.81 9.21838 195.81 9.30829C195.751 9.45807 195.603 9.48804 195.484 9.54803C195.425 9.48804 195.365 9.45807 195.277 9.45807C195.188 9.36816 195.069 9.24835 195.128 9.09851L195.188 9.03857C195.395 9.09851 195.603 9.09851 195.692 9.24835Z"></path>
<path fill="white" d="M196.949 9.45017L196.534 9.80973C196.356 9.74979 196.178 9.68986 196.06 9.54008C196.208 9.39024 196.356 9.39024 196.564 9.36027C196.653 9.12058 196.771 9.4202 196.919 9.36027C197.008 9.39024 196.919 9.42014 196.949 9.45017Z"></path>
<path fill="white" d="M196.105 9.90497L196.254 9.84503C196.283 9.87494 196.313 9.93488 196.313 9.99487C196.165 10.0847 196.046 10.2945 195.839 10.2046C195.601 10.1747 195.631 9.90497 195.453 9.7851C195.601 9.57538 195.779 9.84503 195.987 9.7851L196.105 9.90497Z"></path>
<path fill="white" d="M197.121 9.82526C197.329 9.88519 197.18 10.1548 197.18 10.3047C197.121 10.4545 196.973 10.3047 196.854 10.3047L196.558 10.095C196.706 9.88519 197.002 9.94507 197.151 9.76538L197.121 9.82526Z"></path>
<path fill="white" d="M195.287 10.2378L195.524 10.3877C195.435 10.4476 195.228 10.5375 195.05 10.4476C194.99 10.3877 194.872 10.4476 194.842 10.3577C194.813 10.2079 194.99 10.2679 194.99 10.0881C195.139 9.9981 195.228 10.118 195.287 10.2378Z"></path>
<path fill="white" d="M196.807 10.6042C196.747 10.754 196.57 10.754 196.451 10.8439C196.303 10.7839 196.066 10.814 195.977 10.6342C196.095 10.5143 196.243 10.5443 196.392 10.4543C196.51 10.4543 196.688 10.4844 196.807 10.6042Z"></path>
<path fill="white" d="M197.031 11.1565C196.972 11.2764 197.061 11.4261 196.942 11.4861C196.764 11.4261 196.557 11.3662 196.468 11.1864C196.527 11.1265 196.646 11.1265 196.735 11.0965L196.912 10.8269C197.061 10.8269 196.972 11.0366 197.031 11.1565Z"></path>
<path fill="white" d="M195.834 10.9458L196.072 11.0956C195.983 11.1556 195.923 11.2754 195.805 11.3053C195.538 11.1855 195.152 11.2154 195.063 10.8559C195.241 10.826 195.479 10.7959 195.627 11.0057L195.834 10.9458Z"></path>
<path fill="white" d="M195.115 11.3457V11.4355C194.907 11.3756 194.7 11.6453 194.522 11.4355C194.433 11.3756 194.403 11.2557 194.433 11.1658C194.492 11.1359 194.492 11.0161 194.581 11.0161C194.848 11.0161 194.967 11.2258 195.115 11.3457Z"></path>
<path fill="white" d="M196.527 11.6786C196.498 11.7685 196.438 11.8285 196.379 11.8884C196.172 11.9184 196.023 11.9483 195.816 11.8585C195.786 11.7386 195.519 11.7386 195.668 11.5887C195.934 11.5289 196.231 11.4988 196.468 11.5588L196.527 11.6786Z"></path>
<path fill="white" d="M195.61 12.0451C195.462 12.135 195.195 12.195 195.017 12.0751C194.928 11.9851 194.72 11.9252 194.75 11.7754C194.898 11.6555 195.165 11.7455 195.343 11.7155C195.373 11.8653 195.551 11.8953 195.61 12.0451Z"></path>
<path fill="white" d="M196.859 12.3018C196.859 12.5415 196.651 12.3917 196.533 12.4515C196.385 12.4216 196.296 12.3018 196.236 12.1818C196.325 12.1519 196.414 12.2119 196.503 12.1519C196.622 12.0919 196.651 11.9722 196.8 11.9722C196.889 12.0919 196.77 12.2119 196.859 12.3018Z"></path>
<path fill="white" d="M194.775 12.2131C194.775 12.243 194.894 12.303 194.805 12.333C194.656 12.4229 194.419 12.5428 194.241 12.4229C194.152 12.333 193.945 12.333 193.975 12.1532C194.241 12.0933 194.538 12.1832 194.775 12.2131Z"></path>
<path fill="white" d="M196.049 12.4786C196.02 12.6584 195.901 12.7783 195.723 12.8082C195.545 12.7482 195.308 12.7183 195.189 12.5086C195.249 12.4486 195.397 12.4186 195.456 12.4786C195.516 12.5685 195.604 12.5385 195.693 12.5086C195.782 12.4486 195.842 12.2988 195.96 12.2988C196.02 12.3887 195.99 12.4786 196.049 12.4786Z"></path>
<path fill="white" d="M194.081 12.8452C194.081 12.9352 194.17 12.9951 194.111 13.1149C193.844 13.1149 193.488 13.2647 193.311 12.9352C193.311 12.8153 193.459 12.7853 193.518 12.7853C193.577 12.8153 193.666 12.8453 193.755 12.8453C193.815 12.6955 194.081 12.6955 194.081 12.8452Z"></path>
<path fill="white" d="M194.908 12.7779C194.997 12.7779 195.175 12.7779 195.205 12.8978C195.146 13.1075 194.879 13.0776 194.671 13.1375C194.612 12.9876 194.404 12.9577 194.315 12.8079C194.523 12.658 194.76 12.9876 194.908 12.7779Z"></path>
<path fill="white" d="M196.669 12.9336C196.699 13.0834 196.58 13.2032 196.491 13.2632C196.343 13.3231 196.136 13.3531 195.987 13.2332C195.928 13.2032 195.78 13.0834 195.928 12.9935C196.136 12.9935 196.373 12.7838 196.61 12.8137L196.669 12.9336Z"></path>
<path fill="white" d="M185.914 13.0647C186.418 13.7238 186.922 14.443 187.367 15.1322C187.278 15.2221 187.278 15.4019 187.1 15.4019C186.537 14.6828 186.003 13.8737 185.499 13.0946C185.558 13.0647 185.558 12.9448 185.647 13.0347H185.677C185.647 12.8549 185.855 12.9148 185.914 13.0647Z"></path>
<path fill="white" d="M193.328 13.3337C193.269 13.4536 193.15 13.5434 193.061 13.6333C192.854 13.6034 192.557 13.6633 192.438 13.4236C192.468 13.3937 192.438 13.3637 192.468 13.3037L192.913 13.4236C193.002 13.3637 193.239 13.0641 193.328 13.3337Z"></path>
<path fill="white" d="M195.782 13.5109C195.753 13.5408 195.782 13.6007 195.782 13.6307C195.486 13.7206 195.13 13.7806 194.922 13.4809C194.893 13.4809 194.922 13.4209 194.922 13.4209C195.041 13.391 195.16 13.2411 195.248 13.361C195.456 13.391 195.634 13.1213 195.782 13.331V13.5109Z"></path>
<path fill="white" d="M194.478 13.4648V13.5846C194.3 13.6446 194.092 13.7345 193.944 13.8544C193.825 13.7644 193.677 13.7045 193.647 13.5547C193.766 13.5248 193.944 13.4648 194.092 13.5547C194.181 13.4349 194.359 13.345 194.478 13.4648Z"></path>
<path fill="white" d="M196.635 13.7636C196.605 14.0033 196.308 13.9134 196.16 13.9734C196.012 14.0033 195.864 13.9734 195.745 13.8835C195.804 13.7336 196.012 13.7636 196.16 13.6438C196.308 13.7636 196.635 13.3741 196.635 13.7636Z"></path>
<path fill="white" d="M192.062 13.8772C192.062 13.9371 192.062 13.9671 192.003 13.997C191.914 13.997 191.796 13.9671 191.736 13.8472C191.736 13.7273 191.855 13.8172 191.914 13.7873C191.974 13.7873 192.062 13.7873 192.062 13.8772Z"></path>
<path fill="white" d="M195.18 14.1552C195.091 14.365 194.854 14.2751 194.705 14.335C194.587 14.1852 194.379 14.1852 194.261 14.0354C194.379 13.8256 194.676 13.9755 194.854 13.8855C194.943 14.0354 195.328 13.8256 195.18 14.1552Z"></path>
<path fill="white" d="M193.617 14.0965C193.647 14.2464 193.439 14.1564 193.439 14.3063C193.232 14.2164 192.994 14.2164 192.816 14.0666C192.935 13.9767 193.143 13.9467 193.291 13.9767C193.409 13.9168 193.676 13.8568 193.617 14.0965Z"></path>
<path fill="white" d="M197.031 14.1426C197.031 14.2025 197.001 14.2924 197.09 14.2924C197.031 14.4123 196.942 14.5621 196.823 14.652C196.616 14.6221 196.349 14.652 196.319 14.3823C196.408 14.1426 196.794 14.4123 196.823 14.1426C196.853 14.0228 197.001 14.0228 197.031 14.1426Z"></path>
<path fill="white" d="M195.934 14.332C196.082 14.3918 195.993 14.5718 196.082 14.6616C195.845 14.7815 195.548 14.6616 195.341 14.5118C195.341 14.3918 195.341 14.2422 195.489 14.2422C195.667 14.2721 195.726 14.5118 195.934 14.332Z"></path>
<path fill="white" d="M194.533 14.5428C194.385 14.6027 194.207 14.7526 194.029 14.6925L193.703 14.4828C193.792 14.4229 193.94 14.3929 194.029 14.333C194.178 14.4529 194.355 14.5128 194.533 14.5428Z"></path>
<path fill="white" d="M195.322 14.863C195.292 15.1027 194.996 14.9529 194.877 15.0728C194.788 15.0728 194.61 15.0728 194.551 14.923C194.64 14.923 194.699 14.803 194.729 14.7432C194.818 14.803 194.966 14.803 195.025 14.7432L195.322 14.863Z"></path>
<path fill="white" d="M197.255 15.1285C197.255 15.2783 197.137 15.3682 196.989 15.3383C196.84 15.3383 196.692 15.2484 196.633 15.0986C196.722 14.8888 197.048 15.0986 197.048 14.8289C197.196 14.8588 197.196 15.0087 197.255 15.1285Z"></path>
<path fill="white" d="M196.32 14.9426C196.202 15.0625 196.439 15.2722 196.231 15.3322C196.113 15.3921 195.994 15.3921 195.876 15.3022L195.668 15.0625C195.757 15.0326 195.905 15.0026 195.994 15.0026C196.113 14.9726 196.231 14.9726 196.32 14.9426Z"></path>
<path fill="white" d="M190.228 15.162C190.258 15.252 190.376 15.3419 190.317 15.4318L189.932 15.6715C189.665 15.6415 189.339 15.5516 189.279 15.2819C189.339 15.192 189.428 15.2819 189.487 15.252C189.724 15.312 189.932 15.1022 190.169 15.1321L190.317 15.0422C190.347 15.1321 190.228 15.1021 190.228 15.162Z"></path>
<path fill="white" d="M188.656 15.1074C188.715 15.3171 188.478 15.2272 188.419 15.3171C188.33 15.2572 188.182 15.347 188.122 15.2272C188.093 15.1373 188.122 15.1074 188.211 15.0774L188.656 15.1074Z"></path>
<path fill="white" d="M195.619 15.541C195.53 15.6609 195.352 15.7208 195.204 15.6609C195.144 15.6009 194.937 15.541 195.026 15.3912C195.115 15.3313 195.263 15.3313 195.382 15.3313L195.619 15.541Z"></path>
<path fill="white" d="M191.343 15.541C191.373 15.6608 191.284 15.7807 191.195 15.8107C190.928 15.8406 190.661 15.8706 190.424 15.7208L190.602 15.5709C190.661 15.601 190.78 15.5709 190.839 15.5111C190.958 15.3912 191.135 15.4212 191.284 15.4511L191.343 15.541Z"></path>
<path fill="white" d="M197.75 15.6632C197.72 15.7531 197.809 15.8429 197.75 15.9329C197.572 15.813 197.187 16.0228 197.216 15.6632C197.276 15.6033 197.335 15.6932 197.365 15.6332C197.454 15.4535 197.632 15.6033 197.75 15.6632Z"></path>
<path fill="white" d="M187.937 15.6719C187.967 15.7617 187.937 15.8217 187.848 15.8517C187.73 15.7917 187.552 15.7917 187.552 15.6419C187.641 15.552 187.848 15.582 187.937 15.6719Z"></path>
<path fill="white" d="M196.312 15.6506C196.312 15.7405 196.223 15.8604 196.104 15.8904C196.045 15.9802 195.897 15.9203 195.808 15.8904L195.778 15.8604C195.867 15.5907 196.104 15.7705 196.312 15.6506Z"></path>
<path fill="white" d="M189.203 15.7852C189.085 15.8452 188.996 15.995 188.877 16.055C188.67 16.0849 188.521 15.8751 188.284 15.8751V15.7254C188.581 15.9651 188.788 15.5455 189.055 15.6953L189.203 15.7852Z"></path>
<path fill="white" d="M196.958 15.9285L197.018 16.0184C196.84 16.1982 196.603 16.0483 196.425 16.0783C196.514 16.0184 196.543 15.8087 196.662 15.8685L196.81 15.7188C196.929 15.7487 196.84 15.9285 196.958 15.9285Z"></path>
<path fill="white" d="M192.024 16.194C192.054 16.224 192.113 16.194 192.173 16.1641C191.906 16.4038 191.461 16.3739 191.164 16.3139L191.046 16.194C191.224 16.0443 191.609 16.224 191.698 15.9243C191.846 15.9843 192.084 15.9843 192.024 16.194Z"></path>
<path fill="white" d="M190.362 16.1055C190.391 16.3753 190.095 16.3153 189.947 16.4052C189.798 16.2554 189.532 16.2254 189.413 16.0756C189.532 15.9258 189.65 16.1055 189.769 16.1055C189.947 16.0457 190.214 15.8958 190.362 16.1055Z"></path>
<path fill="white" d="M187.666 16.3075C187.548 16.3075 187.607 16.3973 187.577 16.4573C187.429 16.5172 187.281 16.4573 187.251 16.3075L187.222 16.1577C187.34 16.1876 187.548 16.2476 187.666 16.3075Z"></path>
<path fill="white" d="M198.189 16.6066L198.13 16.6664C198.07 16.6066 197.922 16.5765 197.833 16.5166C197.715 16.5166 197.626 16.4867 197.566 16.3967C197.566 16.3368 197.655 16.3368 197.715 16.3368C197.863 16.3668 197.893 16.157 198.011 16.247C198.13 16.3069 198.189 16.4567 198.189 16.6066Z"></path>
<path fill="white" d="M196.393 16.4383C196.275 16.4983 196.275 16.6481 196.127 16.5582C196.008 16.4983 195.8 16.4383 195.83 16.2885C195.978 16.2586 196.097 16.1987 196.245 16.2286C196.304 16.2885 196.275 16.4084 196.393 16.4383Z"></path>
<path fill="white" d="M188.863 16.451C188.685 16.5109 188.448 16.7207 188.241 16.5709C188.152 16.481 188.063 16.3611 187.974 16.2412C188.27 16.3911 188.537 16.451 188.863 16.451Z"></path>
<path fill="white" d="M197.255 16.5269C197.314 16.5869 197.433 16.6767 197.433 16.7666C197.285 16.8565 197.107 16.7666 196.959 16.7366C196.899 16.6767 196.781 16.6168 196.751 16.5269C196.84 16.407 197.018 16.5568 197.136 16.467C197.255 16.407 197.225 16.467 197.255 16.5269Z"></path>
<path fill="white" d="M191.378 16.6827C191.348 16.8325 191.141 16.7426 191.052 16.8924C190.844 17.0423 190.666 16.8024 190.518 16.7126C190.399 16.5927 190.488 16.5028 190.607 16.4729C190.903 16.383 191.081 16.6827 191.378 16.6827Z"></path>
<path fill="white" d="M192.627 16.6404C192.686 16.7003 192.686 16.7902 192.775 16.88C192.716 17.0898 192.508 17.0299 192.36 17.0598C192.152 17.0299 191.975 16.97 191.797 16.8501C191.767 16.8201 191.767 16.7602 191.737 16.7003C191.826 16.6703 192.004 16.7902 192.063 16.6403C192.33 16.8201 192.39 16.3107 192.597 16.6103H192.627V16.6404Z"></path>
<path fill="white" d="M189.94 16.7711C189.999 16.7711 190.059 16.7412 190.148 16.7711L190.118 16.9509C189.911 17.0109 189.673 17.0109 189.466 16.9509C189.347 16.8911 189.258 16.8011 189.14 16.7711C189.14 16.6513 189.258 16.6813 189.318 16.6213C189.495 16.7112 189.733 16.6813 189.94 16.7711Z"></path>
<path fill="white" d="M198.621 16.8383C198.621 16.8983 198.65 16.9882 198.71 17.0181C198.71 17.078 198.65 17.078 198.591 17.078L198.561 17.0481C198.413 17.078 198.265 17.0181 198.117 16.8983L198.087 16.8683C198.235 16.7783 198.502 16.6286 198.621 16.8383Z"></path>
<path fill="white" d="M196.867 17.0068C196.778 17.1267 196.63 17.0666 196.482 17.0968C196.334 17.0968 196.334 16.9469 196.274 16.8869C196.334 16.737 196.512 16.8569 196.63 16.8569L196.867 17.0068Z"></path>
<path fill="white" d="M192.815 16.872L192.904 16.842L192.845 16.872H192.815Z"></path>
<path fill="white" d="M186.912 16.9394C186.942 16.9994 186.853 17.0593 186.823 17.1192C186.735 17.0892 186.557 17.0892 186.557 16.9693C186.646 16.8196 186.794 16.9693 186.912 16.9394Z"></path>
<path fill="white" d="M187.964 17.104C187.934 17.1938 187.905 17.2837 187.786 17.2837C187.638 17.2238 187.46 17.2238 187.312 17.074L187.4 16.9541C187.549 17.044 187.786 17.014 187.964 17.104Z"></path>
<path fill="black" d="M180.847 17.0069C182.24 17.0967 183.723 17.1566 185.146 17.2764C185.235 17.3964 185.383 17.3663 185.472 17.3364C188.318 17.696 191.046 18.3851 193.744 19.1344C195.197 19.5538 196.561 20.0931 197.895 20.7524C198.014 20.8422 197.984 20.9921 198.043 21.112C197.539 23.8986 197.065 26.5955 196.531 29.3223C196.324 30.5208 195.908 31.7494 195.79 32.858C195.76 32.858 195.76 33.0079 195.671 32.948L195.701 32.9779C195.197 35.3751 194.396 37.6524 192.795 39.5401C192.677 39.5401 192.736 39.69 192.647 39.75C190.246 42.5666 186.954 44.5143 183.308 44.8739C181.084 43.1659 179.512 40.7088 178.504 38.2517C177.704 36.0643 177.348 33.697 177.615 31.2999C177.911 28.3034 178.653 25.4268 179.216 22.5502C179.364 22.4005 179.275 22.1308 179.364 21.9509C179.72 20.273 180.165 18.6549 180.55 16.9768C180.698 16.9469 180.876 16.9469 181.054 16.9768L180.847 17.0069Z"></path>
<path fill="white" d="M191.818 17.281C191.877 17.341 191.995 17.341 192.084 17.4009C191.995 17.4908 191.818 17.4608 191.699 17.4908C191.551 17.4009 191.373 17.341 191.313 17.1312C191.343 17.1312 191.432 16.9814 191.521 17.0412C191.61 17.1611 191.729 17.251 191.818 17.281Z"></path>
<path fill="white" d="M189.204 17.1375C189.322 17.1674 189.204 17.2874 189.293 17.3173C189.085 17.4671 188.818 17.4072 188.581 17.3473C188.611 17.2573 188.463 17.2873 188.522 17.1974C188.463 17.1674 188.374 17.1375 188.403 17.0476C188.67 17.0776 188.937 17.1675 189.204 17.1375Z"></path>
<path fill="white" d="M198.198 17.281C198.02 17.4609 197.753 17.311 197.546 17.311L197.486 17.1912C197.664 17.0713 197.842 17.1612 198.02 17.0713C198.079 17.0713 198.228 17.1313 198.198 17.281Z"></path>
<path fill="white" d="M190.921 17.281C191.129 17.221 191.04 17.5507 191.218 17.5806C191.247 17.7605 191.01 17.6706 190.951 17.7305C190.684 17.6106 190.387 17.5507 190.239 17.281C190.269 17.1912 190.417 17.1013 190.506 17.221C190.654 17.2511 190.773 17.2511 190.921 17.281Z"></path>
<path fill="white" d="M193.22 17.6721L193.161 17.7921C192.864 17.7621 192.509 17.7921 192.36 17.4924C192.538 17.2826 192.805 17.5523 192.983 17.3425C193.072 17.4325 193.22 17.5223 193.22 17.6721Z"></path>
<path fill="white" d="M197.427 17.626C197.338 17.596 197.249 17.626 197.16 17.7159C197.042 17.656 196.834 17.7458 196.805 17.5661C196.864 17.3564 197.101 17.4762 197.249 17.4163L197.427 17.626Z"></path>
<path fill="white" d="M198.873 17.7819C198.784 17.9616 198.547 17.8718 198.399 17.8718C198.34 17.8119 198.221 17.8718 198.191 17.7819C198.251 17.6022 198.458 17.7519 198.547 17.6321C198.577 17.6321 198.636 17.692 198.695 17.6321C198.695 17.6022 198.666 17.5721 198.636 17.5721C198.784 17.3325 198.784 17.692 198.903 17.6321L198.873 17.7819Z"></path>
<path fill="white" d="M193.402 17.55C193.402 17.55 193.372 17.6099 193.313 17.6099C193.283 17.58 193.372 17.55 193.402 17.55Z"></path>
<path fill="white" d="M183.309 17.7147L186.956 18.1343C186.63 19.9022 186.215 21.6101 185.8 23.3781C185.741 23.3781 185.711 23.4679 185.681 23.4979C183.784 23.1683 181.886 23.0185 179.989 22.8087C180.048 22.7189 179.929 22.7189 179.959 22.629C180.255 20.9808 180.611 19.4526 180.967 17.8646C181.056 17.8047 181.026 17.6548 181.056 17.5649C181.768 17.6848 182.568 17.6248 183.309 17.7147Z"></path>
<path fill="white" d="M197.982 18.0598C197.805 18.2097 197.567 18.2097 197.36 18.0898C197.33 18.0598 197.36 18.0299 197.33 18C197.508 17.8501 197.953 17.7003 197.982 18.0598Z"></path>
<path fill="white" d="M193.652 18.258C193.681 18.3179 193.592 18.3779 193.652 18.4078C193.681 18.3779 193.711 18.4078 193.74 18.4078C193.711 18.4378 193.681 18.5277 193.622 18.4677C193.385 18.8273 193.029 18.4378 192.732 18.4078C192.762 18.4078 192.821 18.2879 192.792 18.198C193.059 18.2879 193.296 18.0483 193.563 18.1681L193.652 18.258Z"></path>
<path fill="white" d="M199.089 18.4263C199.06 18.4263 199.089 18.4863 199.089 18.4863C199 18.4563 199.03 18.5762 198.941 18.5762C198.734 18.6061 198.763 18.3964 198.556 18.3964C198.615 18.3065 198.763 18.3365 198.852 18.2466C198.941 18.3065 199.06 18.3365 199.089 18.4263Z"></path>
<path fill="white" d="M198.19 18.4476C198.279 18.5375 198.368 18.7772 198.546 18.7472C198.427 18.7472 198.309 18.8072 198.19 18.7472C198.101 18.6574 197.804 18.7173 197.893 18.5076C197.923 18.3577 198.071 18.5076 198.19 18.4476Z"></path>
<path fill="white" d="M189.741 19.5891L189.86 20.0684C189.771 20.4281 189.564 20.8176 189.208 20.9674L189.148 21.0573C188.941 22.2559 188.852 23.5744 188.615 24.7729C189.386 25.0726 190.186 25.3423 190.868 25.8816C190.839 26.1214 190.72 26.4809 190.72 26.6906C190.038 26.451 189.415 26.1812 188.733 26.0015C187.607 25.7917 186.45 25.552 185.324 25.4621C184.968 25.4621 184.701 25.612 184.375 25.4621C184.434 25.1924 184.405 24.8628 184.494 24.5631C185.324 24.4134 186.273 24.4134 187.162 24.5332C187.34 24.3235 187.31 23.9939 187.429 23.7542C187.696 22.7953 187.933 21.7465 188.259 20.7876C188.289 20.5778 187.992 20.6079 188.051 20.3681C187.874 20.2483 188.051 20.0086 187.963 19.8587C188.022 19.4392 188.467 19.2295 188.822 19.1096C189.208 19.0496 189.564 19.2895 189.741 19.5891Z"></path>
<path fill="white" d="M197.372 21.1771C197.223 21.6265 197.312 22.076 197.194 22.5255C196.986 23.814 196.779 25.1324 196.66 26.4808C196.512 26.5707 196.393 26.3909 196.275 26.361C195.622 26.1512 194.97 25.8815 194.318 25.7317L194.258 25.6718C192.983 25.3422 191.709 24.9526 190.404 24.653C190.434 24.593 190.374 24.593 190.345 24.563C190.582 24.2934 190.523 23.8739 190.612 23.5443C190.938 22.076 191.264 20.5479 191.679 19.1694C193.695 19.529 195.504 20.4279 197.372 21.1771Z"></path>
<path fill="white" d="M202.241 22.2301L202.211 22.38C202.093 22.4399 202.004 22.32 201.945 22.2301C201.915 22.1702 201.974 22.1702 202.004 22.1403C202.122 22.0804 202.241 22.1103 202.241 22.2301Z"></path>
<path fill="white" d="M202.62 23.0514C202.56 23.2012 202.56 23.381 202.382 23.381C202.264 23.381 202.145 23.3211 202.086 23.1713C202.086 23.0214 202.294 23.0214 202.234 22.8716C202.293 23.0214 202.531 22.8716 202.62 23.0514Z"></path>
<path fill="white" d="M202.917 23.9948C202.769 24.1446 202.947 24.3245 202.739 24.4143C202.562 24.3543 202.384 24.3543 202.235 24.2645C202.295 23.9948 202.591 24.0247 202.739 23.875C202.799 23.875 202.888 23.9349 202.917 23.9948Z"></path>
<path fill="white" d="M203.322 24.7951C203.411 25.0348 203.174 25.0947 203.174 25.3344C202.937 25.3045 202.699 25.3045 202.521 25.1547C202.551 24.9149 202.877 25.0048 202.996 24.8551C203.085 24.825 203.203 24.6752 203.322 24.7951Z"></path>
<path fill="white" d="M202.753 25.8359C202.723 26.0456 202.486 26.0156 202.397 26.1355C202.338 26.1055 202.249 26.0756 202.249 25.9856C202.368 25.8958 202.219 25.626 202.368 25.5662C202.546 25.5961 202.605 25.7759 202.753 25.8359Z"></path>
<path fill="white" d="M203.528 26.181C203.587 26.3608 203.439 26.4507 203.291 26.5106C203.113 26.4507 202.935 26.4507 202.816 26.2709C203.024 26.151 203.35 25.7016 203.528 26.181Z"></path>
<path fill="white" d="M187.623 26.4128C187.653 26.4427 187.564 26.4728 187.623 26.5027C187.682 26.3529 187.831 26.5327 187.92 26.5627C188.068 26.7125 188.186 26.8923 188.394 26.9522L188.483 27.0721L188.335 27.6115L186.348 36.0915C185.903 38.0092 185.37 39.8969 184.836 41.7847C184.895 41.9346 184.717 41.9944 184.747 42.1143L184.688 42.324C184.391 42.8035 184.095 43.2829 183.709 43.7024C183.413 43.1031 183.265 42.3839 183.265 41.6948C183.887 38.0391 184.747 34.3535 185.459 30.7877L186.348 26.6825C186.526 26.6226 186.674 26.4728 186.882 26.4728L186.941 26.5927L186.318 30.0685L184.806 37.7694C184.747 38.2488 184.54 38.6983 184.569 39.1778H184.599C185.607 34.8929 186.467 30.6079 187.623 26.4128Z"></path>
<path fill="white" d="M203.266 26.8253C203.325 26.8552 203.296 26.9451 203.266 26.975C203.118 27.1249 202.97 27.035 202.821 27.1249C202.673 27.1249 202.406 27.1249 202.465 26.8851C202.465 26.8253 202.495 26.7952 202.554 26.7952C202.732 26.9451 202.851 26.6155 203.029 26.7952L203.266 26.8253Z"></path>
<path fill="white" d="M203.825 27.3475C203.825 27.4373 203.766 27.5572 203.677 27.5872C203.41 27.6771 203.232 27.5872 202.995 27.5272L202.936 27.4373C203.202 27.4373 203.38 27.1976 203.617 27.1377C203.677 27.2276 203.766 27.2574 203.825 27.3475Z"></path>
<path fill="white" d="M202.585 27.4785C202.644 27.5684 202.614 27.6883 202.733 27.7182C202.585 27.7781 202.466 27.7182 202.348 27.6583C202.288 27.5983 202.318 27.5084 202.318 27.4485C202.377 27.3587 202.466 27.5084 202.585 27.4785Z"></path>
<path fill="white" d="M184.639 28.1015C184.165 30.4687 183.631 32.8958 183.157 35.263C182.979 35.8623 182.831 36.4916 182.742 37.1208C182.475 38.1996 182.238 39.3083 182.06 40.3869C181.911 41.1361 181.793 41.9452 181.704 42.6643L181.645 42.7242C179.065 39.548 177.731 35.6825 178.146 31.4576C178.205 30.1391 178.472 28.8506 178.769 27.5921C179.451 27.4123 180.251 27.6221 181.022 27.6221C182.238 27.7419 183.453 27.9517 184.639 28.1015Z"></path>
<path fill="white" d="M203.537 28.0132C203.389 28.2828 203.063 28.2529 202.796 28.223C202.736 28.1331 202.677 28.0731 202.647 27.9533C202.796 27.6835 203.003 28.0132 203.211 28.0132H203.537Z"></path>
<path fill="white" d="M203.976 28.4679C204.036 28.6478 203.858 28.7376 203.709 28.7376C203.502 28.7376 203.383 28.6777 203.176 28.6178C203.383 28.5279 203.621 28.3781 203.798 28.1982C203.947 28.2582 203.947 28.3781 203.976 28.4679Z"></path>
<path fill="white" d="M202.702 28.5778L202.939 28.6378C202.939 28.7576 202.939 28.9373 202.791 28.9373C202.554 28.9373 202.257 28.9373 202.138 28.6977C202.109 28.6077 202.168 28.4879 202.287 28.4879C202.405 28.4879 202.583 28.4281 202.702 28.5778Z"></path>
<path fill="white" d="M203.671 29.1759C203.493 29.2958 203.404 29.7153 203.078 29.4756C203.019 29.3857 202.841 29.4756 202.752 29.3557C202.9 29.3258 203.048 29.2059 203.197 29.146C203.315 29.116 203.523 29.146 203.671 29.1759Z"></path>
<path fill="white" d="M202.331 29.2892C202.331 29.3791 202.242 29.3791 202.183 29.4391C202.094 29.4391 201.976 29.3791 201.976 29.2892C202.035 29.1095 202.242 29.1694 202.331 29.2892Z"></path>
<path fill="white" d="M192.834 30.0521C193.723 30.3817 194.642 30.6814 195.532 31.011L195.561 31.071H195.532C195.324 31.4305 195.472 31.7601 195.324 32.1796C194.998 33.7078 194.583 35.206 194.049 36.6743C192.685 39.2512 190.402 41.4985 187.823 42.8171C187.2 43.2066 186.459 43.4463 185.777 43.7459C185.836 43.5362 185.836 43.2964 185.866 43.0568H185.836L185.718 43.5362C186.37 40.7195 187.111 37.9328 187.734 35.1161C188.238 33.2584 188.653 31.2507 189.127 29.3329C189.276 29.2731 189.365 29.3929 189.483 29.3329C190.64 29.4828 191.737 29.7824 192.834 30.0521Z"></path>
<path fill="white" d="M204.239 29.5549C204.268 29.7346 204.091 29.7945 203.942 29.7945C203.824 29.7346 203.735 29.7945 203.616 29.7046C203.735 29.5848 203.764 29.4349 203.883 29.375C204.031 29.375 204.15 29.4649 204.239 29.5549Z"></path>
<path fill="#231F20" d="M204.093 29.7194C204.093 29.7194 204.004 29.7494 204.033 29.6895L204.093 29.7194Z"></path>
<path fill="white" d="M202.538 29.875C202.716 29.905 202.894 29.6953 203.012 29.875C202.924 30.0249 202.775 30.0848 202.627 30.2346C202.419 30.1447 202.093 30.0848 202.123 29.7851C202.242 29.5753 202.39 29.8152 202.538 29.875Z"></path>
<path fill="white" d="M203.787 30.2203C203.787 30.3401 203.965 30.5199 203.728 30.5499C203.579 30.5798 203.52 30.7296 203.342 30.6996C203.253 30.5199 203.046 30.4899 202.897 30.4599C202.986 30.1603 203.224 30.43 203.372 30.2502C203.52 30.1902 203.728 29.9506 203.787 30.2203Z"></path>
<path fill="white" d="M202.108 30.376C202.108 30.436 202.138 30.5258 202.197 30.5558C202.108 30.6157 201.989 30.8555 201.841 30.6757C201.782 30.6757 201.693 30.7955 201.634 30.6757C201.574 30.6157 201.634 30.5558 201.574 30.4958C201.574 30.4059 201.574 30.316 201.663 30.2861C201.782 30.4059 201.96 30.436 202.108 30.376Z"></path>
<path fill="white" d="M204.346 30.8309C204.346 30.9808 204.346 31.1605 204.198 31.2205C204.109 31.2205 204.02 31.1006 203.902 31.1306L203.724 30.9208C203.872 30.8309 204.05 30.6812 204.257 30.6812L204.346 30.8309Z"></path>
<path fill="white" d="M203.15 31.0416C203.12 31.2214 202.883 31.2214 202.794 31.3712C202.646 31.3412 202.527 31.2513 202.379 31.2214L202.201 31.0416C202.26 30.9817 202.29 30.8618 202.409 30.8618C202.616 31.1315 203.002 30.652 203.15 31.0416Z"></path>
<path fill="white" d="M201.927 31.4417C202.075 31.3518 202.164 31.5316 202.253 31.5916L201.898 31.8013C201.69 31.7414 201.453 31.6515 201.394 31.4417C201.423 31.4118 201.394 31.2919 201.453 31.3219C201.631 31.3518 201.749 31.5616 201.927 31.4417Z"></path>
<path fill="white" d="M203.878 31.539C203.67 31.6289 203.611 31.8985 203.373 31.8686C203.255 31.7188 203.018 31.7188 202.929 31.539C202.988 31.509 203.107 31.5989 203.166 31.4791C203.314 31.509 203.492 31.539 203.581 31.4192C203.67 31.449 203.789 31.509 203.878 31.539Z"></path>
<path fill="white" d="M204.515 31.7833C204.574 31.9631 204.485 32.083 204.396 32.2627C204.159 32.2627 203.922 32.3226 203.714 32.2028C203.685 31.8732 204.1 31.9032 204.307 31.7234C204.396 31.7234 204.485 31.7234 204.515 31.7833Z"></path>
<path fill="white" d="M203.106 32.116C202.988 32.2358 202.84 32.3857 202.662 32.4156C202.484 32.3257 202.128 32.3557 202.187 32.026C202.395 31.9362 202.662 31.9362 202.869 31.9662L203.106 32.116Z"></path>
<path fill="white" d="M201.686 32.2506C201.745 32.3105 201.834 32.4004 201.716 32.4604H201.745C201.567 32.5802 201.33 32.4305 201.123 32.3705C201.063 32.3105 200.945 32.2806 200.974 32.1607C201.182 31.9809 201.419 32.3405 201.686 32.2506Z"></path>
<path fill="white" d="M203.734 32.5958C203.734 32.6557 203.794 32.6857 203.853 32.6857C203.616 32.7457 203.586 33.0453 203.319 32.9854L203.26 33.0453L202.904 32.7457C203.053 32.5659 203.319 32.5059 203.527 32.5359C203.557 32.6258 203.616 32.5958 203.734 32.5958Z"></path>
<path fill="white" d="M202.585 33.0594C202.348 32.9995 202.199 33.3591 201.962 33.2092C201.844 33.0894 201.636 33.0295 201.606 32.8796C201.814 32.55 202.081 32.8796 202.377 32.8796C202.466 32.8796 202.526 32.9695 202.585 33.0594Z"></path>
<path fill="white" d="M201.255 32.9623C201.344 33.0223 201.315 33.1122 201.255 33.1721C201.048 33.1721 200.811 33.1721 200.722 32.9623C200.692 32.9025 200.722 32.8425 200.781 32.8425C200.929 32.9025 201.077 32.9924 201.255 32.9623Z"></path>
<path fill="white" d="M204.372 33.0843C204.224 33.1742 204.253 33.414 204.105 33.5039C203.897 33.5339 203.749 33.414 203.571 33.324C203.779 33.1742 204.075 32.8746 204.372 33.0843Z"></path>
<path fill="white" d="M200.786 33.6154C200.697 33.6753 200.578 33.6154 200.489 33.6453C200.43 33.6154 200.371 33.5554 200.43 33.4955C200.489 33.4057 200.845 33.4057 200.786 33.6154Z"></path>
<path fill="white" d="M202.792 33.5606C202.97 33.6206 203.266 33.4408 203.296 33.7105C203.355 33.7404 203.296 33.8303 203.326 33.8602C203.207 33.9202 203.059 34.0401 202.94 33.9202L202.911 33.9502C202.703 33.9202 202.436 33.8902 202.377 33.6505C202.377 33.5905 202.436 33.5905 202.466 33.5905C202.436 33.5606 202.436 33.4108 202.525 33.4408C202.644 33.4108 202.703 33.5006 202.792 33.5606Z"></path>
<path fill="white" d="M201.793 33.4932C202.06 33.4333 201.882 33.7629 202.06 33.8528C201.882 33.8528 201.734 34.1525 201.586 33.8828C201.527 33.673 201.141 33.703 201.319 33.4333C201.467 33.5532 201.586 33.4932 201.793 33.4932Z"></path>
<path fill="white" d="M201.28 34.2935C201.132 34.2335 200.925 34.2634 200.865 34.0537C200.865 33.9937 200.895 33.9639 200.954 33.9338C201.043 34.1436 201.547 33.9937 201.28 34.2935Z"></path>
<path fill="white" d="M200.463 34.2809C200.463 34.5206 200.285 34.2509 200.196 34.3109C200.137 34.2809 200.167 34.161 200.226 34.1311C200.315 34.1311 200.434 34.161 200.463 34.2809Z"></path>
<path fill="white" d="M202.521 34.3022C202.64 34.3022 202.847 34.2124 202.847 34.3921V34.452C202.64 34.452 202.432 34.7217 202.225 34.5119C202.166 34.452 202.077 34.3322 202.166 34.2422C202.254 34.1823 202.343 34.2124 202.432 34.2124L202.521 34.3022Z"></path>
<path fill="white" d="M201.057 34.6473C200.968 34.8571 200.761 34.6772 200.612 34.6772C200.553 34.6174 200.464 34.5275 200.583 34.4675C200.731 34.5275 200.939 34.4975 201.057 34.6473Z"></path>
<path fill="white" d="M201.918 34.7572C201.948 34.8171 201.948 34.9069 201.859 34.9069C201.651 34.9368 201.533 34.7871 201.355 34.7572C201.295 34.6972 201.355 34.6073 201.414 34.6073C201.681 34.4875 201.71 34.7271 201.918 34.7572Z"></path>
<path fill="white" d="M200.329 35.0811C200.329 35.1709 200.181 35.1409 200.121 35.1709C200.062 35.1709 199.973 35.1709 199.943 35.1109C199.943 35.051 200.003 34.9911 200.032 34.9612C200.121 34.9911 200.27 34.9911 200.329 35.0811Z"></path>
<path fill="white" d="M201.596 35.4014L201.536 35.4313C202.574 36.8098 203.434 38.1881 204.412 39.5965C204.175 39.5665 203.849 39.6564 203.641 39.5366C202.693 38.1881 201.773 36.9596 200.795 35.6411C200.795 35.5513 200.706 35.4014 200.854 35.3714C201.062 35.4014 201.21 35.2816 201.418 35.3115C201.477 35.3115 201.507 35.4313 201.596 35.4014Z"></path>
<path fill="black" d="M42.1264 12.5844V10.217H52.8001V12.6143L49.4794 12.9438L42.0374 23.5214C42.0374 23.5214 49.1829 34.3985 50.102 35.7769C51.1397 37.3051 51.8513 37.8745 53.0373 37.8745C53.4227 37.8745 53.7489 37.8745 53.7489 37.8745L53.571 40.2717H39.873L40.0509 37.8745L43.1641 37.6047L37.7679 29.2746C37.7679 29.2746 33.706 35.1776 32.9055 36.3463C32.1643 37.395 32.2829 37.7245 33.3799 37.7245L36.4634 37.8745L36.3152 40.2716H24.8112L25.0485 37.8745L28.3988 37.6047L36.1669 26.6676C36.1669 26.6676 29.5255 16.2699 28.3098 14.3522C27.4797 13.0338 26.5013 12.5842 24.752 12.5842V10.217H38.7167V12.6142L35.4553 12.9438L40.3474 21.0643L44.9431 14.1724C45.5064 13.3034 45.4174 12.8839 44.5576 12.794L42.1264 12.5844Z"></path>
<path fill="black" d="M88.711 12.5878C93.2177 12.5878 95.8565 14.2957 95.8565 18.0712C95.8565 22.506 92.8026 24.0941 88.6221 24.0941C88.5628 24.0941 88.5035 24.0941 88.5035 24.0941V12.5877C88.5035 12.5877 88.5925 12.5878 88.711 12.5878ZM101.401 31.5553C100.66 28.1393 98.347 26.0118 95.056 25.2628C95.0263 25.2628 95.056 25.2028 95.1746 25.2028C98.7325 24.3638 102.735 21.667 102.765 17.7416C102.794 12.0184 97.3983 10.2205 88.9186 10.2205H78.5117V12.5878C78.571 12.5878 78.6007 12.5878 78.66 12.5878C80.7947 12.6177 81.8918 14.0859 81.8918 16.9326V37.5782L78.8972 37.8479L78.7192 40.2451H92.269L92.4469 37.8479C92.3579 37.8479 92.2393 37.8479 92.1504 37.8479C88.7703 37.8479 88.4738 37.758 88.4738 34.9713V26.6411C88.4738 26.6411 88.5331 26.6711 88.6518 26.6711C92.1504 26.6411 93.8997 27.8397 94.6113 30.8661C94.9374 32.2145 95.0263 33.3532 95.3525 35.0012C96.153 39.1064 97.5762 40.3649 102.201 40.3649C102.646 40.3649 102.972 40.335 103.269 40.335C103.684 40.335 104.218 40.2751 104.218 40.2751L104.395 37.9078C102.705 37.9078 102.32 37.4284 101.964 35.1511C101.697 33.0835 101.668 32.8138 101.401 31.5553Z"></path>
<path fill="black" d="M54.1966 12.5846C56.6279 12.5846 57.6952 13.993 57.6952 16.8995V37.6051L54.9379 37.8447L54.7599 40.2419H69.2881L69.4659 37.8447H68.6358C64.6035 37.8748 64.3366 37.5452 64.3366 34.5188V27.3273C64.3366 27.3273 64.3959 27.3872 64.5145 27.4171C71.7489 29.0652 78.5089 25.6193 78.5089 18.4277C78.5089 12.0752 73.0238 10.1875 64.6331 10.1875H54.167L54.1966 12.5846ZM64.4256 12.5846C68.8729 12.5846 71.8972 14.3525 71.8972 18.8173C71.8972 23.222 68.8729 25.3197 64.5442 24.9301C64.3959 24.9301 64.307 24.9001 64.307 24.9001V12.5547C64.3663 12.5846 64.3959 12.5846 64.4256 12.5846Z"></path>
<path fill="black" d="M14.7427 26.4251C16.3734 26.4251 17.0257 26.7548 17.7373 27.6837C18.182 28.283 18.4489 28.7025 18.5674 28.9122C18.6267 29.0021 18.6564 29.062 18.6564 29.062H20.3464V20.7019H18.3303C18.3303 20.7618 18.3303 20.8218 18.3006 20.9116C17.8855 22.7994 17.2332 23.3688 14.3869 23.3688L11.0662 23.3388V12.8811H17.9448C18.775 12.8811 19.0418 12.9711 19.1604 13.2707C19.3383 13.87 19.4866 14.2595 19.9313 15.3981C20.3464 16.447 20.7022 17.0462 21.0284 17.4357L23.252 17.4058L22.3922 10.1843H0.481445V12.5815C0.511108 12.5815 0.540771 12.5815 0.600037 12.5815C3.17957 12.5815 4.45444 13.5104 4.45444 17.0762V37.572L1.19302 37.8416L1.01514 40.2388H23.4892L24.3787 31.7589C23.8746 31.609 23.4003 31.579 22.9259 31.579C22.3922 31.579 21.9475 31.8187 21.7399 32.2682C21.5323 32.8076 21.2062 33.6166 20.6725 34.9052C19.7831 36.9727 18.6267 37.542 15.395 37.542H11.6888C11.1848 37.542 11.0959 37.3023 11.0959 36.8528V26.3952L14.7427 26.4251Z"></path>
<path fill="black" d="M131.314 30.8524C132.47 30.8524 132.974 31.1819 133.241 32.3805C134.042 35.9464 135.909 38.3435 139.23 38.3435C142.195 38.3435 144.152 36.5457 144.152 33.7589C144.152 31.4517 142.936 30.0134 138.252 28.1255C133.241 26.088 130.602 23.0616 130.602 18.4171C130.573 12.9935 134.575 9.51758 140.683 9.51758C142.64 9.51758 144.33 10.027 145.694 11.1057C145.694 11.1057 145.723 11.0757 145.783 11.0158C146.138 10.7761 146.524 10.5364 147.058 10.3566C147.947 10.0869 148.481 10.2067 148.481 10.2067C148.481 10.2067 148.362 11.2555 148.659 14.3718C148.896 17.0087 149.252 18.5369 149.252 18.5369H146.731C145.101 14.0422 143.262 12.0646 140.179 12.0646C137.511 12.0646 135.702 13.6526 135.702 16.2596C135.702 18.8066 137.244 20.3348 141.306 21.833C146.791 23.8706 149.548 26.7772 149.548 31.4217C149.548 36.8753 145.457 40.8905 139.467 40.9205C136.651 40.9504 134.961 40.3511 133.182 39.1226C133.182 39.1226 133.152 39.1525 133.093 39.2125C132.856 39.4522 132.352 39.7518 131.818 39.9317C130.662 40.2912 129.802 40.2613 129.802 40.2613L130.751 30.8524C130.632 30.8524 130.958 30.8524 131.314 30.8524Z"></path>
<path fill="black" d="M118.95 26.4283C120.581 26.4283 121.233 26.7879 121.945 27.6868C122.389 28.2861 122.656 28.7056 122.775 28.9154C122.834 29.0053 122.864 29.0652 122.864 29.0652H124.554V20.7051H122.538C122.538 20.765 122.538 20.825 122.508 20.9148C122.093 22.8026 121.441 23.3719 118.594 23.3719L115.274 23.342V12.8843H122.271C123.101 12.8843 123.279 13.0641 123.368 13.3637C123.546 13.963 123.664 14.2627 124.109 15.4013C124.524 16.4501 124.88 17.0494 125.206 17.4089H127.43L126.57 10.1875H104.659V12.5547C104.689 12.5547 104.719 12.5547 104.778 12.5547C107.357 12.5247 108.632 13.5135 108.632 17.0793V37.5752L105.578 37.8448L105.4 40.242H127.637L128.527 31.762C128.023 31.6122 127.548 31.5822 127.074 31.5822C126.54 31.5822 126.096 31.8219 125.888 32.2714C125.68 32.8107 125.354 33.6198 124.821 34.9083C123.931 36.9759 122.775 37.5452 119.543 37.5452H115.837C115.333 37.5452 115.244 37.3055 115.244 36.856V26.3984L118.95 26.4283Z"></path>
<path fill="black" d="M152.506 30.8312C153.663 30.8312 154.167 31.1608 154.433 32.3594C155.234 35.9252 157.102 38.3224 160.423 38.3224C163.387 38.3224 165.344 36.5245 165.344 33.7378C165.344 31.4305 164.129 29.9923 159.444 28.1045C154.433 26.0669 151.795 23.0405 151.795 18.3959C151.765 12.9724 155.768 9.5564 161.875 9.5564C163.832 9.5564 165.522 10.0059 166.886 11.1146C166.886 11.1146 166.916 11.0846 166.975 11.0247C167.331 10.785 167.716 10.5452 168.25 10.3655C169.139 10.0958 169.673 10.2156 169.673 10.2156C169.673 10.2156 169.555 11.2644 169.851 14.3807C170.088 17.0176 170.444 18.5458 170.444 18.5458H167.924C166.293 14.0511 164.455 12.1334 161.371 12.1334C158.703 12.1334 156.894 13.6616 156.894 16.2684C156.894 18.8155 158.436 20.3137 162.498 21.8419C167.983 23.8795 170.74 26.786 170.74 31.4305C170.74 36.8841 166.649 40.8994 160.66 40.9293C157.843 40.9593 156.153 40.36 154.374 39.1314C154.374 39.1314 154.344 39.1614 154.285 39.2214C154.048 39.4611 153.544 39.7607 153.01 39.9405C151.824 40.3001 150.994 40.2701 150.994 40.2701L151.943 30.8612C151.854 30.8312 152.15 30.8312 152.506 30.8312Z"></path>
</svg>
