<svg xmlns="http://www.w3.org/2000/svg" fill="none" viewBox="0 0 140 46" height="46" width="140">
<path fill="black" d="M38.8492 24.1371C40.0655 23.7317 41.0114 23.1911 41.9574 22.3803C42.4979 21.9749 42.7682 21.2992 42.7682 20.6235C42.7682 19.9478 41.9574 19.5424 41.4168 19.5424C40.4709 19.4073 40.2006 19.9479 39.9303 20.3533C39.9303 19.6776 39.3898 19.137 38.8492 18.8668C38.3087 18.5965 37.3627 18.8668 36.9573 19.5424C36.687 19.9479 36.687 20.4884 36.8222 21.0289C37.2276 22.11 38.1735 23.056 38.8492 24.1371Z"></path>
<path fill="black" d="M137.634 35.4887C135.742 38.8671 134.931 39.9482 134.391 40.7591C133.985 41.2996 133.174 41.9753 132.634 42.2456C129.255 43.5969 129.12 40.0834 129.12 39.1374C129.12 35.8941 129.526 34.813 129.931 31.5697C130.337 28.4616 130.877 25.3534 131.553 22.2453C132.499 17.6506 134.256 9.27212 134.796 6.56938C134.931 5.75855 134.796 5.48828 133.985 5.48828C128.85 5.62342 128.715 4.27205 125.742 24.2723C125.742 24.2723 118.444 23.4615 115.742 27.5156C114.526 29.4075 113.58 31.5697 113.174 33.7319C111.688 35.4887 110.066 36.9752 108.444 38.4617C107.498 39.2726 106.688 39.9482 105.606 40.4888C104.796 40.8942 102.904 41.705 102.093 40.7591C101.147 39.8131 101.823 37.5158 101.958 36.4347C102.093 36.0293 102.363 34.6779 102.498 34.5428C102.498 34.5428 103.444 34.4076 103.715 34.4076C106.552 33.8671 109.931 32.786 110.607 29.1373C110.877 27.2454 109.255 25.3534 107.498 24.8129C105.877 24.4075 104.12 24.6777 102.769 25.3534C100.201 26.7048 98.3091 29.4075 97.3631 32.3806C95.8766 34.5428 94.3901 36.7049 92.4982 38.5969C92.2279 38.8671 91.2819 40.0834 90.8765 39.9482C90.4711 39.8131 90.7414 39.1374 90.8765 38.8671C91.1468 37.5158 91.5522 36.0293 91.9576 34.6779C92.7684 31.7049 93.7144 27.5156 90.7414 25.4886C87.7684 23.5967 84.5251 26.8399 82.6332 28.867C83.0386 27.3805 83.0386 25.2183 84.1197 24.0021C85.6062 22.3804 87.0927 20.8939 88.4441 19.2723C91.2819 16.029 93.4441 12.2451 94.6604 8.05588C95.336 5.62342 95.2009 2.24499 92.4982 1.02876C88.9846 -0.457753 85.8764 3.19095 84.2548 5.62342C80.0656 11.7046 78.579 19.6777 77.6331 26.8399C77.3628 28.867 77.0925 30.7589 76.8223 32.786C76.2817 33.4617 75.7412 34.1373 75.4709 34.4076C73.7141 36.1644 71.9573 38.1915 69.9303 39.678C68.9843 40.3536 68.0384 40.8942 66.8221 40.8942C65.2005 41.0293 65.0653 39.9482 65.2005 38.5969C65.3356 35.3536 66.5518 32.1103 68.5789 29.5427C69.2546 28.5967 70.3357 27.3805 71.4168 27.1102C72.3627 26.9751 71.4168 28.4616 72.7682 28.4616C74.3898 28.4616 73.579 25.6237 71.9573 25.0832C68.1735 23.5967 64.5248 26.0291 62.4977 28.867C61.6869 30.0832 61.0112 31.4346 60.6058 33.0562C59.9301 33.7319 59.3896 34.5428 58.7139 35.2184C57.2274 36.8401 55.7409 38.5969 54.2544 40.2185C53.0381 41.705 50.0651 43.4618 50.7408 40.0834C51.4165 36.9752 52.0922 33.8671 52.7679 30.7589C53.7138 26.8399 54.6598 22.7858 55.4706 18.8669C57.9031 18.5966 60.4707 18.1912 62.9031 17.6506C63.5788 17.5155 63.9842 16.8398 63.8491 16.2993C63.714 15.6236 63.0383 15.2182 62.4977 15.3533C60.3355 15.7587 58.1733 16.1641 56.0111 16.4344L56.2814 13.7316C56.5517 12.6505 56.822 11.4343 57.0922 10.3532C57.2274 9.81267 57.4977 9.00185 57.4977 8.32616C57.4977 6.97479 55.6057 7.65048 54.6598 7.78561C53.7138 7.92075 51.6868 8.32616 51.0111 9.00184C50.2003 11.7046 49.5246 14.5425 48.8489 17.3803C47.2272 17.5155 45.6056 17.5155 43.9839 17.5155C43.3083 17.5155 42.7677 17.9209 42.7677 18.5966C42.7677 19.2723 43.3083 19.6777 43.9839 19.6777C44.2542 19.6777 44.5245 19.6777 44.7948 19.6777C46.011 19.6777 47.0921 19.6777 48.3083 19.5425C47.6326 22.3804 47.0921 25.2183 46.4164 28.0562C46.011 29.5427 45.7407 31.1643 45.3353 32.6508C44.6596 33.3265 44.1191 34.0022 43.4434 34.5428C41.9569 36.0293 40.4704 37.3806 38.9839 38.732C38.4433 39.2726 37.6325 40.0834 36.9568 40.2185C35.6054 40.6239 36.0109 38.732 36.2811 37.9212C36.8217 35.2184 38.0379 32.786 38.7136 30.0832C38.8487 29.4075 39.2541 28.1913 39.119 27.3805C39.119 26.7048 38.5785 26.4345 37.9028 26.4345C36.6865 26.4345 34.1189 26.8399 30.7405 27.5156C30.0648 27.6508 29.254 27.7859 28.308 27.921C30.3351 19.002 32.7676 8.73157 33.4432 5.62341C33.5784 5.08286 33.3081 4.54231 32.7676 4.27204C31.4162 3.73149 28.7135 2.92067 27.6324 2.65039C27.3621 2.65039 27.2269 2.78553 27.0918 3.05581C26.0107 7.51533 23.0377 21.4345 21.5512 29.0021C19.1187 29.4075 16.5511 29.813 14.1186 29.9481C15.47 24.1372 18.443 11.2992 19.2539 7.51533C19.389 6.97478 19.1187 6.43424 18.5782 6.16396C17.2268 5.62341 14.6592 4.94773 13.7132 4.67745C13.443 4.67745 13.3078 4.81259 13.1727 5.08287C12.497 7.78561 11.9565 10.4883 11.2808 13.1911C10.3348 19.4074 8.98344 25.0832 7.7672 30.6238C5.60501 30.4886 3.84823 29.9481 2.90227 29.0021C2.49685 28.5967 1.68603 28.5967 1.28062 29.0021C0.87521 29.4075 0.87521 30.2184 1.28062 30.6238C2.63199 31.84 4.65905 32.5157 7.22665 32.786L6.95638 34.0022C6.41583 36.2995 6.01042 38.5969 6.14556 40.8942C6.14556 41.8402 6.14556 44.0024 7.22666 44.2726C8.17261 44.5429 9.11857 43.3267 9.52398 42.651C11.0105 40.6239 12.3619 37.786 12.9024 35.2184L13.443 33.4617L13.5781 33.3265C13.5781 33.1914 13.5781 33.1914 13.7132 33.0562C16.0106 32.9211 18.5782 32.5157 21.2809 32.1103C21.1458 32.786 21.0106 33.3265 21.0106 33.7319L20.7404 35.3536C20.335 37.9212 19.9295 40.6239 20.7404 43.1915C21.1458 44.2726 21.5512 46.0294 22.9026 45.624C24.1188 45.3537 24.6593 43.4618 25.0648 42.3807C25.4702 40.8942 26.5513 36.2995 27.7675 31.0292C28.8486 30.7589 30.0648 30.6238 31.1459 30.3535C31.6865 30.2184 32.227 30.0832 32.7676 29.9481C31.5513 32.6508 30.6054 35.759 30.4702 38.732C30.3351 42.2456 33.9838 45.0835 37.2271 43.3267C38.9839 42.3807 40.4704 40.8942 41.8218 39.4077C42.7677 38.4617 43.7137 37.5158 44.6596 36.5698C43.9839 40.3536 46.2813 45.7591 50.8759 45.2186C52.6327 44.9483 53.849 43.8672 54.93 42.651C56.1463 41.2996 57.4977 39.8131 58.7139 38.4617C59.1193 38.0563 59.3896 37.6509 59.795 37.2455C59.795 38.732 60.3355 40.2185 61.2815 41.2996C63.4437 44.0024 66.4167 44.678 70.2005 42.5158C72.4979 41.2996 74.1195 39.0023 76.0114 37.2455L76.2817 36.9752C76.2817 37.9212 76.1466 38.8671 76.1466 39.678C76.1466 41.0293 76.0114 42.651 76.6871 44.0024C77.2277 44.9483 78.4439 45.624 79.3899 44.678C80.0656 44.0024 80.0656 42.7861 80.2007 41.8402C80.471 39.9482 80.7412 38.1915 81.1467 36.4347C81.4169 35.3536 81.5521 34.4076 82.0926 33.4617C82.498 32.786 83.0386 32.1103 83.5791 31.4346C84.6602 30.0832 86.0116 28.5967 87.6332 27.7859C88.0386 27.5156 87.6332 28.867 87.6332 29.0021C87.4981 29.5427 87.363 30.0832 87.2278 30.7589C86.9575 31.9751 86.6873 33.0562 86.417 34.2725C86.0116 36.4347 85.6062 38.732 85.8764 40.8942C86.0116 42.2456 86.5521 43.8672 88.0386 44.0023C88.9846 44.1375 90.0657 43.7321 90.8765 43.1915C93.1739 41.8402 95.2009 39.9482 96.9577 37.6509C97.228 40.2185 98.7145 42.5158 101.282 43.4618C104.525 44.5429 107.904 42.3807 110.201 40.2185C111.147 39.2726 112.093 38.1915 113.039 37.2455C113.174 39.678 114.255 42.9213 117.228 43.5969C120.742 44.4078 123.58 41.8402 124.391 38.732C123.174 43.4618 128.309 47.1105 133.31 45.0834C135.472 44.1375 136.418 42.5158 137.634 40.2185C139.12 37.3806 138.174 39.1374 139.526 36.2995C139.796 35.2184 138.175 34.5428 137.634 35.4887ZM88.5792 8.32616C89.2549 6.97479 90.2008 4.81259 91.5522 4.00177C93.7144 2.92067 92.2279 7.78561 91.9576 8.59643C91.0117 11.5694 89.2549 14.2722 87.363 16.7047C86.6873 17.6506 85.8765 18.5966 85.2008 19.4074C85.0656 19.6777 84.2548 20.2182 84.2548 20.4885C84.7954 16.4344 86.6873 12.11 88.5792 8.32616ZM108.579 27.6508C109.525 28.5967 108.85 30.2184 107.904 30.8941C106.688 31.5697 104.796 32.2454 103.444 32.2454C103.985 31.1643 104.661 29.813 105.336 29.0021C105.742 28.3264 107.634 26.7048 108.579 27.6508ZM124.391 34.2725C124.12 36.8401 121.823 40.7591 119.661 41.2996C117.093 41.1645 118.039 33.7319 118.309 32.9211C119.255 29.5427 121.823 26.2994 125.607 25.894C125.066 28.867 124.796 31.0292 124.391 34.2725Z"></path>
</svg>
