<svg xmlns="http://www.w3.org/2000/svg" fill="none" viewBox="0 0 248 36" height="36" width="248">
<path fill="black" d="M0.981308 35.3213C0.981308 35.3213 1.11301 34.9261 1.11301 34.6628C1.11301 34.3994 1.24471 33.8726 1.24471 33.8726L1.37643 17.6731C1.37643 17.6731 1.24471 16.3561 1.24471 15.5659C1.24471 14.5122 0.849609 13.722 0.849609 13.722L10.4639 9.24414V13.5904C10.5956 13.4586 14.0199 9.11246 19.2879 9.77094C24.5561 10.2977 24.6878 13.722 24.8195 13.722C25.0829 13.722 28.3754 9.24414 33.5119 9.77094C38.2531 10.2977 38.9117 13.1953 38.9117 14.3806C38.9117 14.9073 38.9117 34.2676 38.9117 34.2676L39.0434 34.7944C39.1751 35.3213 39.1751 35.3213 39.1751 35.3213H29.4291C29.4291 35.3213 29.5608 35.0578 29.6925 34.9261C29.6925 34.6628 29.8242 34.136 29.8242 34.136C29.8242 34.136 29.8242 18.7267 29.6925 18.1999C29.5608 17.6731 29.2974 16.6195 27.717 16.3561C25.6097 15.961 24.8195 18.4634 24.8195 18.4634C24.8195 19.7804 24.6878 34.2676 24.6878 34.2676C24.6878 34.2676 24.6878 34.6628 24.8195 34.9261C24.9512 35.3213 24.9512 35.3213 24.9512 35.3213H15.0735C15.0735 35.3213 15.2052 35.0578 15.2052 34.7944C15.2052 34.531 15.2052 34.2676 15.2052 34.2676C15.2052 34.2676 15.337 18.5951 15.2052 18.1999C15.0735 17.8049 14.8101 16.3561 13.098 16.3561C11.5176 16.3561 10.5957 18.1999 10.3322 19.1219C10.2005 19.6487 10.2005 34.2676 10.2005 34.2676L10.3322 34.7944L10.5956 35.3213C10.5956 35.3213 0.981308 35.4529 0.981308 35.3213Z" clip-rule="evenodd" fill-rule="evenodd"></path>
<path fill="black" d="M61.037 35.3213C59.9833 35.0578 59.1931 34.7944 58.9298 34.531C58.2712 34.136 56.9542 32.9506 56.9542 32.9506C56.9542 32.9506 56.8225 32.9506 56.4274 33.214C56.0323 33.4774 53.6616 34.7944 52.608 35.1895C50.3691 35.8481 47.9984 35.8481 46.2863 35.1895C41.4133 33.3457 41.4133 29.263 41.2816 28.2093C41.2816 27.1557 41.0182 22.9412 45.2327 20.7023C48.3935 18.9902 52.3446 18.7267 52.3446 18.7267C52.3446 18.7267 51.6861 15.1707 49.3154 14.1172C46.6814 12.9319 44.0473 14.3806 44.0473 14.3806C44.0473 14.3806 44.0473 10.5612 44.0473 10.4295C44.0473 10.4295 47.4716 9.24414 50.5007 9.24414C53.5299 9.24414 55.242 9.77094 56.4274 10.1661C57.481 10.5612 60.5102 12.2733 61.5638 17.0146C62.6174 21.756 63.0125 24.6534 63.2759 26.1021C63.5393 27.5509 63.671 29.3947 64.5929 30.58C65.3831 31.6336 66.4368 31.3702 66.5685 31.3702C66.5685 31.3702 66.5685 35.3213 66.5685 35.453C66.4368 35.3213 62.0906 35.4529 61.037 35.3213ZM50.3691 29.7898C52.3446 32.2921 55.1104 30.3166 55.242 29.9214C55.242 29.9214 53.5299 22.6779 53.2665 22.5462C53.3982 22.5462 47.8667 24.7851 50.3691 29.7898Z" clip-rule="evenodd" fill-rule="evenodd"></path>
<path fill="black" d="M68.0172 35.3214H78.29C78.29 35.3214 78.1583 35.1896 78.0266 35.0578C77.8948 34.9262 77.8948 34.3994 77.8948 34.3994C77.8948 34.3994 77.8948 21.6243 77.8948 21.0974C77.8948 20.5707 78.1583 18.3317 78.6851 17.5415C79.2119 16.7513 79.8704 16.2245 81.1874 16.0927C82.6362 15.8293 84.7434 16.3561 84.7434 16.3561C84.7434 16.3561 86.719 10.0344 86.719 9.90274C86.719 9.90274 86.0605 9.11249 84.0849 8.98081C82.2411 8.84909 80.6606 10.0344 79.8704 10.8247C79.0802 11.6149 78.29 12.405 77.7632 12.8002V9.11249L67.6221 13.4586C67.6221 13.4586 67.7538 13.8537 68.0172 14.2489C68.1489 14.6439 68.2806 16.0927 68.2806 16.0927L68.1489 34.531L68.1489 34.9262L68.0172 35.3214Z" clip-rule="evenodd" fill-rule="evenodd"></path>
<path fill="black" d="M86.8506 35.3214C86.9823 35.3214 97.1234 35.3214 97.1234 35.3214C97.1234 35.3214 96.9917 35.0579 96.86 34.7945C96.86 34.6628 96.7282 34.3995 96.7282 34.0043C96.7282 33.6092 96.7282 9.24426 96.7282 8.84912L86.9822 13.0636V34.0043C86.9822 34.0043 86.9822 34.2677 86.9822 34.6628C86.9822 35.1897 86.8506 35.3214 86.8506 35.3214Z" clip-rule="evenodd" fill-rule="evenodd"></path>
<path fill="black" d="M91.9877 8.71747C95.0168 8.71747 97.3875 6.74194 97.3875 4.63467C97.3875 2.52737 95.0169 0.683594 91.9877 0.683594C88.9586 0.683594 86.5879 2.52737 86.5879 4.63467C86.5879 6.74194 88.9585 8.71747 91.9877 8.71747Z" clip-rule="evenodd" fill-rule="evenodd"></path>
<path fill="black" d="M114.508 30.8434C118.986 31.2385 120.83 29.5264 120.83 29.5264C120.83 29.9215 120.83 33.4775 120.83 33.8725C120.567 34.136 118.064 35.1896 113.191 35.3213C108.318 35.453 106.211 34.0042 105.684 33.8725C105.158 33.6091 100.284 30.7117 99.2309 24.9168C98.309 19.1219 100.943 14.9074 100.943 14.9074C100.943 14.9074 103.445 10.0344 110.03 9.11249C116.616 8.0589 120.04 11.3515 121.357 13.327C123.464 16.4878 124.254 21.3608 124.254 21.3608C124.254 21.3608 109.109 25.5753 109.109 25.707C109.109 25.8388 110.162 30.58 114.508 30.8434ZM108.187 21.8876L114.64 20.0438C114.64 20.0438 115.035 13.327 111.347 13.5904C107.66 13.8538 108.187 21.8876 108.187 21.8876Z" clip-rule="evenodd" fill-rule="evenodd"></path>
<path fill="black" d="M151.517 34.2678V29.9216C151.385 29.9216 149.805 30.9753 147.829 30.8435C144.932 30.7119 143.088 28.3413 142.824 27.8145C142.429 27.2876 141.244 24.6536 141.112 21.8878C140.981 18.8587 142.034 16.0929 142.956 15.171C143.878 14.249 145.063 13.4588 146.775 13.4588C148.356 13.4588 150.727 14.249 150.858 14.249V9.90293C150.858 9.90293 147.039 8.84934 144.8 8.7176C139.268 8.4542 135.976 11.7468 135.317 12.4052C134.659 13.1954 131.761 15.9612 131.893 23.0732C132.42 30.5802 136.898 33.2143 136.898 33.2143C136.898 33.2143 139.4 35.3215 144.932 35.1899C149.409 35.4531 151.517 34.2678 151.517 34.2678Z" clip-rule="evenodd" fill-rule="evenodd"></path>
<path fill="black" d="M153.624 35.3215H163.766C163.766 35.3215 163.634 35.0581 163.634 34.9264C163.634 34.9264 163.502 34.5313 163.502 34.1362C163.502 33.8727 163.502 1.07879 163.502 1.07879C163.502 0.94711 153.098 5.82013 153.098 5.82013C153.493 6.21515 153.756 6.74212 153.888 7.53225V34.2678C153.888 34.2678 153.888 34.5313 153.756 34.9263C153.624 35.1898 153.624 35.3215 153.624 35.3215Z" clip-rule="evenodd" fill-rule="evenodd"></path>
<path fill="black" d="M192.608 35.3214H203.013C203.013 35.3214 202.881 35.058 202.749 34.9262C202.749 34.9262 202.618 34.3994 202.618 34.2678C202.618 34.0044 202.618 9.50769 202.618 9.11255L192.872 13.7221C192.872 13.8539 192.872 34.3994 192.872 34.3994V34.9262C192.74 34.9262 192.608 35.3214 192.608 35.3214Z" clip-rule="evenodd" fill-rule="evenodd"></path>
<path fill="black" d="M205.647 35.3214H215.92C215.92 35.3214 215.788 35.1896 215.656 34.7945C215.656 34.6628 215.525 34.136 215.525 34.136C215.525 34.136 215.525 21.4926 215.525 20.9658C215.525 20.439 215.656 18.2 216.183 17.4098C216.71 16.6195 217.369 16.0927 218.686 15.961C220.134 15.6976 222.242 16.0927 222.242 16.0927L224.217 9.77106C224.217 9.77106 223.822 8.84912 221.715 8.84912C219.739 8.84912 218.29 9.77106 217.5 10.693C216.71 11.4832 215.525 12.8002 215.525 12.8002V8.98083L205.252 13.4587C205.252 13.4587 205.384 13.7221 205.647 14.3806C205.779 15.0392 205.779 16.0927 205.779 16.0927V33.6092C205.779 33.6092 205.779 34.3994 205.647 34.9262C205.779 35.058 205.647 35.3214 205.647 35.3214Z" clip-rule="evenodd" fill-rule="evenodd"></path>
<path fill="black" d="M237.651 30.8434C242.129 31.2385 243.973 29.3947 243.973 29.3947C243.973 29.3947 243.973 33.4775 243.973 33.8726C243.709 34.136 241.207 35.1896 236.334 35.3213C231.461 35.453 229.354 34.0043 228.827 33.8726C228.3 33.6092 223.427 30.7118 222.373 24.9168C221.452 19.1219 224.086 14.9074 224.086 14.9074C224.086 14.9074 226.588 10.0344 233.173 9.11251C239.495 8.19057 242.919 11.4831 244.5 13.327C246.08 15.3025 247.397 21.2292 247.134 21.3608C247.002 21.4926 232.251 25.4437 232.251 25.5754C232.119 25.8388 233.173 30.4483 237.651 30.8434ZM231.461 21.756C231.856 21.756 237.651 20.1755 237.914 19.9121C238.178 19.6487 238.31 13.1953 234.622 13.4587C230.934 13.8538 231.066 21.756 231.461 21.756Z" clip-rule="evenodd" fill-rule="evenodd"></path>
<path fill="black" d="M197.218 8.9809C200.247 8.9809 202.618 7.00537 202.618 4.89804C202.618 2.79086 200.247 0.947021 197.218 0.947021C194.189 0.947021 191.818 2.79086 191.818 4.89804C191.818 7.13702 194.057 8.9809 197.218 8.9809Z" clip-rule="evenodd" fill-rule="evenodd"></path>
<path fill="black" d="M185.364 35.1897C184.31 34.9263 183.52 34.6629 183.257 34.3995C182.598 34.0043 181.281 32.819 181.281 32.819C181.281 32.819 181.15 32.819 180.754 33.0824C180.359 33.3458 177.989 34.6629 176.935 35.0579C174.696 35.7165 172.325 35.7165 170.613 35.0579C165.74 33.2142 165.74 29.1313 165.609 28.0778C165.609 27.0241 165.345 22.8096 169.56 20.5707C172.721 18.8586 176.672 18.5951 176.672 18.5951C176.672 18.5951 176.013 15.0391 173.643 13.9855C171.009 12.8002 168.374 14.2489 168.374 14.2489C168.374 14.2489 168.374 10.4296 168.374 10.2979C168.374 10.2979 171.799 9.11255 174.828 9.11255C177.857 9.11255 179.569 9.63934 180.754 10.0345C181.808 10.4296 184.837 12.1417 185.891 16.8831C186.945 21.6244 187.34 24.5218 187.603 25.9705C187.866 27.4193 187.998 29.2631 188.92 30.4484C189.71 31.502 190.764 31.2386 190.896 31.2386C190.896 31.2386 190.896 35.1898 190.896 35.3214C190.632 35.3214 186.418 35.4531 185.364 35.1897ZM174.696 29.7899C176.672 32.2922 179.437 30.3167 179.569 29.9215C179.569 29.9215 177.857 22.678 177.594 22.5462C177.594 22.5462 172.194 24.7852 174.696 29.7899Z" clip-rule="evenodd" fill-rule="evenodd"></path>
</svg>
