<svg xmlns="http://www.w3.org/2000/svg" fill="none" viewBox="0 0 154 46" height="46" width="154">
<rect fill="black" height="45" width="153.134" y="0.683594" x="0.365234"></rect>
<path fill="white" d="M4.63965 41.3484H13.7984V20.8327L20.9422 41.3484H29.0019L36.2068 20.8327V41.3484H45.3045V4.83545H31.3832L24.9721 24.3131L18.4999 4.83545H4.63965V41.3484Z"></path>
<rect fill="white" height="7.26594" width="9.09769" y="4.83545" x="48.6016"></rect>
<path fill="white" d="M150.447 14.4218C149.531 14.2386 148.432 14.1165 147.333 14.1165C143.364 14.1165 141.044 16.2535 139.456 19.6117H139.334V14.727H130.969V41.3485H140.189V30.1137C140.189 24.9238 142.631 21.8098 146.906 21.8098C148.005 21.8098 148.432 21.8098 149.409 22.1151L150.447 14.4218ZM114.361 35.5479C110.148 35.5479 108.378 32.0066 108.378 28.0988C108.378 24.13 110.087 20.5886 114.361 20.5886C118.574 20.5886 120.345 24.13 120.345 28.0988C120.345 32.0066 118.574 35.5479 114.361 35.5479ZM114.361 41.9591C123.154 41.9591 129.87 36.8302 129.87 28.0378C129.87 19.1843 123.154 14.1165 114.361 14.1165C105.569 14.1165 98.8526 19.2454 98.8526 28.0378C98.8526 36.8302 105.569 41.9591 114.361 41.9591ZM100.929 14.4218C100.013 14.2386 98.9137 14.1165 97.8146 14.1165C93.8458 14.1165 91.5256 16.2535 89.9381 19.6117H89.816V14.727H81.451V41.3485H90.6708V30.1137C90.6708 24.9238 93.1131 21.7488 97.143 21.7488C98.242 21.7488 98.7915 21.8098 99.8906 22.1151L100.929 14.4218ZM80.7183 14.4218C79.8024 14.2386 78.4591 14.1165 77.4211 14.1165C73.4523 14.1165 71.1321 16.2535 69.5446 19.6117H69.4225V14.727H61.0575V41.3485H70.2162V30.1137C70.2162 24.9238 72.5975 21.8098 76.9326 21.8098C78.0317 21.8098 78.6423 21.8098 79.6803 22.1151L80.7183 14.4218ZM48.6016 41.3485H57.8214V14.727H48.6016V41.3485Z"></path>
</svg>
