<svg xmlns="http://www.w3.org/2000/svg" fill="none" viewBox="0 0 127 46" height="46" width="127">
<path fill="black" d="M126.672 45.6836V0.683594H0.5V45.6836H126.672Z" clip-rule="evenodd" fill-rule="evenodd"></path>
<path fill="white" d="M33.2274 4.4873L34.0169 4.55908C34.4475 4.41553 34.8782 4.70261 35.237 4.63086C35.4523 4.70261 35.6676 4.55908 35.8112 4.77438C36.0982 4.77438 36.3853 4.77438 36.6724 4.84619C38.0361 4.91794 39.2561 5.34857 40.6198 5.63565C41.3375 5.92273 42.1987 6.13803 42.9164 6.49692C43.7777 6.85574 44.7825 7.4299 45.5719 8.00406C47.2944 9.22421 48.6581 11.0184 49.1605 13.2433C49.1605 13.3151 49.0169 13.3868 48.9452 13.3868C46.4332 13.961 43.8495 14.3917 41.4093 14.9658C40.6916 15.1811 39.9021 15.2529 39.1126 15.4682C39.0408 15.54 38.7538 15.54 38.6102 15.54C37.8207 15.7553 37.103 15.8988 36.3136 16.0424C36.2418 16.0424 36.17 15.8988 36.0983 15.8271C35.883 15.3247 35.6676 14.8223 35.3088 14.3199C34.95 14.0328 34.6629 13.674 34.2322 13.4586C33.7298 13.1716 33.2275 12.9563 32.6533 12.8127C32.0074 12.6692 31.505 12.5974 30.859 12.4539H30.3566H28.3471C27.2705 12.5974 26.0504 12.741 24.9739 13.2433C24.2562 13.6022 23.682 14.3199 23.682 15.1812C23.9691 16.473 25.4763 16.5448 26.5528 16.9037C28.1318 17.2625 29.7825 17.4778 31.2897 17.7649C31.7921 17.8367 32.438 17.9802 33.0121 17.9802C33.0839 18.1237 33.2992 18.052 33.4428 18.1237C34.304 18.2673 35.0935 18.4826 35.883 18.5544C36.0983 18.6262 36.3136 18.6262 36.4571 18.6979C36.9595 18.6979 37.3184 18.9132 37.749 19.0568C38.682 19.2003 39.5432 19.5592 40.4045 19.8463C42.5576 20.564 44.7107 21.9276 45.7873 24.0089C46.2179 24.8702 46.5049 25.8032 46.5049 26.808C46.5768 27.4539 46.5049 28.0281 46.4332 28.674C46.2179 29.3917 46.1461 30.2529 45.7155 30.9706C44.3519 34.0568 41.6246 36.3534 38.682 37.717C37.5337 38.4348 36.17 38.7936 34.8782 39.296C34.1605 39.5831 33.2993 39.7984 32.5098 39.942C32.2227 40.1572 31.7921 40.0855 31.4332 40.229C29.4954 40.6597 27.4859 40.9467 25.4763 41.162C25.1174 41.162 24.7586 41.3056 24.3997 41.2338C24.0409 41.3056 23.682 41.2338 23.3232 41.3056C22.6055 41.2338 21.7442 41.3056 21.0983 41.3056C19.95 41.2338 18.8016 41.2338 17.5815 41.0903C16.4332 40.9467 15.2849 40.7314 14.1366 40.5879C13.7059 40.4443 13.2035 40.4443 12.7729 40.3008C10.6198 39.7267 8.53848 38.9372 6.67245 37.717C6.3136 37.43 5.88297 37.1429 5.5959 36.784C4.66289 35.9946 3.80164 34.918 3.37102 33.8415C2.86862 32.8367 2.58153 31.6884 2.50977 30.4683C2.58154 30.3247 2.86862 30.4683 2.9404 30.3247C3.80164 30.2529 4.73466 30.1812 5.5959 30.0376C5.95474 29.8941 6.45712 29.9659 6.88776 29.8941C7.31839 29.8941 7.82077 29.7505 8.32317 29.7505L8.7538 29.6787C9.83034 29.5352 10.7634 29.4634 11.8399 29.3199C12.1988 29.1764 12.7012 29.2481 13.06 29.1046C13.4906 29.0328 13.993 28.961 14.4954 28.961C14.926 28.8893 15.3567 28.8175 15.7873 28.7458C16.1461 28.7458 16.4332 28.674 16.7921 28.674C16.8638 29.5352 17.2944 30.3965 17.8686 30.9706C18.2993 31.4013 18.8734 31.9036 19.4476 32.119C19.7346 32.3343 20.1653 32.406 20.5241 32.5496C20.9548 32.7649 21.5289 32.6931 22.0313 32.9084C22.2466 32.8366 22.5337 32.9802 22.8208 32.9802C23.1079 33.1237 23.4667 32.9084 23.7538 33.1237C24.4715 33.1237 25.4045 33.1237 26.0504 33.1237C26.9117 33.052 27.8447 32.9084 28.7059 32.6931C29.5672 32.4061 30.5002 31.9754 30.8591 31.0424C31.0026 30.6118 30.9308 30.1094 30.7155 29.6788C30.2131 28.9611 29.3519 28.674 28.5624 28.3869C26.8399 28.0281 25.0457 27.741 23.3232 27.4539C22.6055 27.3822 21.8878 27.2386 21.2418 27.0951C20.5241 26.9515 19.7346 26.808 19.017 26.5927C15.8591 25.8032 12.4141 24.8702 10.1174 22.5018C9.04089 21.3534 8.39496 19.8463 8.46672 18.1237C8.53848 15.4683 9.83034 13.2434 11.4811 11.4491C12.8447 10.0137 14.4954 8.65009 16.3615 7.78888C18.371 6.71228 20.8112 5.92282 23.1796 5.42044C23.8973 5.27689 24.5433 5.13336 25.3327 5.06158C26.1222 4.91803 26.9835 4.84628 27.7729 4.77451C27.9882 4.63095 28.2036 4.77451 28.3471 4.70273C28.8495 4.70273 29.3519 4.55917 29.8543 4.63095C30.0696 4.63095 30.2849 4.48743 30.5002 4.63095C31.3614 4.41553 32.2944 4.63086 33.2274 4.4873Z" clip-rule="evenodd" fill-rule="evenodd"></path>
<path fill="white" d="M117.055 14.1764C118.777 14.3917 120.5 14.9659 121.72 16.0425C122.796 16.9037 123.299 18.3391 123.299 19.7745C123.371 19.918 123.227 19.9898 123.299 20.1333C123.227 21.8558 122.796 23.363 122.366 24.9419C121.792 27.2386 118.203 40.7314 118.203 40.7314H104.352C104.352 40.7314 104.567 40.0137 104.639 39.7984C105.356 36.9994 106.146 34.2003 106.792 31.4013C107.509 28.8176 108.155 26.2338 108.801 23.5783C108.945 22.7171 108.945 21.7123 108.227 21.2099C107.796 20.9229 107.222 20.851 106.648 20.851C106.433 20.7793 106.146 20.9229 105.859 20.851C104.423 20.9229 103.06 21.5688 102.198 22.7171C101.409 23.9372 100.619 27.3822 100.619 27.3822L97.2462 40.7315H83.251C83.4663 39.5114 90.2127 14.3918 90.2127 14.3918H103.203L102.414 17.9803H102.485C103.275 17.119 104.136 16.3295 105.213 15.8271C107.007 14.7506 109.088 14.3199 111.241 13.9611C111.887 13.8893 112.462 13.8176 113.107 13.8176C113.753 13.674 114.471 13.9611 115.189 13.8176C115.045 13.9611 116.552 14.1046 117.055 14.1764Z" clip-rule="evenodd" fill-rule="evenodd"></path>
<path fill="white" d="M87.4135 14.4634L80.4518 40.8031H67.2461C67.2461 40.8031 67.9638 38.2194 68.2508 36.6404H68.1791C66.8154 38.3629 64.9494 39.583 62.9398 40.2289C61.2173 40.8749 59.2796 41.162 57.4135 41.3773C57.0547 41.4491 54.5427 41.3773 54.5427 41.3773C52.6049 41.2338 50.7389 40.8749 49.0882 39.8701C47.9398 39.1524 47.0786 37.8605 46.935 36.4969L46.8633 35.9945L46.935 34.7744C47.3657 32.4777 48.0834 30.2529 48.5858 28.028C48.8011 27.4538 48.9446 26.8079 49.0882 26.162C50.0929 22.3582 52.1025 14.6069 52.1025 14.6069C52.1025 14.6069 65.8824 14.5352 66.0977 14.6069C65.1647 18.8414 63.8729 22.9323 62.7963 27.095C62.6527 27.6691 62.581 28.2433 62.3657 28.7457C62.1504 30.0375 61.5044 31.2576 61.5762 32.6931C61.648 33.0518 61.7915 33.4107 62.0786 33.6978C62.3657 33.9131 62.868 33.9849 63.2269 34.0567C64.0882 34.272 64.9494 33.9849 65.7389 33.8413C67.3178 33.4107 68.6097 32.1189 69.1121 30.5399C69.471 29.5351 69.6145 28.4586 69.9734 27.4538C70.6193 24.9419 71.2652 22.4299 71.9111 19.9179C72.3418 18.1237 72.8441 16.4012 73.2748 14.6787L87.4135 14.4634Z" clip-rule="evenodd" fill-rule="evenodd"></path>
<path fill="white" d="M64.8061 11.2337L66.2415 6.138H64.1602L64.5908 4.4873H71.5525L71.0501 6.138H69.1123L67.6051 11.3055L64.8061 11.2337Z" clip-rule="evenodd" fill-rule="evenodd"></path>
<path fill="white" d="M70.5479 11.3055L72.4857 4.4873H75.4283L74.7106 7.07101H77.0072L77.7967 4.4873H80.6674L78.8014 11.2337H75.9306L76.5766 8.72174H74.2082L73.4905 11.3055H70.5479Z" clip-rule="evenodd" fill-rule="evenodd"></path>
<path fill="white" d="M80.3086 11.2337L82.1746 4.4873H89.4234L88.9928 5.99448H84.6866L84.3277 7.07101H87.9162L87.5574 8.50641H83.9689L83.6818 9.72653H87.988L87.6292 11.2337H80.3086Z" clip-rule="evenodd" fill-rule="evenodd"></path>
</svg>
