<svg xmlns="http://www.w3.org/2000/svg" fill="#BF8F5F" width="100" height="100" viewBox="0 0 40 40">
  <path id="arrows-maximize-light" d="M37.143,44.857V36.878L22.018,52,37.143,67.125V59.143a1.429,1.429,0,0,1,2.857,0V70.571A1.428,1.428,0,0,1,38.571,72H27.143a1.429,1.429,0,0,1,0-2.857h7.98L20,54.018,4.878,69.143h7.979a1.429,1.429,0,0,1,0,2.857H1.429A1.43,1.43,0,0,1,0,70.571V59.143a1.429,1.429,0,0,1,2.857,0v7.98L17.982,52,2.857,36.878v7.979a1.429,1.429,0,0,1-2.857,0V33.429A1.428,1.428,0,0,1,1.429,32H12.857a1.429,1.429,0,1,1,0,2.857H4.878L20,49.982,35.125,34.857H27.143a1.429,1.429,0,1,1,0-2.857H38.571A1.43,1.43,0,0,1,40,33.429V44.857a1.429,1.429,0,0,1-2.857,0Z" transform="translate(0 -32)"/>
</svg>
