<?xml version="1.0" encoding="utf-8"?>
<!-- Generator: Adobe Illustrator 24.3.0, SVG Export Plug-In . SVG Version: 6.00 Build 0)  -->
<svg version="1.1" id="Layer_1" xmlns="http://www.w3.org/2000/svg" xmlns:xlink="http://www.w3.org/1999/xlink" x="0px" y="0px"
	 viewBox="0 0 50 15.1" style="enable-background:new 0 0 50 15.1;" xml:space="preserve">
<style type="text/css">
	.st0{fill:none;stroke:#000000;stroke-width:2;stroke-miterlimit:10;}
	.st1{fill:#151410;}
	.st2{fill-rule:evenodd;clip-rule:evenodd;fill:none;}
	.st3{fill:#939393;}
	.st4{fill:none;stroke:#939393;stroke-miterlimit:10;}
	.st5{fill:none;stroke:#000000;stroke-miterlimit:10;}
	.st6{fill:none;stroke:#666766;stroke-width:0.8;stroke-miterlimit:10;}
	.st7{fill:#666766;stroke:#666766;stroke-width:0.8;stroke-miterlimit:10;}
</style>
<g>
	<path class="st6" d="M22.7,7.8L1.1,11.9c-0.2,0-0.2,0.3,0,0.3h22.2c-0.5-0.9-0.8-1.9-0.8-3C22.5,8.8,22.6,8.3,22.7,7.8z"/>
	<path class="st6" d="M49.1,2L29.4,6.4c0.4,0.8,0.8,2,0.8,3c0,1.1-0.3,2.1-0.8,3l19.7-0.1V2z"/>
	<path class="st6" d="M26.3,5.4c1.5,0,2.7,0.3,3.3,1.5"/>
	<path class="st6" d="M22.9,11.4c0.7,1.2,2.1,1.7,3.5,1.7"/>
	<path class="st6" d="M26.4,5.4c-1.3,0-2.6,0.6-3.4,1.9"/>
	<path class="st6" d="M23.6,6.5c-0.9,1-1.4,2.4-1,3.8"/>
	<path class="st6" d="M29.8,11.5c-0.7,1.2-2,1.6-3.5,1.6"/>
</g>
</svg>
