<svg xmlns="http://www.w3.org/2000/svg" xmlns:xlink="http://www.w3.org/1999/xlink" aria-hidden="true" focusable="false" width="1em" height="1em" style="font-size: 24px; line-height: 26px; transform: rotate(360deg);" preserveAspectRatio="xMidYMid meet" viewBox="0 0 256 256" class="iconify subtitle" data-icon="ph:shopping-cart-light" data-inline="false"><path fill="currentColor" d="M228.61 60.16A6 6 0 0 0 224 58H61l-6.37-35.07a6 6 0 0 0-5.9-4.93H24a6 6 0 0 0 0 12h19.72l25.81 141.94a21.93 21.93 0 0 0 6.24 11.77a26 26 0 1 0 38.12 6.29h52.22A26 26 0 1 0 188 178H91.17a10 10 0 0 1-9.84-8.21L77.73 150H196.1a22 22 0 0 0 21.65-18.06l12.15-66.87a6 6 0 0 0-1.29-4.91M106 204a14 14 0 1 1-14-14a14 14 0 0 1 14 14m96 0a14 14 0 1 1-14-14a14 14 0 0 1 14 14m3.94-74.21a10 10 0 0 1-9.84 8.21H75.55L63.19 70h153.62Z"></path></svg>