<svg xmlns="http://www.w3.org/2000/svg" fill="#BF8F5F" width="39.936" height="40" viewBox="0 0 39.936 40">
  <path id="file-certificate-light" d="M18.995,26.5a3.33,3.33,0,0,0,.828-3.166c-.211-1.053-.281-.616.07-1.67a3.3,3.3,0,0,0-.837-3.17c-.772-.775-.764-.65-.975-1.7a3.128,3.128,0,0,0-2.289-2.328,2.28,2.28,0,0,1-1.672-.992,3.242,3.242,0,0,0-3.152-.862,2.271,2.271,0,0,1-1.924,0,3.262,3.262,0,0,0-3.155.862,2.3,2.3,0,0,1-1.677.992,3.246,3.246,0,0,0-2.288,2.333,2.374,2.374,0,0,1-.971,1.7,3.3,3.3,0,0,0-.837,3.17c.283,1.056.278.619,0,1.673A3.329,3.329,0,0,0,.944,26.5a2.339,2.339,0,0,1,.974,1.721,3.288,3.288,0,0,0,2.3,2.318A6.756,6.756,0,0,1,5,30.784V38.75a1.25,1.25,0,0,0,.593,1.063,1.264,1.264,0,0,0,1.216.055L10,38.273l3.191,1.6a1.31,1.31,0,0,0,.559.131,1.24,1.24,0,0,0,.657-.187A1.258,1.258,0,0,0,15,38.75v-7.9a6.744,6.744,0,0,1,.784-.243,3.288,3.288,0,0,0,2.3-2.318C18.37,27.141,18.276,27.289,18.995,26.5ZM12.5,36.726l-1.941-.97a1.251,1.251,0,0,0-1.118,0l-1.941.97V32.4a3.191,3.191,0,0,0,1.538-.018,2.26,2.26,0,0,1,1.924,0A3.192,3.192,0,0,0,12.5,32.4ZM17.377,23.6c.182.689.238.808-.308,1.36a4.107,4.107,0,0,0-1.4,2.614c-.122.464-.484.538-.805.626a3.832,3.832,0,0,0-2.349,1.383c-.421.426-.525.492-1.148.32a3.773,3.773,0,0,0-2.73,0c-.623.172-.727.106-1.148-.32A3.829,3.829,0,0,0,5.144,28.2c-.322-.089-.684-.163-.805-.626a4.106,4.106,0,0,0-1.4-2.614c-.549-.548-.493-.673-.311-1.36a3.119,3.119,0,0,0,0-2.211c-.174-.648-.241-.8.278-1.32a3.869,3.869,0,0,0,1.362-2.377c.167-.629.211-.721.87-.9A3.794,3.794,0,0,0,7.49,15.406c.418-.423.525-.487,1.15-.316a3.735,3.735,0,0,0,2.725,0c.625-.171.733-.107,1.15.316a3.791,3.791,0,0,0,2.352,1.387c.659.184.706.277.87.9A3.864,3.864,0,0,0,17.1,20.07c.52.523.452.67.278,1.313A3.117,3.117,0,0,0,17.377,23.6ZM38.541,9.789l-8.32-8.32A5,5,0,0,0,26.682,0H14.932a5,5,0,0,0-5,5L10,8.75a1.25,1.25,0,0,0,2.5,0V5A2.5,2.5,0,0,1,15,2.5H25v8.75A3.751,3.751,0,0,0,28.752,15H37.5V35A2.5,2.5,0,0,1,35,37.5H18.752a1.25,1.25,0,1,0,0,2.5h16.18a5,5,0,0,0,5-5V13.32A4.645,4.645,0,0,0,38.541,9.789ZM28.752,12.5a1.254,1.254,0,0,1-1.25-1.25V2.662a2.462,2.462,0,0,1,.947.57l8.32,8.32a2.344,2.344,0,0,1,.569.947Z" transform="translate(-0.003 0)"/>
</svg>
