<svg xmlns="http://www.w3.org/2000/svg" width="22" height="22" viewBox="0 0 22 22">
  <path id="box-check-light" d="M9.983,49.055a.78.78,0,0,1-1.11,0L6.124,46.3a.785.785,0,0,1,1.11-1.11l2.2,2.2,4.945-4.945a.785.785,0,0,1,1.11,1.11ZM21.73,38.463A3.169,3.169,0,0,1,22,39.739V50.857A3.146,3.146,0,0,1,18.857,54H3.143A3.144,3.144,0,0,1,0,50.857V39.739a3.14,3.14,0,0,1,.271-1.277l2.043-4.6A3.142,3.142,0,0,1,5.186,32H16.814a3.145,3.145,0,0,1,2.873,1.867Zm-9.944-.177h8.147L18.253,34.5a1.576,1.576,0,0,0-1.439-.933H11.786ZM1.571,39.857v11a1.571,1.571,0,0,0,1.571,1.571H18.857a1.57,1.57,0,0,0,1.571-1.571v-11Zm8.643-6.286H5.186a1.572,1.572,0,0,0-1.436.933l-1.68,3.781h8.145Z" transform="translate(0 -32)" fill="#0a5050"/>
</svg>
