<svg xmlns="http://www.w3.org/2000/svg" fill="#BF8F5F" width="40" height="40" viewBox="0 0 40 40">
  <path id="box-check-light" d="M18.152,63.009a1.417,1.417,0,0,1-2.018,0l-5-5a1.427,1.427,0,0,1,2.018-2.018l3.991,3.991,8.991-8.991a1.427,1.427,0,0,1,2.018,2.018ZM39.509,43.75A5.762,5.762,0,0,1,40,46.071V66.286A5.72,5.72,0,0,1,34.286,72H5.714A5.717,5.717,0,0,1,0,66.286V46.071A5.708,5.708,0,0,1,.493,43.75l3.714-8.356A5.713,5.713,0,0,1,9.429,32H30.571a5.719,5.719,0,0,1,5.223,3.394Zm-18.08-.321H36.241l-3.054-6.875a2.866,2.866,0,0,0-2.616-1.7H21.429ZM2.857,46.286v20a2.856,2.856,0,0,0,2.857,2.857H34.286a2.854,2.854,0,0,0,2.857-2.857v-20ZM18.571,34.857H9.429a2.859,2.859,0,0,0-2.612,1.7L3.762,43.429h14.81Z" transform="translate(0 -32)"/>
</svg>
