<svg xmlns="http://www.w3.org/2000/svg" fill="#BF8F5F" width="42" height="33.6" viewBox="0 0 42 33.6">
  <path id="gifts-light" d="M11.57,4.5,14.608,2.3a1.05,1.05,0,0,1,1.234,1.7L12.679,6.235H14.7a4.238,4.238,0,0,1,3.373,1.759,6.833,6.833,0,0,0-1.417,1.732A2.159,2.159,0,0,0,14.7,8.335H4.2a2.138,2.138,0,0,0-2.1,2.1V29.394a2.1,2.1,0,0,0,2.1,2.1h8.4a4.136,4.136,0,0,0,.564,2.1H4.2a4.2,4.2,0,0,1-4.2-4.2V10.435a4.24,4.24,0,0,1,4.2-4.2H6.221L3.057,3.994A1.05,1.05,0,1,1,4.293,2.3L7.416,4.568,6.354,1.376A1.051,1.051,0,1,1,8.347.712l1.135,3.4L10.69.694a1.051,1.051,0,0,1,1.982.7ZM22.063,8.335a4.366,4.366,0,0,1,3.347,1.706l2.94,3.826,2.94-3.826a4.187,4.187,0,0,1,7.56,2.494,3.834,3.834,0,0,1-.564,2.1h.564A3.189,3.189,0,0,1,42,17.785V30.444a3.151,3.151,0,0,1-3.15,3.15h-21a3.151,3.151,0,0,1-3.15-3.15V17.785a3.189,3.189,0,0,1,3.15-3.15h.564a3.834,3.834,0,0,1-.564-2.1,4.249,4.249,0,0,1,4.213-4.2Zm1.68,2.986a2.189,2.189,0,0,0-1.68-.886,2.148,2.148,0,0,0-2.113,2.1,2.061,2.061,0,0,0,2.1,2.1h4.292ZM16.8,23.094H27.3V16.735H17.85a1.093,1.093,0,0,0-1.05,1.05Zm1.05,8.4H27.3v-6.3H16.8v5.25A1.053,1.053,0,0,0,17.85,31.494Zm22.05-1.05v-5.25H29.4v6.3h9.45A1.053,1.053,0,0,0,39.9,30.444ZM38.85,16.735H29.4v6.359H39.9V17.785a1.093,1.093,0,0,0-1.05-1.05Zm-4.2-2.1a2.061,2.061,0,0,0,2.1-2.1,2.148,2.148,0,0,0-2.113-2.1,2.189,2.189,0,0,0-1.68.886l-2.6,3.314Z" transform="translate(0 0.006)"/>
</svg>
