<?xml version="1.0" encoding="utf-8"?>
<!-- Generator: Adobe Illustrator 24.3.0, SVG Export Plug-In . SVG Version: 6.00 Build 0)  -->
<svg version="1.1" id="Layer_1" xmlns="http://www.w3.org/2000/svg" xmlns:xlink="http://www.w3.org/1999/xlink" x="0px" y="0px"
	 viewBox="0 0 20 20" style="enable-background:new 0 0 20 20;" xml:space="preserve">
<style type="text/css">
	.st0{fill:#EDEDF9;}
	.st1{fill:none;stroke:#757576;stroke-width:2.5;stroke-miterlimit:10;}
	.st2{fill:none;stroke:#757576;stroke-width:2;stroke-miterlimit:10;}
	.st3{fill:none;stroke:#757576;stroke-width:1.5;stroke-miterlimit:10;}
	.st4{fill:none;stroke:#757576;stroke-width:0.4;stroke-miterlimit:10;}
	.st5{fill:none;stroke:#757576;stroke-width:0.2;stroke-miterlimit:10;}
	.st6{fill:none;stroke:#757576;stroke-miterlimit:10;}
	.st7{fill:none;stroke:#757576;stroke-width:0.5;stroke-miterlimit:10;}
	.st8{fill:none;stroke:#757576;stroke-width:1.6;stroke-miterlimit:10;}
	.st9{fill:none;stroke:#757576;stroke-width:5.000000e-02;stroke-miterlimit:10;}
	.st10{fill:none;stroke:#757576;stroke-width:3;stroke-miterlimit:10;}
	.st11{fill:none;stroke:#757576;stroke-width:0.7;stroke-miterlimit:10;}
	.st12{fill:none;stroke:#757576;stroke-width:0.7;stroke-miterlimit:10.0002;}
	.st13{fill:none;stroke:#757576;stroke-width:0.1;stroke-miterlimit:10;}
	.st14{fill:none;stroke:#757576;stroke-width:0.1;stroke-miterlimit:10.0002;}
	.st15{fill:none;stroke:#757576;stroke-width:9.999570e-02;stroke-miterlimit:9.9996;}
	.st16{fill:#757577;}
	.st17{fill:#4F4F4F;stroke:#4F4F4F;stroke-width:0.5;stroke-miterlimit:10;}
	.st18{fill:none;stroke:#4F4F4F;stroke-width:0.5;stroke-miterlimit:10;}
	.st19{fill:none;stroke:#303030;stroke-width:0.7;stroke-miterlimit:10;}
	.st20{fill:none;stroke:#303030;stroke-width:0.5;stroke-miterlimit:10;}
	.st21{fill:#606060;}
	.st22{fill:#303030;}
	.st23{fill:none;stroke:#000000;stroke-miterlimit:10;}
	.st24{fill:none;stroke:#FFFFFF;stroke-width:2;stroke-miterlimit:10;}
	.st25{fill:#BF8F5F;}
	.st26{fill:none;stroke:#303030;stroke-miterlimit:10;}
</style>
<g>
	<path class="st26" d="M17.4,15.8H2.6c-0.3,0-0.6-0.3-0.6-0.6V4.8c0-0.3,0.3-0.6,0.6-0.6h14.9c0.3,0,0.6,0.3,0.6,0.6v10.5
		C18.1,15.6,17.8,15.8,17.4,15.8z"/>
	<circle class="st26" cx="6.1" cy="7.6" r="1.1"/>
	<g>
		<path class="st22" d="M2,15.5C2.7,14.7,3.3,14,4,13.2c0.7-0.7,1.3-1.5,2-2.2l0.2-0.3L6.5,11c0.8,0.6,1.6,1.2,2.4,1.8l-0.7,0
			c1.4-1.5,2.8-3,4.2-4.5l0.3-0.3L13,8.3c1.7,1.6,3.4,3.2,5,4.9c-1.9-1.3-3.8-2.8-5.6-4.3l0.6,0c-1.3,1.6-2.7,3.1-4.1,4.6l-0.3,0.3
			l-0.3-0.3c-0.8-0.6-1.5-1.3-2.3-2l0.5,0c-0.7,0.7-1.5,1.3-2.2,2C3.6,14.2,2.8,14.9,2,15.5z"/>
	</g>
</g>
</svg>
