<svg xmlns="http://www.w3.org/2000/svg" fill="#BF8F5F" width="39.939" height="40" viewBox="0 0 39.939 40">
  <path id="rings-wedding-light" d="M31.365,13.219a1.249,1.249,0,1,0-.8,2.368,11.292,11.292,0,1,1-6.477-.188,11.067,11.067,0,0,1,.645,1.084A11.18,11.18,0,0,1,21.47,30.1a1.251,1.251,0,0,0,1.538,1.973,13.734,13.734,0,0,0-4.076-23.85L21.725,4.5a1.249,1.249,0,0,0-.308-1.789l-3.75-2.5A1.245,1.245,0,0,0,16.974,0h-5a1.263,1.263,0,0,0-.7.21l-3.75,2.5a1.25,1.25,0,0,0-.323,1.765l2.72,3.812a12.643,12.643,0,0,0-1.195.487,13.755,13.755,0,0,0,5.8,26.22,14.235,14.235,0,0,0,1.541-.085,1.246,1.246,0,0,0,.191-.051,13.745,13.745,0,1,0,15.1-21.638ZM12.3,7.307,9.99,4.075,12.349,2.5h4.243l2.337,1.558L16.263,7.61a13.652,13.652,0,0,0-3.812.042A1.419,1.419,0,0,0,12.3,7.307ZM4.347,25.992A11.225,11.225,0,0,1,22.466,13.306a13.593,13.593,0,0,0-7.745,19.08A11.006,11.006,0,0,1,4.347,25.992Z" transform="translate(-0.785)"/>
</svg>
