<svg xmlns="http://www.w3.org/2000/svg" fill="#BF8F5F" width="39.93" height="40" viewBox="0 0 39.93 40">
  <path id="arrows-repeat-light" d="M13.726,7.908H30.244L25.4,11.942A1.247,1.247,0,1,0,27,13.857l7.487-6.239a1.282,1.282,0,0,0,.45-1.028,1.152,1.152,0,0,0-.448-.958L27-.607a1.248,1.248,0,1,0-1.6,1.915l4.839,4.1H13.726A13.684,13.684,0,0,0,0,19.068a1.266,1.266,0,0,0,1.248,1.318A1.25,1.25,0,0,0,2.5,19.139,11.242,11.242,0,0,1,13.726,7.908Zm24.956,9.983a1.248,1.248,0,0,0-1.249,1.248,11.228,11.228,0,0,1-11.16,11.23H9.686l4.839-4.034a1.247,1.247,0,0,0-1.595-1.917L5.444,30.657a1.215,1.215,0,0,0-.452.889,1.355,1.355,0,0,0,.448.958l7.487,6.239a1,1,0,0,0,.729.36,1.247,1.247,0,0,0,.8-2.206l-4.77-4.034H26.2A13.742,13.742,0,0,0,39.93,19.139,1.251,1.251,0,0,0,38.682,17.891Z" transform="translate(0 0.896)"/>
</svg>
