<?xml version="1.0" encoding="utf-8"?>
<!-- Generator: Adobe Illustrator 24.3.0, SVG Export Plug-In . SVG Version: 6.00 Build 0)  -->
<svg version="1.1" id="Layer_1" xmlns="http://www.w3.org/2000/svg" xmlns:xlink="http://www.w3.org/1999/xlink" x="0px" y="0px"
	 viewBox="0 0 200 200" style="enable-background:new 0 0 200 200;" xml:space="preserve">
<style type="text/css">
	.st0{fill:#1D1D1B;}
</style>
<path class="st0" d="M9.9,137.4C30.6,186,86,209.5,135.4,190.7l1.7-0.7l1.7-0.7c35.3-15.6,58.1-50.5,58.4-89c0.1-0.1,0.1-0.3,0-0.4
	c-0.2-68.3-69-115.2-132.6-90.3l-1.7,0.7l-1.5,0.7C12.9,32.4-9.8,88.3,9.9,137.4z M11.1,64.2l4.2,1.7l15.1,6.2l-9.9,9.9L4.1,98.3
	C4.3,86.6,6.7,75,11.1,64.2z M129.3,167.6l6.1-14.8l5-12.2l27-11.1v38.1H129.3z M99.8,195.6l-10.7-10.7l-16.1-16.1l26.9-11.1l16,6.6
	l10.9,4.4l-16.1,16.2L99.8,195.6z M4.4,100.2l10.8-10.8l16.1-16.1l11.1,26.9l-2.9,6.9l-8.3,20l-16.1-16.1L4.4,100.2z M32.6,128l7-17
	l3.7-8.8l7.6,18.3l7.6,18.3l-6.5-2.7L32.6,128z M50.9,79.9l-7.6,18.3L32.6,72.3l25.8-10.7L50.9,79.9z M44.2,100.2l8.3-19.7l8.2-19.7
	L100,44.5l19.7,8.2l19.7,8.1l16.3,39.4l-16.3,39.4L100,155.8l-19.7-8.1l-19.7-8.2l-5.1-11.8L44.2,100.2z M120.1,51.2l-18.3-7.6
	L127.6,33l10.7,25.8L120.1,51.2z M156.4,102.2l10.7,25.8l-25.8,10.7L156.4,102.2z M79.6,149.1l18.3,7.7L72,167.4l-10.7-25.8
	L79.6,149.1z M148.8,79.9l-7.6-18.3l25.8,10.7l-10.7,25.8L148.8,79.9z M61.3,58.7L72,33l25.8,10.7L61.3,58.7z M101.9,156.8
	l36.5-15.1l-10.7,25.5h-1L101.9,156.8z M30.8,129.6v36.9c-8.1-8.4-14.6-18.2-19.1-29L30.8,129.6z M32.4,129.6l19.8,8.2l7.1,3
	l11.1,26.9H32.4V129.6z M157.2,100.1l11.1-26.9l26.9,26.9L168.4,127L157.2,100.1z M168.8,70.7V33.8c8.1,8.4,14.6,18.2,19.1,29
	L168.8,70.7z M167.3,70.7l-26.9-11.1l-11.1-26.9h38.2L167.3,70.7z M126.8,31.6L99.8,42.8L90.6,39l-17.7-7.3L99.8,4.7l10.8,10.6
	L126.8,31.6z M61.6,54l-2.3,5.5L32.4,70.7v-38h38.1L61.6,54z M20.3,118.2l10,9.9l-19.3,8.1c-4.4-10.8-6.8-22.4-6.9-34L20.3,118.2z
	 M70.4,169.1l-8,19.2c-10.7-4.6-20.5-11.1-29-19.2H70.4z M63.9,188.9l7.9-19.1l9.9,9.9L98,195.8C86.3,195.6,74.8,193.3,63.9,188.9z
	 M134.7,189.3c-10.6,4.1-21.7,6.3-33.1,6.5l16.2-16.2l9.9-9.9l8,19.1L134.7,189.3z M138,187.9l-1,0.4l-7.9-19.1h36.9
	c-8.1,7.8-17.6,14.1-27.9,18.6L138,187.9z M168.7,129.6l19.1,8c-4.6,10.7-11,20.6-19.1,29V129.6z M188.6,136.2l-19.2-7.9l26.1-26.1
	C195.3,113.9,193,125.4,188.6,136.2L188.6,136.2z M169.5,72.2l19.1-8c4.4,10.8,6.7,22.4,6.9,34L169.5,72.2z M129.3,31.1l7.9-19.1
	c10.8,4.5,20.6,11,29,19.1H129.3z M135.8,11.4l-8.1,19.1l-9.7-9.9L101.7,4.4C113.4,4.7,124.9,7,135.8,11.4z M65,11
	c10.6-4.2,21.8-6.4,33.1-6.6L72,30.5l-7.9-19.1L65,11z M61.7,12.4l0.9-0.4l8,19.1H33.5c8.1-7.9,17.6-14.2,28-18.7L61.7,12.4z
	 M30.8,70.7l-19.1-7.9c4.5-10.8,11-20.6,19.1-29V70.7z"/>
</svg>
