<svg xmlns="http://www.w3.org/2000/svg" xmlns:xlink="http://www.w3.org/1999/xlink" aria-hidden="true" focusable="false" width="1em" height="1em" style="font-size: 24px; line-height: 26px; height: 20px; width: 20px; transform: rotate(360deg);" preserveAspectRatio="xMidYMid meet" viewBox="0 0 24 24" class="iconify" data-icon="circum:search" data-inline="false"><path fill="currentColor" d="M20.031 20.79c.46.46 1.17-.25.71-.7l-3.75-3.76a7.9 7.9 0 0 0 2.04-5.31c0-4.39-3.57-7.96-7.96-7.96s-7.96 3.57-7.96 7.96s3.57 7.96 7.96 7.96c1.98 0 3.81-.73 5.21-1.94zM4.11 11.02c0-3.84 3.13-6.96 6.96-6.96c3.84 0 6.96 3.12 6.96 6.96s-3.12 6.96-6.96 6.96c-3.83 0-6.96-3.12-6.96-6.96"></path></svg>