<?xml version="1.0" encoding="utf-8"?>
<!-- Generator: Adobe Illustrator 24.3.0, SVG Export Plug-In . SVG Version: 6.00 Build 0)  -->
<svg version="1.1" id="Layer_1" xmlns="http://www.w3.org/2000/svg" xmlns:xlink="http://www.w3.org/1999/xlink" x="0px" y="0px"
	 viewBox="0 0 20 20" style="enable-background:new 0 0 20 20;" xml:space="preserve">
<style type="text/css">
	.st0{fill:#EDEDF9;}
	.st1{fill:none;stroke:#757576;stroke-width:2.5;stroke-miterlimit:10;}
	.st2{fill:none;stroke:#757576;stroke-width:2;stroke-miterlimit:10;}
	.st3{fill:none;stroke:#757576;stroke-width:1.5;stroke-miterlimit:10;}
	.st4{fill:none;stroke:#757576;stroke-width:0.4;stroke-miterlimit:10;}
	.st5{fill:none;stroke:#757576;stroke-width:0.2;stroke-miterlimit:10;}
	.st6{fill:none;stroke:#757576;stroke-miterlimit:10;}
	.st7{fill:none;stroke:#757576;stroke-width:0.5;stroke-miterlimit:10;}
	.st8{fill:none;stroke:#757576;stroke-width:1.6;stroke-miterlimit:10;}
	.st9{fill:none;stroke:#757576;stroke-width:5.000000e-02;stroke-miterlimit:10;}
	.st10{fill:none;stroke:#757576;stroke-width:3;stroke-miterlimit:10;}
	.st11{fill:none;stroke:#757576;stroke-width:0.7;stroke-miterlimit:10;}
	.st12{fill:none;stroke:#757576;stroke-width:0.7;stroke-miterlimit:10.0002;}
	.st13{fill:none;stroke:#757576;stroke-width:0.1;stroke-miterlimit:10;}
	.st14{fill:none;stroke:#757576;stroke-width:0.1;stroke-miterlimit:10.0002;}
	.st15{fill:none;stroke:#757576;stroke-width:9.999570e-02;stroke-miterlimit:9.9996;}
	.st16{fill:#757577;}
	.st17{fill:#4F4F4F;stroke:#4F4F4F;stroke-width:0.5;stroke-miterlimit:10;}
	.st18{fill:none;stroke:#4F4F4F;stroke-width:0.5;stroke-miterlimit:10;}
	.st19{fill:none;stroke:#4F4F4F;stroke-width:0.6;stroke-miterlimit:10;}
	.st20{fill:none;stroke:#4F4F4F;stroke-width:0.4;stroke-miterlimit:10;}
	.st21{fill:#606060;}
	.st22{fill:#303030;}
</style>
<g>
	<g>
		<path class="st22" d="M5.7,15.1H5.4c-0.2,0-0.4-0.2-0.4-0.4V3.3c0-0.2,0.2-0.4,0.4-0.4h0.3c0.2,0,0.4,0.2,0.4,0.4v11.4
			C6.1,15,5.9,15.1,5.7,15.1z"/>
		<polyline class="st22" points="8.8,13.9 5.5,17.1 2.3,13.9 		"/>
	</g>
	<g>
		<path class="st22" d="M14.6,4.9h-0.3c-0.2,0-0.4,0.2-0.4,0.4v11.4c0,0.2,0.2,0.4,0.4,0.4h0.3c0.2,0,0.4-0.2,0.4-0.4V5.3
			C15,5,14.8,4.9,14.6,4.9z"/>
		<polyline class="st22" points="17.7,6.1 14.5,2.9 11.2,6.1 		"/>
	</g>
</g>
</svg>
