<svg xmlns="http://www.w3.org/2000/svg"  fill="#BF8F5F" width="29.998" height="40" viewBox="0 0 29.998 40">
  <path id="award-light" d="M22.5,27.992c1.092-.632,1.37-2.347,2.256-3.234s2.6-1.162,3.234-2.255c.623-1.077.013-2.7.342-3.929.317-1.191,1.6-2.285,1.6-3.574s-1.349-2.384-1.667-3.573c-.329-1.23.282-2.852-.341-3.929S25.571,6.13,24.685,5.243s-1.163-2.6-2.255-3.234c-1.075-.622-2.7-.014-3.929-.342C17.379,1.349,16.285,0,15,0s-2.383,1.349-3.57,1.667c-1.234.328-2.859-.281-3.931.341C6.4,2.64,6.126,4.355,5.239,5.241S2.637,6.4,2.005,7.5c-.623,1.074-.012,2.7-.341,3.926C1.345,12.617,0,13.711,0,15s1.349,2.384,1.667,3.573C1.992,19.8,1.381,21.424,2,22.5s2.347,1.366,3.233,2.256,1.163,2.6,2.256,3.234c1.073.621,2.7.013,3.928.341C12.613,28.648,13.707,30,15,30s2.384-1.349,3.573-1.667C19.8,28.008,21.418,28.617,22.5,27.992Zm-7.57-.531A12.648,12.648,0,0,0,12,25.915a12.254,12.254,0,0,0-3.3-.134,12.114,12.114,0,0,0-1.759-2.794,12.171,12.171,0,0,0-2.795-1.759,9.493,9.493,0,0,0-.062-3.3A12.69,12.69,0,0,0,2.533,15a12.65,12.65,0,0,0,1.547-2.93,12.194,12.194,0,0,0,.133-3.3,12.132,12.132,0,0,0,2.8-1.759,12.483,12.483,0,0,0,1.762-2.8,12.167,12.167,0,0,0,3.3-.133,12.68,12.68,0,0,0,2.928-1.546,12.674,12.674,0,0,0,2.929,1.547,12.265,12.265,0,0,0,3.3.134A12.18,12.18,0,0,0,22.985,7.01,12.2,12.2,0,0,0,25.78,8.77a12.136,12.136,0,0,0,.132,3.3A12.694,12.694,0,0,0,27.458,15a12.713,12.713,0,0,0-1.547,2.93,12.184,12.184,0,0,0-.132,3.3,12.132,12.132,0,0,0-2.8,1.759,12.229,12.229,0,0,0-1.758,2.793,12.237,12.237,0,0,0-3.3.133A15.448,15.448,0,0,0,14.926,27.461ZM21.8,15a6.84,6.84,0,1,0-6.875,6.875A6.855,6.855,0,0,0,21.8,15ZM15,19.375a4.375,4.375,0,0,1-.07-8.75A4.425,4.425,0,0,1,19.3,15,4.318,4.318,0,0,1,15,19.375Zm12.922,9.539a1.25,1.25,0,1,0-2.324.921l1.892,4.785-3.709-.513-1.925,3.3-1.947-4.781a1.249,1.249,0,1,0-2.314.942l1.945,4.78A2.647,2.647,0,0,0,21.98,40a2.618,2.618,0,0,0,2.353-1.452l.814-1.612,1.68.337a2.623,2.623,0,0,0,2.552-.9,2.65,2.65,0,0,0,.426-2.673Zm-16.2,3.031a1.246,1.246,0,0,0-1.628.686L8.14,37.413l-1.925-3.3-3.706.511L4.4,29.837a1.249,1.249,0,0,0-2.322-.923L.183,33.7a2.645,2.645,0,0,0,2.974,3.573l1.686-.338.813,1.611A2.662,2.662,0,0,0,8.11,40a2.619,2.619,0,0,0,2.346-1.645L12.4,33.571A1.241,1.241,0,0,0,11.715,31.945Z" transform="translate(0.004)"/>
</svg>
