<svg xml:space="preserve" style="enable-background:new 0 0 71 24;" viewBox="0 0 71 24" y="0px" x="0px" xmlns:xlink="http://www.w3.org/1999/xlink" xmlns="http://www.w3.org/2000/svg" id="Layer_1" version="1.1">
<style type="text/css">
	.st0{fill:#B2FCE4;}
</style>
<g>
	<g id="Afterpay_Badge_Bg">
		<g>
			<path d="M58,24H13C6.4,24,1,18.6,1,12l0,0C1,5.4,6.4,0,13,0h45c6.6,0,12,5.4,12,12l0,0C70,18.6,64.6,24,58,24z" class="st0"></path>
		</g>
	</g>
	<g id="Afterpay_Logo_Black">
		<g>
			<path d="M59.8,9.1l-1.5-0.9l-1.5-0.9c-1-0.6-2.3,0.1-2.3,1.3v0.2c0,0.1,0.1,0.2,0.2,0.3l0.7,0.4c0.2,0.1,0.4,0,0.4-0.3V8.8
				c0-0.2,0.2-0.4,0.4-0.3l1.4,0.8l1.4,0.8c0.2,0.1,0.2,0.4,0,0.5l-1.4,0.8l-1.4,0.8c-0.2,0.1-0.4,0-0.4-0.3v-0.2
				c0-1.2-1.3-1.9-2.3-1.3L52,11.4l-1.5,0.9c-1,0.6-1,2.1,0,2.6l1.5,0.9l1.5,0.9c1,0.6,2.3-0.1,2.3-1.3v-0.2c0-0.1-0.1-0.2-0.2-0.3
				l-0.7-0.4c-0.2-0.1-0.4,0-0.4,0.3v0.5c0,0.2-0.2,0.4-0.4,0.3l-1.4-0.8l-1.4-0.8c-0.2-0.1-0.2-0.4,0-0.5l1.4-0.8l1.4-0.8
				c0.2-0.1,0.4,0,0.4,0.3v0.2c0,1.2,1.3,1.9,2.3,1.3l1.5-0.9l1.5-0.9C60.8,11.2,60.8,9.7,59.8,9.1z"></path>
			<g>
				<path d="M49.9,9.4l-3.5,7.3h-1.5l1.3-2.7l-2.1-4.6h1.5l1.3,3.1l1.5-3.1L49.9,9.4L49.9,9.4z"></path>
			</g>
			<g>
				<g>
					<path d="M14.6,12c0-0.9-0.6-1.5-1.4-1.5s-1.4,0.6-1.4,1.5c0,0.9,0.6,1.5,1.4,1.5S14.6,12.9,14.6,12 M14.6,14.6v-0.7
						c-0.4,0.5-1,0.8-1.6,0.8c-1.4,0-2.5-1.1-2.5-2.7c0-1.5,1.1-2.7,2.5-2.7c0.7,0,1.2,0.3,1.6,0.7V9.4h1.3v5.2L14.6,14.6L14.6,14.6
						z"></path>
					<path d="M22.1,13.4c-0.4,0-0.6-0.2-0.6-0.6v-2.3h0.8V9.4h-0.8V8.2h-1.3v1.3h-1.7V8.9c0-0.4,0.2-0.6,0.6-0.6h0.3v-1h-0.6
						c-1.1,0-1.6,0.4-1.6,1.4v0.7h-0.7v1.1h0.7v4.1h1.3v-4.1h1.7v2.5c0,1.1,0.4,1.5,1.5,1.5h0.7v-1.2L22.1,13.4L22.1,13.4z"></path>
					<path d="M26.7,11.5c-0.1-0.7-0.6-1.1-1.3-1.1c-0.6,0-1.2,0.4-1.3,1.1H26.7z M24.1,12.3c0.1,0.8,0.6,1.2,1.3,1.2
						c0.5,0,1-0.3,1.2-0.7H28c-0.3,1.1-1.3,1.8-2.6,1.8c-1.6,0-2.7-1.1-2.7-2.7s1.2-2.7,2.7-2.7c1.5,0,2.7,1.1,2.7,2.7
						c0,0.1,0,0.2,0,0.3H24.1z"></path>
					<path d="M36.4,12c0-0.8-0.6-1.5-1.4-1.5s-1.4,0.6-1.4,1.5c0,0.9,0.6,1.5,1.4,1.5S36.4,12.9,36.4,12 M32.3,16.7V9.4h1.3v0.7
						c0.4-0.5,1-0.8,1.6-0.8c1.4,0,2.5,1.2,2.5,2.7s-1.1,2.7-2.5,2.7c-0.7,0-1.2-0.3-1.6-0.7v2.7L32.3,16.7L32.3,16.7z"></path>
					<path d="M42.3,12c0-0.9-0.6-1.5-1.4-1.5s-1.4,0.6-1.4,1.5c0,0.9,0.6,1.5,1.4,1.5S42.3,12.9,42.3,12 M42.4,14.6v-0.7
						c-0.4,0.5-1,0.8-1.6,0.8c-1.4,0-2.5-1.1-2.5-2.7c0-1.5,1.1-2.7,2.5-2.7c0.7,0,1.2,0.3,1.6,0.7V9.4h1.3v5.2L42.4,14.6L42.4,14.6
						z"></path>
					<path d="M30,9.9c0,0,0.3-0.6,1.1-0.6c0.3,0,0.6,0.1,0.6,0.1v1.3c0,0-0.5-0.3-0.9-0.2c-0.4,0.1-0.7,0.5-0.7,1v3.1h-1.3V9.4H30
						L30,9.9L30,9.9z"></path>
				</g>
			</g>
		</g>
	</g>
</g>
</svg>
