<svg xmlns="http://www.w3.org/2000/svg" fill="none" viewBox="0 0 38 39" height="39" width="38">
<path fill="#006FCF" d="M32.2864 23.7436V21.2436H33.9361V5H4V16.5256L5.21483 15.2179L4.89514 19.5641H4V35H33.9233V26.2179C33.8721 26.2436 32.3248 26.2564 32.2737 26.2821V25.0385V23.7436H32.2864Z"></path>
<path fill="white" d="M30.2532 19.5632H32.5294V14.2939H30.0614V15.0375L29.5882 14.2939H27.4399V15.2427L27.0179 14.2939H23.5652C23.4118 14.2939 23.2711 14.3068 23.1176 14.3196C22.977 14.3324 22.8363 14.3709 22.6957 14.4093C22.5934 14.435 22.4911 14.4734 22.3887 14.5247C22.2864 14.576 22.1841 14.6273 22.0818 14.6786V14.5119V14.2939H10.8159L10.509 15.1786L10.2148 14.2939H7.52941V15.2427L7.10742 14.2939H4.95908L4 16.5504V19.5632H5.50895L5.80307 18.7939H6.31458L6.6087 19.5632H18.3734V18.9222L18.8593 19.5632H22.0946V19.435V19.2042C22.1841 19.2555 22.2737 19.3068 22.376 19.3452C22.4655 19.3837 22.5678 19.4222 22.6573 19.4478C22.7852 19.4863 22.9258 19.5119 23.0537 19.5375C23.2072 19.5632 23.3606 19.5632 23.5141 19.5632H25.4322L25.7263 18.7939H26.2379L26.532 19.5632H29.8312V18.9093L30.2532 19.5632ZM33.9361 26.217V21.2427H15.5857L15.0997 21.9222L14.6138 21.2427H9.29412V26.5119H14.601L15.0742 25.8196L15.5601 26.5119H18.8849V25.3452H18.7826C19.2174 25.3452 19.6266 25.2683 19.9719 25.1273V26.5119H22.376V25.8709L22.8619 26.5119H32.7724C33.22 26.5119 33.6164 26.4093 33.9361 26.217Z"></path>
<path fill="#006FCF" d="M32.8235 24.9359H31.0205V25.6538H32.7724C33.5397 25.6538 33.9872 25.1923 33.9872 24.5384C33.9872 23.8974 33.5652 23.5256 32.8875 23.5256H32.0819C31.8772 23.5256 31.7238 23.3846 31.7238 23.1795C31.7238 22.9743 31.8772 22.8333 32.0819 22.8333H33.5908L33.9105 22.1154H32.1202C31.3657 22.1154 30.9054 22.5769 30.9054 23.2051C30.9054 23.8589 31.3402 24.2307 32.0051 24.2307H32.8108C33.0281 24.2307 33.1688 24.3718 33.1688 24.5897C33.1944 24.7948 33.0409 24.9359 32.8235 24.9359ZM29.5499 24.9359H27.7468V25.6538H29.4987C30.266 25.6538 30.7136 25.1923 30.7136 24.5384C30.7136 23.8974 30.2916 23.5256 29.6138 23.5256H28.8082C28.5908 23.5256 28.4501 23.3846 28.4501 23.1795C28.4501 22.9743 28.6036 22.8333 28.8082 22.8333H30.3171L30.6368 22.1154H28.8593C28.0921 22.1154 27.6445 22.5769 27.6445 23.2051C27.6445 23.8589 28.0665 24.2307 28.7443 24.2307H29.5499C29.7545 24.2307 29.9079 24.3718 29.9079 24.5897C29.9079 24.7948 29.7545 24.9359 29.5499 24.9359ZM27.2225 22.8333V22.1154H24.4476V25.6538H27.2225V24.9359H25.2532V24.2307H27.1842V23.5256H25.2532V22.8333H27.2225ZM22.6701 22.8333C22.977 22.8333 23.1432 23.0256 23.1432 23.2564C23.1432 23.4872 22.977 23.6795 22.6701 23.6795H21.6599V22.8461H22.6701V22.8333ZM21.6599 24.3589H22.0691L23.156 25.641H24.1663L23.0026 24.3205C23.6036 24.2051 23.9489 23.782 23.9489 23.2307C23.9489 22.5641 23.4885 22.1025 22.734 22.1025H20.8542V25.641H21.6599V24.3589ZM19.5243 23.2948C19.5243 23.5513 19.3581 23.7436 19.0512 23.7436H18.0154V22.8205H19.0512C19.3581 22.8333 19.5243 23.0384 19.5243 23.2948ZM17.2097 22.1154V25.6538H18.0154V24.4743H19.0895C19.8568 24.4743 20.3299 23.9743 20.3299 23.2948C20.3299 22.6025 19.8696 22.1154 19.1151 22.1154H17.2097ZM15.9693 25.6538H16.9795L15.5729 23.8718L16.9795 22.1154H15.9949L15.1125 23.2692L14.2302 22.1154H13.2072L14.6138 23.8846L13.2072 25.6538H14.1918L15.0742 24.4872L15.9693 25.6538ZM12.9898 22.8333V22.1154H10.2148V25.6538H12.9898V24.9359H11.0205V24.2307H12.9514V23.5256H11.0205V22.8333H12.9898Z"></path>
<path fill="#006FCF" d="M29.23 16.5261L30.6111 18.6928H31.6085V15.1543H30.8029V17.4876L30.5855 17.1415L29.3067 15.1543H28.2581V18.6928H29.0638V16.2825L29.23 16.5261ZM25.7006 16.4363L25.9691 15.6928L26.2377 16.4363L26.5574 17.244H25.3681L25.7006 16.4363ZM27.1456 18.6928H28.0407L26.5318 15.1543H25.4576L23.9487 18.6928H24.8182L25.1251 17.9363H26.8515L27.1456 18.6928ZM23.4116 18.6928H23.4372L23.7696 17.9748H23.5395C22.9512 17.9748 22.5932 17.603 22.5932 16.962V16.8979C22.5932 16.321 22.9129 15.8979 23.5267 15.8979H24.4218V15.1543H23.4627C22.3886 15.1543 21.7875 15.8851 21.7875 16.8851V16.9492C21.8003 17.9876 22.4014 18.6799 23.4116 18.6928ZM20.4193 18.6928H21.2249V17.0517V15.1543H20.4193V16.9876V18.6928ZM18.6418 15.8722C18.9487 15.8722 19.1149 16.0646 19.1149 16.2953C19.1149 16.5261 18.9487 16.7184 18.6418 16.7184H17.6315V15.8722H18.6418ZM17.6315 17.4107H18.0407L19.1277 18.6928H20.1379L18.9742 17.3722C19.5753 17.2569 19.9333 16.8338 19.9333 16.2825C19.9333 15.6158 19.473 15.1543 18.7185 15.1543H16.8387V18.6928H17.6443V17.4107H17.6315ZM16.1865 15.8722V15.1543H13.3988V18.6928H16.1865V17.9748H14.2044V17.2697H16.1354V16.5646H14.2044V15.8722H16.1865ZM10.1507 18.6928H10.854L11.8771 15.8338V18.6928H12.6699V15.1543H11.34L10.5088 17.5517L9.69035 15.1543H8.34764V18.6928H9.14048V15.8338L10.1507 18.6928ZM5.77731 16.4363L6.04585 15.6928L6.31439 16.4363L6.63409 17.244H5.45762L5.77731 16.4363ZM7.22232 18.6928H8.11746L6.60851 15.1543H5.53434L4.02539 18.6928H4.89496L5.20186 17.9363H6.9282L7.22232 18.6928Z"></path>
</svg>
