<svg xmlns="http://www.w3.org/2000/svg" fill="none" viewBox="0 0 34 24" height="24" width="34">
<path fill="#231F20" d="M6.8786 23.8677V22.2785C6.88797 22.1448 6.86842 22.0107 6.82125 21.8851C6.77408 21.7595 6.70038 21.6453 6.60505 21.55C6.50972 21.4548 6.39495 21.3807 6.26839 21.3328C6.14184 21.2848 6.00639 21.2641 5.87109 21.2719C5.69399 21.2604 5.51701 21.2962 5.35864 21.3754C5.20028 21.4546 5.06632 21.5744 4.97076 21.7222C4.88366 21.5788 4.75903 21.4613 4.61 21.382C4.46098 21.3028 4.29309 21.2647 4.12403 21.2719C3.97666 21.2646 3.8299 21.2954 3.69829 21.3614C3.56669 21.4273 3.45481 21.5262 3.37375 21.648V21.3355H2.81641V23.8677H3.37911V22.4745C3.36714 22.3879 3.37467 22.2997 3.40117 22.2163C3.42766 22.133 3.47246 22.0564 3.53236 21.9921C3.59227 21.9278 3.6658 21.8774 3.7477 21.8445C3.8296 21.8116 3.91784 21.797 4.00613 21.8017C4.3759 21.8017 4.56347 22.0401 4.56347 22.4692V23.8783H5.12618V22.4745C5.1147 22.388 5.12257 22.3 5.14924 22.2168C5.17592 22.1337 5.22074 22.0573 5.28054 21.9931C5.34034 21.929 5.41367 21.8786 5.49534 21.8455C5.57701 21.8124 5.66503 21.7974 5.75319 21.8017C6.13369 21.8017 6.3159 22.0401 6.3159 22.4692V23.8783L6.8786 23.8677ZM15.204 21.3355H14.2876V20.5673H13.7248V21.3355H13.2157V21.8388H13.7356V23.0042C13.7356 23.5922 13.966 23.9419 14.6252 23.9419C14.8714 23.9427 15.1129 23.8748 15.3219 23.7459L15.1611 23.2744C15.0116 23.3625 14.842 23.4117 14.668 23.4174C14.4001 23.4174 14.2983 23.2479 14.2983 22.9936V21.8388H15.2093L15.204 21.3355ZM19.9575 21.2719C19.8216 21.268 19.6871 21.3003 19.5683 21.3656C19.4495 21.4309 19.3506 21.5266 19.2822 21.6427V21.3355H18.7302V23.8677H19.2876V22.448C19.2876 22.0295 19.4698 21.7964 19.8235 21.7964C19.9427 21.7948 20.0611 21.8164 20.1718 21.8599L20.3433 21.3302C20.216 21.2852 20.0819 21.2619 19.9468 21.2613L19.9575 21.2719ZM12.7709 21.5368C12.4554 21.3514 12.0927 21.2594 11.7259 21.2719C11.0775 21.2719 10.6541 21.5792 10.6541 22.0824C10.6541 22.4957 10.9649 22.7499 11.5383 22.8294L11.8063 22.8665C12.1118 22.9089 12.2565 22.9883 12.2565 23.1314C12.2565 23.3274 12.0528 23.4386 11.6723 23.4386C11.3663 23.4474 11.0661 23.3541 10.8202 23.1737L10.5523 23.6028C10.8769 23.8269 11.2658 23.9421 11.6616 23.9313C12.4012 23.9313 12.8299 23.5869 12.8299 23.1049C12.8299 22.6228 12.4923 22.4268 11.9349 22.3473L11.667 22.3102C11.4258 22.2785 11.2329 22.2308 11.2329 22.0613C11.2329 21.8917 11.4151 21.7646 11.7205 21.7646C12.0029 21.7678 12.2797 21.8426 12.5244 21.9818L12.7709 21.5368ZM27.6987 21.2719C27.5628 21.268 27.4284 21.3003 27.3095 21.3656C27.1907 21.4309 27.0918 21.5266 27.0234 21.6427V21.3355H26.4715V23.8677H27.0288V22.448C27.0288 22.0295 27.211 21.7964 27.5647 21.7964C27.6839 21.7948 27.8023 21.8164 27.9131 21.8599L28.0845 21.3302C27.9573 21.2852 27.8232 21.2619 27.688 21.2613L27.6987 21.2719ZM20.5175 22.5963C20.5109 22.7743 20.5419 22.9516 20.6086 23.117C20.6753 23.2824 20.7762 23.4323 20.9048 23.5569C21.0334 23.6816 21.187 23.7783 21.3556 23.841C21.5242 23.9036 21.7042 23.9308 21.8841 23.9207C22.2187 23.9375 22.5476 23.8298 22.8058 23.6187L22.5379 23.1737C22.3452 23.319 22.1103 23.3989 21.868 23.4015C21.662 23.3851 21.4698 23.2925 21.3297 23.1423C21.1895 22.9921 21.1117 22.7953 21.1117 22.591C21.1117 22.3867 21.1895 22.1899 21.3297 22.0397C21.4698 21.8895 21.662 21.797 21.868 21.7805C22.1103 21.7831 22.3452 21.863 22.5379 22.0083L22.8058 21.5633C22.5476 21.3522 22.2187 21.2445 21.8841 21.2613C21.7042 21.2512 21.5242 21.2784 21.3556 21.341C21.187 21.4037 21.0334 21.5004 20.9048 21.6251C20.7762 21.7497 20.6753 21.8996 20.6086 22.065C20.5419 22.2304 20.5109 22.4078 20.5175 22.5857V22.5963ZM25.7373 22.5963V21.3355H25.1799V21.6427C25.0853 21.5224 24.963 21.4259 24.8232 21.3615C24.6835 21.297 24.5302 21.2663 24.3761 21.2719C24.0207 21.2719 23.6799 21.4115 23.4287 21.6598C23.1774 21.9082 23.0363 22.2451 23.0363 22.5963C23.0363 22.9476 23.1774 23.2844 23.4287 23.5328C23.6799 23.7812 24.0207 23.9207 24.3761 23.9207C24.5302 23.9263 24.6835 23.8956 24.8232 23.8311C24.963 23.7667 25.0853 23.6702 25.1799 23.5499V23.8571H25.7373V22.5963ZM23.6633 22.5963C23.6722 22.4472 23.725 22.304 23.8152 22.1842C23.9054 22.0645 24.029 21.9734 24.1709 21.9222C24.3128 21.871 24.4668 21.862 24.6138 21.8962C24.7608 21.9304 24.8945 22.0064 24.9984 22.1148C25.1023 22.2232 25.1719 22.3592 25.1986 22.5062C25.2252 22.6531 25.2078 22.8046 25.1485 22.9419C25.0892 23.0792 24.9906 23.1964 24.8648 23.279C24.7389 23.3616 24.5914 23.4061 24.4404 23.4068C24.3343 23.4082 24.229 23.3878 24.1313 23.3469C24.0336 23.3061 23.9454 23.2457 23.8724 23.1696C23.7995 23.0935 23.7432 23.0033 23.7072 22.9046C23.6712 22.8059 23.6563 22.701 23.6633 22.5963ZM16.9376 21.2719C16.5823 21.2768 16.2435 21.4211 15.9958 21.6729C15.748 21.9248 15.6116 22.2636 15.6166 22.6148C15.6216 22.9661 15.7675 23.301 16.0223 23.5459C16.2771 23.7908 16.6198 23.9256 16.9751 23.9207C17.3607 23.9403 17.7398 23.8175 18.0389 23.5764L17.771 23.1684C17.5594 23.3362 17.2972 23.4294 17.0261 23.4333C16.8418 23.449 16.6587 23.393 16.5156 23.2772C16.3724 23.1615 16.2807 22.9951 16.2597 22.8135H18.1622C18.1622 22.7446 18.1622 22.6758 18.1622 22.6016C18.1622 21.807 17.6638 21.2772 16.9457 21.2772L16.9376 21.2719ZM16.9376 21.7646C17.021 21.7628 17.104 21.7773 17.1817 21.8073C17.2594 21.8372 17.3304 21.882 17.3906 21.939C17.4509 21.9961 17.4991 22.0644 17.5326 22.1399C17.5662 22.2154 17.5843 22.2967 17.5861 22.3791H16.2463C16.256 22.2091 16.3327 22.0495 16.4599 21.9347C16.5871 21.8198 16.7547 21.7588 16.9269 21.7646H16.9376ZM30.9008 22.6016V20.3184H30.3648V21.6427C30.2702 21.5224 30.1479 21.4259 30.0082 21.3615C29.8684 21.297 29.7151 21.2663 29.561 21.2719C29.2057 21.2719 28.8649 21.4115 28.6136 21.6598C28.3624 21.9082 28.2212 22.2451 28.2212 22.5963C28.2212 22.9476 28.3624 23.2844 28.6136 23.5328C28.8649 23.7812 29.2057 23.9207 29.561 23.9207C29.7151 23.9263 29.8684 23.8956 30.0082 23.8311C30.1479 23.7667 30.2702 23.6702 30.3648 23.5499V23.8571H30.9008V22.6016ZM31.8306 23.4995C31.8654 23.4991 31.9 23.5054 31.9324 23.5181C31.9632 23.5305 31.9913 23.5485 32.0154 23.5711C32.039 23.5939 32.0581 23.6208 32.0717 23.6505C32.0853 23.6814 32.0923 23.7148 32.0923 23.7485C32.0923 23.7822 32.0853 23.8156 32.0717 23.8465C32.0581 23.8762 32.039 23.9032 32.0154 23.926C31.9913 23.9486 31.9632 23.9666 31.9324 23.979C31.9003 23.993 31.8656 24.0002 31.8306 24.0002C31.7798 23.9998 31.7301 23.9851 31.6874 23.9579C31.6447 23.9307 31.6107 23.8921 31.5894 23.8465C31.576 23.8156 31.5691 23.7822 31.5691 23.7485C31.5691 23.7148 31.576 23.6815 31.5894 23.6505C31.603 23.6208 31.6221 23.5939 31.6457 23.5711C31.6698 23.5485 31.698 23.5305 31.7287 23.5181C31.7636 23.5044 31.8011 23.498 31.8386 23.4995H31.8306ZM31.8306 23.9472C31.8573 23.9473 31.8838 23.9419 31.9083 23.9313C31.9313 23.9211 31.9522 23.9067 31.9699 23.8889C32.0034 23.8528 32.022 23.8055 32.022 23.7565C32.022 23.7074 32.0034 23.6602 31.9699 23.624C31.9523 23.6062 31.9313 23.5918 31.9083 23.5816C31.8838 23.5711 31.8573 23.5657 31.8306 23.5658C31.8038 23.5659 31.7774 23.5713 31.7528 23.5816C31.7288 23.5914 31.7069 23.6058 31.6885 23.624C31.655 23.6602 31.6364 23.7074 31.6364 23.7565C31.6364 23.8055 31.655 23.8528 31.6885 23.8889C31.707 23.9071 31.7288 23.9215 31.7528 23.9313C31.7799 23.9428 31.8092 23.9482 31.8386 23.9472H31.8306ZM31.8466 23.632C31.8716 23.6308 31.8963 23.6383 31.9163 23.6532C31.9245 23.6599 31.931 23.6684 31.9352 23.6781C31.9394 23.6878 31.9412 23.6983 31.9404 23.7088C31.9408 23.7176 31.9393 23.7264 31.9361 23.7346C31.9329 23.7428 31.928 23.7502 31.9217 23.7565C31.9061 23.7704 31.8863 23.7788 31.8654 23.7803L31.9431 23.8677H31.8815L31.8091 23.7803H31.785V23.8677H31.7341V23.6346L31.8466 23.632ZM31.7877 23.677V23.7406H31.8466C31.8571 23.7437 31.8683 23.7437 31.8788 23.7406C31.8807 23.7369 31.8817 23.7328 31.8817 23.7287C31.8817 23.7245 31.8807 23.7204 31.8788 23.7167C31.8807 23.713 31.8817 23.709 31.8817 23.7048C31.8817 23.7007 31.8807 23.6966 31.8788 23.6929C31.8683 23.6898 31.8571 23.6898 31.8466 23.6929L31.7877 23.677ZM28.8402 22.6016C28.8491 22.4525 28.9019 22.3093 28.9921 22.1895C29.0822 22.0698 29.2059 21.9787 29.3478 21.9275C29.4897 21.8763 29.6436 21.8673 29.7907 21.9015C29.9377 21.9357 30.0714 22.0117 30.1753 22.1201C30.2792 22.2285 30.3488 22.3645 30.3754 22.5115C30.4021 22.6584 30.3847 22.8099 30.3254 22.9472C30.2661 23.0845 30.1675 23.2017 30.0416 23.2843C29.9158 23.3669 29.7683 23.4114 29.6173 23.4121C29.5112 23.4135 29.4059 23.3931 29.3082 23.3522C29.2105 23.3114 29.1223 23.251 29.0493 23.1749C28.9764 23.0988 28.9201 23.0085 28.8841 22.9099C28.8481 22.8112 28.8331 22.7063 28.8402 22.6016ZM10.0217 22.6016V21.3355H9.46437V21.6427C9.36972 21.5224 9.24746 21.4259 9.10769 21.3615C8.96792 21.297 8.81464 21.2663 8.6605 21.2719C8.30517 21.2719 7.96439 21.4115 7.71314 21.6598C7.46188 21.9082 7.32073 22.2451 7.32073 22.5963C7.32073 22.9476 7.46188 23.2844 7.71314 23.5328C7.96439 23.7812 8.30517 23.9207 8.6605 23.9207C8.81464 23.9263 8.96792 23.8956 9.10769 23.8311C9.24746 23.7667 9.36972 23.6702 9.46437 23.5499V23.8571H10.0217V22.6016ZM7.94774 22.6016C7.95663 22.4525 8.00942 22.3093 8.09961 22.1895C8.18981 22.0698 8.31347 21.9787 8.45537 21.9275C8.59727 21.8763 8.75121 21.8673 8.89823 21.9015C9.04526 21.9357 9.17896 22.0117 9.28286 22.1201C9.38677 22.2285 9.45634 22.3645 9.48301 22.5115C9.50968 22.6584 9.49229 22.8099 9.43298 22.9472C9.37367 23.0845 9.27503 23.2017 9.1492 23.2843C9.02338 23.3669 8.87586 23.4114 8.72481 23.4121C8.61827 23.4142 8.51245 23.3944 8.41408 23.3539C8.31571 23.3134 8.22692 23.2531 8.15335 23.1769C8.07978 23.1007 8.02304 23.0102 7.98672 22.9112C7.95041 22.8121 7.93531 22.7067 7.94238 22.6016H7.94774Z"></path>
<path fill="#FF5F00" d="M21.0265 2.03906H12.5859V17.0338H21.0265V2.03906Z"></path>
<path fill="#EB001B" d="M13.1218 9.53886C13.1202 8.09456 13.4511 6.66884 14.0895 5.36966C14.7278 4.07049 15.6568 2.93193 16.8062 2.04019C15.3831 0.934649 13.6741 0.247179 11.8744 0.056351C10.0748 -0.134477 8.25718 0.179036 6.62928 0.961058C5.00137 1.74308 3.62888 2.96206 2.66865 4.47868C1.70843 5.9953 1.19922 7.74837 1.19922 9.53754C1.19922 11.3267 1.70843 13.0798 2.66865 14.5964C3.62888 16.113 5.00137 17.332 6.62928 18.114C8.25718 18.896 10.0748 19.2095 11.8744 19.0187C13.6741 18.8279 15.3831 18.1404 16.8062 17.0349C15.6572 16.1434 14.7284 15.0053 14.0901 13.7066C13.4517 12.4079 13.1206 10.9827 13.1218 9.53886Z"></path>
<path fill="#F79E1B" d="M32.415 9.53801C32.415 11.3273 31.9056 13.0805 30.9452 14.5972C29.9848 16.1138 28.6121 17.3328 26.984 18.1147C25.3559 18.8966 23.5381 19.2099 21.7384 19.0188C19.9386 18.8277 18.2296 18.1399 16.8066 17.034C17.9552 16.1418 18.8837 15.0033 19.5222 13.7046C20.1607 12.4058 20.4924 10.9807 20.4924 9.53669C20.4924 8.09269 20.1607 6.66756 19.5222 5.3688C18.8837 4.07005 17.9552 2.93159 16.8066 2.03934C18.2296 0.933453 19.9386 0.245649 21.7384 0.0545466C23.5381 -0.136555 25.3559 0.176756 26.984 0.958666C28.6121 1.74058 29.9848 2.95954 30.9452 4.47621C31.9056 5.99288 32.415 7.74607 32.415 9.53537V9.53801Z"></path>
<path fill="#F79E1B" d="M31.4937 15.4441V15.1368H31.6196V15.0732H31.3008V15.1368H31.4374V15.4441H31.4937ZM32.1127 15.4441V15.0732H32.0162L31.9037 15.3381L31.7911 15.0732H31.7054V15.4441H31.7751V15.166L31.8796 15.407H31.9519L32.0564 15.166V15.4467L32.1127 15.4441Z"></path>
</svg>
