<svg xmlns="http://www.w3.org/2000/svg" fill="none" viewBox="0 0 49 16" height="16" width="49">
<path fill="#00579F" d="M35.3482 0.591163C35.2161 1.76154 35.0415 2.88524 34.8254 3.96293C33.9167 3.63682 32.868 3.11399 31.3877 3.22335C30.504 3.28871 29.4589 3.66216 29.4449 4.53912C29.4291 5.51077 30.8795 6.08829 31.6866 6.51309C33.1419 7.27934 34.7037 8.30168 34.8254 10.379C34.9185 11.9769 34.2447 13.3667 33.4803 14.1629C31.4431 16.2823 26.9245 16.5064 23.8398 15.1499C24.0322 14.0175 24.2069 12.8665 24.3633 11.6948C25.5575 12.2536 27.1978 13.0085 28.9963 12.7645C29.8156 12.6531 30.8186 12.1269 30.79 11.202C30.7541 10.0723 28.8399 9.40137 27.8752 8.81585C26.7547 8.13562 25.4789 7.00526 25.4096 5.27869C25.3633 4.12832 25.7699 3.0513 26.3067 2.31706C27.8983 0.139683 31.9915 -0.63457 35.3482 0.591163Z"></path>
<path fill="#00579F" d="M17.5352 15.7615L19.8791 0.294434H23.7142L21.3703 15.7615H17.5352V15.7615Z"></path>
<path fill="#00579F" d="M14.3315 0.262207C13.0095 3.68799 11.8823 7.32784 10.5208 10.7096L10.1215 8.68029C10.1203 8.67295 10.1166 8.66361 10.1148 8.65628L10.1824 9.01706C9.88716 7.94938 9.38381 6.94239 8.74046 6.01875C8.72342 5.99474 8.70638 5.97074 8.68995 5.94673C8.57674 5.78801 8.45744 5.63396 8.33693 5.47991C8.26328 5.38588 8.17442 5.28718 8.09834 5.19448C7.17014 4.07678 5.64121 2.09881 4.45312 1.33389L8.27911 15.7273H12.3893C14.3242 10.5082 16.4119 5.45857 18.3675 0.262207C17.0218 0.262207 15.6767 0.262207 14.3315 0.262207Z"></path>
<path fill="#FAA61A" d="M6.91894 0H0.800781V0.333442C4.32244 1.10036 9.35355 6.46544 10.538 10.6701L8.61951 1.53317C8.44057 0.432808 7.75462 0 6.91894 0Z"></path>
<path fill="#00579F" d="M44.759 15.8099H48.2715L45.2076 0.262207H42.3055C41.8685 0.262207 40.8405 0.302887 40.5745 0.838395C40.5441 0.899353 40.5066 0.973472 40.4641 1.05738C40.2607 1.4591 39.9436 2.08525 39.7522 2.56629L34.5215 15.8099H38.5568L39.454 13.4238H44.2362C44.3536 13.7944 44.4278 14.2127 44.5021 14.6311C44.5744 15.0387 44.6467 15.4463 44.759 15.8099ZM40.5016 10.2984L42.4541 4.54785L43.6592 10.2984H40.5016Z" clip-rule="evenodd" fill-rule="evenodd"></path>
</svg>
