<svg xmlns="http://www.w3.org/2000/svg" viewBox="0 0 342.49 38.2"><defs><style>.cls-1{fill:#fff;}</style></defs><g id="Layer_2" data-name="Layer 2"><g id="BLACK"><path d="M0,0,.37,0H39.12V36.93H0ZM25.87,20,19.58,6.09,13.32,20ZM8.67,30.81h1.49a.42.42,0,0,0,.43-.28c.89-1.92,1.79-3.82,2.68-5.74a.4.4,0,0,1,.43-.26H25.57a.4.4,0,0,1,.44.28c.8,1.81,1.63,3.6,2.4,5.43.21.48.44.7,1,.62a8.29,8.29,0,0,1,1.12,0,1.41,1.41,0,0,1-.06-.15Q28.71,27,27,23.28c-.09-.18-.2-.19-.36-.19-4.61,0-9.21,0-13.82,0a.4.4,0,0,0-.41.26q-1.8,3.6-3.61,7.22C8.74,30.64,8.71,30.72,8.67,30.81Z"/><path d="M106.61,38.05V.35l.21,0c3.79,0,7.57-.12,11.36-.12a43.34,43.34,0,0,1,7.37.57,26.32,26.32,0,0,1,2.92.68,7.73,7.73,0,0,1,4.88,4.11,10.14,10.14,0,0,1,.49,8.62,6.54,6.54,0,0,1-4.37,4,.38.38,0,0,0-.15.13,11.66,11.66,0,0,0,1.08.5,9.21,9.21,0,0,1,4.06,2.62,8.84,8.84,0,0,1,2.21,6.2,9.93,9.93,0,0,1-4,8.06,9.82,9.82,0,0,1-3.74,1.57,33.53,33.53,0,0,1-6.14.8c-4.63.26-9.25,0-13.87,0ZM113,32.12l.14,0c3,0,6.1.06,9.15,0a19.76,19.76,0,0,0,4.39-.55,3.84,3.84,0,0,0,3.22-3l.06-.22a4.77,4.77,0,0,0-.82-4.24,5.28,5.28,0,0,0-2.44-1.63,13,13,0,0,0-4.5-.66h-8.9l-.3,0Zm0-25.86V16l3.28.1a38.39,38.39,0,0,0,6.25-.15,8.53,8.53,0,0,0,3.33-1,3.78,3.78,0,0,0,1.69-2,4.59,4.59,0,0,0-2.91-6.07l-.32-.11a15.65,15.65,0,0,0-4.61-.55c-2.17,0-4.33.08-6.5.13Z"/><path d="M289.3,27.81V.34h6.34V38H289a.49.49,0,0,1-.45-.22l-16.17-21q-2.11-2.73-4.26-5.44a4.24,4.24,0,0,0-.46-.49l-.07,0V38h-6.41V.33h.28l6,0a.44.44,0,0,1,.31.12c1,1.33,1.93,2.7,3,4Q279.85,16,289,27.57l.21.26Z"/><path d="M178.06,16.26V22H160.14V32h20.61v6H153.69V.34h26.5V.67c0,1.78-.05,3.56-.06,5.34,0,.28-.08.34-.35.34H160.13v9.9Z"/><path d="M94.16,38H87.59a.35.35,0,0,1-.38-.25c-1.14-2.67-2.29-5.33-3.43-8-.09-.2-.17-.29-.41-.29l-18.23,0a.47.47,0,0,0-.5.33c-1.13,2.64-2.27,5.27-3.41,7.91a.38.38,0,0,1-.41.28H54.24c.06-.15.1-.26.15-.37L70.24,2.5,71.12.55a.31.31,0,0,1,.33-.23c2,0,4,0,6,0,.21,0,.25.12.31.26Q81.37,8.82,85,17l9,20.62ZM81,23.51c-2.09-5.15-4.51-10.1-6.87-15.15L67.46,23.51Z"/><path d="M199.43,38V.33l6.41.09c0,10.55-.3,21.07.06,31.6,5.71-.05,11.39-.33,17.09.07V38Z"/><path d="M314.11,38V.32l6.41.09V38Z"/><path d="M240,.31c2.13.06,4.26-.1,6.4.11V38H240Z"/><path d="M342.49.32V9.84H341.3V2.09h-.07l-2.7,7.78c-.34,0-.67,0-1,0-.08,0-.19-.13-.22-.22q-.82-2.4-1.64-4.8c-.3-.87-.59-1.74-.89-2.62a.64.64,0,0,0-.16-.27V9.84h-1.2V.32h1.77c.07,0,.16.15.19.24q.84,2.46,1.66,4.94c.32,1,.64,1.91,1,2.92l.12-.29q1.29-3.78,2.6-7.58a.29.29,0,0,1,.34-.24C341.54.33,342,.32,342.49.32Z"/><path d="M332.15.33V1.45H329V9.84h-1.26V1.47h-3.13V.33Z"/><path class="cls-1" d="M25.87,20H13.32L19.58,6.09Zm-2.29-1.62-4-8.91-4,8.91Z"/><path class="cls-1" d="M8.67,30.81c0-.09.07-.17.11-.24Q10.6,27,12.39,23.35a.4.4,0,0,1,.41-.26c4.61,0,9.21,0,13.82,0,.16,0,.27,0,.36.19Q28.71,27,30.45,30.7a1.41,1.41,0,0,0,.06.15,8.29,8.29,0,0,0-1.12,0c-.54.08-.77-.14-1-.62-.77-1.83-1.6-3.62-2.4-5.43a.4.4,0,0,0-.44-.28H13.7a.4.4,0,0,0-.43.26c-.89,1.92-1.79,3.82-2.68,5.74a.42.42,0,0,1-.43.28Z"/><path d="M23.58,18.36h-8l4-8.91Z"/></g></g></svg>