<svg xmlns="http://www.w3.org/2000/svg" viewBox="0 0 104.73 100.75"><defs><style>.cls-1{fill:#fff;}</style></defs><g id="Layer_2" data-name="Layer 2"><g id="Layer_1-2" data-name="Layer 1"><path d="M104.73.1V100.53l-.52,0H.69c-.19,0-.37,0-.56,0V.08h104ZM52.33,16.82,35.5,54.48H69.14Zm-29.19,67c1.41,0,2.75,0,4.09,0a.77.77,0,0,0,.82-.51C30.51,78,33,72.78,35.45,67.52a.65.65,0,0,1,.69-.47q16.28,0,32.54,0a.66.66,0,0,1,.69.47q1.45,3.12,2.93,6.24,2.25,4.8,4.52,9.59c.08.18.27.43.41.44,1.46,0,2.92,0,4.46,0l-.27-.58C78.28,76.61,75.12,70,72,63.37a.78.78,0,0,0-.83-.5q-18.75,0-37.5,0a.76.76,0,0,0-.82.5q-4.71,9.95-9.44,19.86C23.32,83.4,23.24,83.57,23.14,83.81Z"/><path class="cls-1" d="M104.73.1l-.63,0H.13V100.53c.19,0,.37,0,.56,0H104.21l.52,0c0,.07-.06.19-.11.2a1.43,1.43,0,0,1-.36,0H0V0H104.26A2.83,2.83,0,0,1,104.73.1Z"/><path class="cls-1" d="M52.33,16.82,69.14,54.48H35.5ZM63.11,50.29,52.33,26.15,41.53,50.29Z"/><path class="cls-1" d="M23.14,83.81c.1-.24.18-.41.26-.58q4.73-9.93,9.44-19.86a.76.76,0,0,1,.82-.5q18.75,0,37.5,0a.78.78,0,0,1,.83.5c3.13,6.62,6.29,13.24,9.43,19.86l.27.58c-1.54,0-3,0-4.46,0-.14,0-.33-.26-.41-.44q-2.28-4.78-4.52-9.59-1.47-3.12-2.93-6.24a.66.66,0,0,0-.69-.47q-16.28,0-32.54,0a.65.65,0,0,0-.69.47C33,72.78,30.51,78,28.05,83.31a.77.77,0,0,1-.82.51C25.89,83.79,24.55,83.81,23.14,83.81Z"/><path d="M63.11,50.29H41.53l10.8-24.14Z"/></g></g></svg>