<?xml version="1.0" encoding="utf-8"?>
<!-- Generator: Adobe Illustrator 24.3.0, SVG Export Plug-In . SVG Version: 6.00 Build 0)  -->
<svg version="1.1" id="Layer_1" xmlns="http://www.w3.org/2000/svg" xmlns:xlink="http://www.w3.org/1999/xlink" x="0px" y="0px"
	 viewBox="0 0 600 600" style="enable-background:new 0 0 600 600;" xml:space="preserve">
<style type="text/css">
	.st0{fill:#FFCB2B;}
	.st1{fill:#ECECED;}
	.st2{fill:#F8F4EF;}
</style>
<g>
	<g>
		<g>
			<polygon class="st0" points="57.1,176.2 38.7,166.6 20.5,176.3 23.9,156 9,141.6 29.5,138.5 38.5,120 47.8,138.5 68.2,141.3 
				53.5,155.8 			"/>
		</g>
	</g>
	<g>
		<g>
			<polygon class="st0" points="131.6,176.2 113.2,166.6 95,176.3 98.4,156 83.5,141.6 103.9,138.5 113,120 122.2,138.5 
				142.7,141.3 128,155.8 			"/>
		</g>
	</g>
	<g>
		<g>
			<polygon class="st0" points="206,176.2 187.7,166.6 169.4,176.3 172.8,156 158,141.6 178.4,138.5 187.5,120 196.7,138.5 
				217.2,141.3 202.4,155.8 			"/>
		</g>
	</g>
	<g>
		<g>
			<polygon class="st0" points="280.5,176.2 262.2,166.6 243.9,176.3 247.3,156 232.5,141.6 252.9,138.5 262,120 271.2,138.5 
				291.6,141.3 276.9,155.8 			"/>
		</g>
	</g>
	<g>
		<g>
			<polygon class="st0" points="355,176.2 336.6,166.6 318.4,176.3 321.8,156 306.9,141.6 327.4,138.5 336.4,120 345.7,138.5 
				366.1,141.3 351.4,155.8 			"/>
		</g>
	</g>
</g>
<g>
	<path d="M74.2,77.7H63.9v17.8H46.2V77.7H9.5V65L47.1,9.7h16.7v53.9h10.3L74.2,77.7L74.2,77.7z M46.2,63.6V49
		c0-2.4,0.1-5.9,0.3-10.6c0.2-4.6,0.3-7.3,0.5-8h-0.5c-1.5,3.2-3.2,6.3-5.2,9.4L25.5,63.6H46.2z"/>
	<path d="M82.9,87c0-3.3,0.9-5.8,2.6-7.4s4.3-2.5,7.7-2.5c3.2,0,5.8,0.9,7.5,2.6s2.7,4.2,2.7,7.4c0,3.1-0.9,5.5-2.7,7.3
		C99,96.1,96.5,97,93.3,97c-3.3,0-5.8-0.9-7.6-2.6C83.8,92.7,82.9,90.2,82.9,87z"/>
	<path d="M144.7,8.5c8.2,0,14.8,1.9,19.9,5.6c5,3.7,7.5,8.8,7.5,15.1c0,4.4-1.2,8.3-3.6,11.7c-2.4,3.4-6.3,6.5-11.7,9.2
		c6.4,3.4,11,7,13.8,10.8c2.8,3.7,4.2,7.8,4.2,12.3c0,7-2.8,12.7-8.3,17s-12.8,6.4-21.8,6.4c-9.4,0-16.8-2-22.1-6c-5.4-4-8-9.6-8-17
		c0-4.9,1.3-9.2,3.9-13c2.6-3.8,6.8-7.1,12.5-10c-4.9-3.1-8.4-6.4-10.6-9.9s-3.2-7.4-3.2-11.6c0-6.1,2.5-11.1,7.6-14.9
		C129.9,10.4,136.5,8.5,144.7,8.5z M131.3,72.6c0,3.4,1.2,6,3.5,7.9s5.6,2.8,9.6,2.8c4.5,0,7.9-1,10.1-2.9c2.2-1.9,3.3-4.5,3.3-7.7
		c0-2.6-1.1-5.1-3.3-7.4c-2.2-2.3-5.8-4.7-10.8-7.3C135.5,61.9,131.3,66.7,131.3,72.6z M144.6,21.8c-3.1,0-5.6,0.8-7.5,2.4
		s-2.8,3.7-2.8,6.4c0,2.3,0.8,4.5,2.3,6.3c1.5,1.9,4.2,3.8,8.2,5.7c3.8-1.8,6.5-3.6,8-5.5s2.3-4,2.3-6.5c0-2.7-1-4.8-2.9-6.4
		C150.1,22.6,147.6,21.8,144.6,21.8z"/>
</g>
<g>
	<path d="M249,25.2c0,6-1.5,10.5-4.6,13.7s-7.4,4.8-13.1,4.8s-10.1-1.6-13.1-4.8s-4.6-7.8-4.6-13.8s1.5-10.6,4.6-13.7
		s7.4-4.7,13.1-4.7s10.1,1.6,13.1,4.8S249,19.2,249,25.2z M221.9,25.2c0,4,0.8,7,2.4,9.1s3.9,3,7.1,3c6.3,0,9.4-4,9.4-12.1
		S237.7,13,231.4,13c-3.1,0-5.5,1-7.1,3.1C222.7,18.1,221.9,21.1,221.9,25.2z"/>
	<path d="M276.2,43.2l-1-3.5h-0.4c-0.8,1.3-2,2.3-3.5,3s-3.3,1-5.2,1c-3.3,0-5.9-0.9-7.5-2.6s-2.5-4.2-2.5-7.5v-18h7.7v16.1
		c0,2,0.4,3.5,1.1,4.5s1.9,1.5,3.5,1.5c2.2,0,3.7-0.7,4.7-2.1c1-1.4,1.5-3.7,1.5-7v-13h7.7v27.5L276.2,43.2L276.2,43.2z"/>
	<path d="M302.2,37.7c1.4,0,3-0.3,4.9-0.9v5.6c-1.9,0.8-4.3,1.3-7.1,1.3c-3.1,0-5.4-0.8-6.8-2.3s-2.1-3.8-2.1-6.8V21.3h-3.7v-3.2
		l4.3-2.5l2.2-5.8h5v5.9h8v5.6h-8v13.3c0,1.1,0.3,1.9,0.9,2.4S301.2,37.7,302.2,37.7z"/>
	<path d="M352.1,29.4c0,4.5-1.2,8-3.7,10.5c-2.4,2.5-5.8,3.8-10.2,3.8c-2.7,0-5.1-0.6-7.2-1.7s-3.7-2.8-4.8-5s-1.7-4.7-1.7-7.6
		c0-4.5,1.2-8,3.6-10.5s5.8-3.7,10.2-3.7c2.7,0,5.1,0.6,7.2,1.7s3.7,2.8,4.8,5S352.1,26.5,352.1,29.4z M332.5,29.4
		c0,2.7,0.5,4.8,1.4,6.2c0.9,1.4,2.4,2.1,4.5,2.1s3.5-0.7,4.5-2.1c0.9-1.4,1.4-3.5,1.4-6.2s-0.5-4.8-1.4-6.1s-2.4-2-4.5-2
		s-3.5,0.7-4.5,2S332.5,26.7,332.5,29.4z"/>
	<path d="M374.2,21.3h-6.7v21.9h-7.7V21.3h-4.3v-3.6l4.3-2v-2c0-3.1,0.8-5.4,2.4-6.9c1.6-1.4,4.1-2.2,7.6-2.2c2.7,0,5,0.4,7.1,1.2
		l-2,5.5c-1.6-0.5-3-0.7-4.3-0.7c-1.1,0-1.9,0.3-2.4,0.9c-0.5,0.6-0.7,1.4-0.7,2.4v1.7h6.7V21.3L374.2,21.3z"/>
	<path d="M222,71.6c3.6,0,6.4,1,8.6,2.9c2.1,1.9,3.2,4.6,3.2,8c0,4-1.3,7.1-3.8,9.3s-6.2,3.2-11,3.2c-4.1,0-7.5-0.7-10-1.9v-6.6
		c1.3,0.7,2.9,1.2,4.7,1.7s3.5,0.7,5.1,0.7c4.8,0,7.2-1.9,7.2-5.7c0-3.6-2.5-5.4-7.4-5.4c-0.9,0-1.9,0.1-3,0.3
		c-1.1,0.2-2,0.4-2.6,0.6l-3.1-1.6l1.4-18.3h20.1v6.5h-13.2l-0.7,7.1l0.9-0.2C219.2,71.8,220.4,71.6,222,71.6z"/>
	<path d="M273.4,86.5c0,2.8-1,5-3,6.4s-5,2.2-9.1,2.2c-2.1,0-3.8-0.1-5.3-0.4c-1.5-0.3-2.8-0.7-4.1-1.2v-6.2
		c1.4,0.7,3.1,1.2,4.9,1.7c1.8,0.5,3.4,0.7,4.8,0.7c2.8,0,4.2-0.8,4.2-2.4c0-0.6-0.2-1.1-0.6-1.4s-1-0.8-1.9-1.3s-2.1-1-3.7-1.6
		c-2.2-0.9-3.8-1.7-4.8-2.5s-1.8-1.6-2.2-2.6c-0.5-1-0.7-2.2-0.7-3.6c0-2.4,1-4.3,2.9-5.7c2-1.3,4.7-2,8.3-2c3.4,0,6.8,0.7,10,2.2
		l-2.3,5.4c-1.4-0.6-2.8-1.1-4-1.4c-1.2-0.4-2.5-0.6-3.8-0.6c-2.3,0-3.4,0.6-3.4,1.8c0,0.7,0.4,1.3,1.1,1.8s2.4,1.2,4.8,2.2
		c2.2,0.9,3.8,1.7,4.9,2.4s1.8,1.6,2.3,2.6C273.2,83.9,273.4,85.1,273.4,86.5z"/>
	<path d="M291.4,89.2c1.4,0,3-0.3,4.9-0.9v5.6c-1.9,0.8-4.3,1.3-7.1,1.3c-3.1,0-5.4-0.8-6.8-2.3s-2.1-3.8-2.1-6.8V72.8h-3.7v-3.2
		l4.3-2.5l2.2-5.8h5v5.9h8v5.6h-8V86c0,1.1,0.3,1.9,0.9,2.4C289.6,88.9,290.4,89.2,291.4,89.2z"/>
	<path d="M320.1,94.6l-1.5-3.7h-0.2c-1.3,1.6-2.6,2.7-4,3.3c-1.4,0.6-3.2,0.9-5.4,0.9c-2.7,0-4.9-0.8-6.4-2.3s-2.4-3.7-2.4-6.4
		c0-2.9,1-5.1,3.2-6.5s5.3-2.2,9.5-2.3l4.9-0.2v-1.2c0-2.8-1.5-4.2-4.4-4.2c-2.3,0-4.9,0.7-8,2l-2.6-5.1c3.3-1.7,6.9-2.5,10.9-2.5
		c3.8,0,6.7,0.8,8.8,2.4s3,4.1,3,7.3v18.3L320.1,94.6L320.1,94.6z M317.8,81.9l-3,0.1c-2.2,0.1-3.9,0.5-5,1.2s-1.6,1.8-1.6,3.3
		c0,2.1,1.2,3.2,3.8,3.2c1.8,0,3.2-0.5,4.3-1.5c1.1-1,1.6-2.3,1.6-4L317.8,81.9L317.8,81.9z"/>
	<path d="M349.3,66.6c1,0,1.9,0.1,2.6,0.2l-0.6,7c-0.6-0.2-1.4-0.2-2.3-0.2c-2.5,0-4.4,0.6-5.8,1.8c-1.4,1.2-2.1,3-2.1,5.2v14h-7.7
		V67.1h5.9l1.1,4.6h0.4c0.9-1.5,2.1-2.8,3.6-3.7C345.9,67.1,347.5,66.6,349.3,66.6z"/>
	<path d="M376.9,86.5c0,2.8-1,5-3,6.4s-5,2.2-9.1,2.2c-2.1,0-3.8-0.1-5.3-0.4s-2.8-0.7-4.1-1.2v-6.2c1.4,0.7,3.1,1.2,4.9,1.7
		s3.4,0.7,4.8,0.7c2.8,0,4.2-0.8,4.2-2.4c0-0.6-0.2-1.1-0.6-1.4s-1-0.8-1.9-1.3s-2.1-1-3.7-1.6c-2.2-0.9-3.8-1.7-4.8-2.5
		s-1.8-1.6-2.2-2.6c-0.5-1-0.7-2.2-0.7-3.6c0-2.4,1-4.3,2.9-5.7s4.7-2,8.3-2c3.4,0,6.8,0.7,10,2.2l-2.3,5.4c-1.4-0.6-2.8-1.1-4-1.4
		c-1.2-0.4-2.5-0.6-3.8-0.6c-2.3,0-3.4,0.6-3.4,1.8c0,0.7,0.4,1.3,1.1,1.8s2.4,1.2,4.8,2.2c2.2,0.9,3.8,1.7,4.9,2.4s1.8,1.6,2.3,2.6
		C376.6,83.9,376.9,85.1,376.9,86.5z"/>
</g>
<g>
	<path d="M20.9,421.4c0,1.1-0.3,2.1-1,2.8s-1.6,1.3-2.8,1.6v0.1c1.4,0.2,2.5,0.6,3.3,1.3c0.7,0.7,1.1,1.6,1.1,2.8c0,1.7-0.6,3-1.9,4
		c-1.2,1-3,1.4-5.3,1.4c-1.9,0-3.6-0.3-5.1-1v-3.2c0.7,0.4,1.4,0.6,2.3,0.9s1.6,0.3,2.5,0.3c1.2,0,2.2-0.2,2.8-0.6s0.9-1.1,0.9-2
		c0-0.8-0.3-1.4-1-1.8s-1.8-0.5-3.3-0.5H12v-2.9h1.4c1.4,0,2.4-0.2,3-0.5s1-1,1-1.9c0-1.4-0.9-2-2.5-2c-0.6,0-1.2,0.1-1.8,0.3
		s-1.3,0.5-2,1l-1.8-2.6c1.6-1.2,3.6-1.8,5.8-1.8c1.9,0,3.3,0.4,4.4,1.1C20.3,419,20.9,420,20.9,421.4z"/>
	<path d="M41.6,430.2c0,1.6-0.6,2.9-1.7,3.8s-2.8,1.4-4.8,1.4c-1.9,0-3.6-0.4-5-1.1v-3.5c1.2,0.5,2.2,0.9,3.1,1.1
		c0.8,0.2,1.6,0.3,2.3,0.3c0.8,0,1.5-0.2,1.9-0.5s0.7-0.8,0.7-1.4c0-0.4-0.1-0.7-0.3-0.9c-0.2-0.3-0.5-0.5-0.9-0.8s-1.2-0.7-2.3-1.2
		s-1.9-1-2.5-1.5s-1-1-1.3-1.6s-0.5-1.4-0.5-2.2c0-1.6,0.5-2.8,1.6-3.7c1.1-0.9,2.6-1.4,4.4-1.4c0.9,0,1.8,0.1,2.7,0.3
		c0.8,0.2,1.7,0.5,2.6,0.9l-1.2,2.9c-1-0.4-1.7-0.7-2.4-0.8c-0.6-0.1-1.2-0.2-1.8-0.2c-0.7,0-1.3,0.2-1.7,0.5s-0.6,0.8-0.6,1.3
		c0,0.3,0.1,0.6,0.2,0.9c0.2,0.2,0.4,0.5,0.7,0.7s1.1,0.6,2.4,1.2c1.7,0.8,2.8,1.6,3.4,2.4C41.3,428.1,41.6,429.1,41.6,430.2z"/>
	<path d="M50.3,432.5c0.7,0,1.4-0.1,2.3-0.4v2.8c-0.9,0.4-2.1,0.6-3.4,0.6c-1.5,0-2.6-0.4-3.2-1.1s-1-1.9-1-3.4v-6.6h-1.8v-1.6
		l2-1.2l1.1-2.9h2.4v2.9h3.8v2.8h-3.8v6.6c0,0.5,0.2,0.9,0.5,1.2S49.8,432.5,50.3,432.5z"/>
	<path d="M64.1,435.2l-0.7-1.9h-0.1c-0.6,0.8-1.3,1.3-1.9,1.6c-0.7,0.3-1.5,0.5-2.6,0.5c-1.3,0-2.3-0.4-3.1-1.1s-1.1-1.8-1.1-3.2
		c0-1.5,0.5-2.5,1.5-3.2s2.5-1.1,4.6-1.1l2.4-0.1v-0.6c0-1.4-0.7-2.1-2.1-2.1c-1.1,0-2.4,0.3-3.8,1l-1.2-2.5
		c1.6-0.8,3.3-1.2,5.2-1.2c1.8,0,3.2,0.4,4.2,1.2c1,0.8,1.5,2,1.5,3.6v9.1L64.1,435.2L64.1,435.2z M63,428.9h-1.4
		c-1.1,0-1.9,0.2-2.4,0.6s-0.8,0.9-0.8,1.6c0,1,0.6,1.6,1.8,1.6c0.9,0,1.5-0.2,2.1-0.7s0.8-1.2,0.8-2L63,428.9L63,428.9z"/>
	<path d="M78.1,421.3c0.5,0,0.9,0,1.3,0.1l-0.3,3.5c-0.3-0.1-0.7-0.1-1.1-0.1c-1.2,0-2.1,0.3-2.8,0.9c-0.7,0.6-1,1.5-1,2.6v7h-3.7
		v-13.6h2.8l0.6,2.3h0.2c0.4-0.8,1-1.4,1.7-1.9C76.5,421.5,77.3,421.3,78.1,421.3z"/>
</g>
<path d="M563.1,435.2h-3.8v-10.3v-1.7l0.1-1.9c-0.6,0.6-1.1,1-1.3,1.2l-2,1.6l-1.8-2.3l5.8-4.6h3.1L563.1,435.2L563.1,435.2z"/>
<path d="M576.3,422.7c0,1.9-0.4,3.3-1.1,4.2c-0.7,0.9-1.8,1.4-3.2,1.4c-1.3,0-2.4-0.5-3.1-1.5c-0.7-1-1.1-2.4-1.1-4.2
	c0-3.7,1.4-5.6,4.2-5.6c1.4,0,2.4,0.5,3.2,1.5C576,419.5,576.3,420.9,576.3,422.7z M570.9,422.7c0,1,0.1,1.8,0.3,2.3
	s0.5,0.8,0.9,0.8c0.8,0,1.2-1,1.2-3.1c0-2-0.4-3-1.2-3c-0.4,0-0.7,0.2-0.9,0.8C571,420.9,570.9,421.7,570.9,422.7z M584.7,417.4
	l-9.9,17.9h-2.9l9.9-17.9H584.7z M588.8,429.8c0,1.9-0.4,3.3-1.1,4.2c-0.7,0.9-1.8,1.4-3.2,1.4c-1.3,0-2.4-0.5-3.1-1.5
	c-0.7-1-1.1-2.4-1.1-4.2c0-3.7,1.4-5.6,4.2-5.6c1.4,0,2.4,0.5,3.2,1.5C588.5,426.6,588.8,428,588.8,429.8z M583.4,429.8
	c0,1,0.1,1.8,0.3,2.3s0.5,0.8,0.9,0.8c0.8,0,1.2-1,1.2-3.1c0-2-0.4-3-1.2-3c-0.4,0-0.7,0.2-0.9,0.8
	C583.5,428,583.4,428.8,583.4,429.8z"/>
<g>
	<g>
		<path class="st1" d="M510.6,451.2H110c-5.7,0-10.3-4.6-10.3-10.3v-24.6c0-5.7,4.6-10.3,10.3-10.3h400.6c5.7,0,10.3,4.6,10.3,10.3
			v24.6C521,446.6,516.3,451.2,510.6,451.2z"/>
	</g>
	<g>
		<path class="st0" d="M248.4,451.2H109.6c-5.7,0-10.3-4.6-10.3-10.3v-24.6c0-5.7,4.6-10.3,10.3-10.3h138.8
			c5.7,0,10.3,4.6,10.3,10.3v24.6C258.8,446.6,254.1,451.2,248.4,451.2z"/>
	</g>
	<g>
		<rect x="110.3" y="406" class="st1" width="370.1" height="45.3"/>
	</g>
</g>
<g>
	<path d="M21.6,504.9H9.1v-2.6l4.5-4.5c1.3-1.4,2.2-2.3,2.6-2.8c0.4-0.5,0.7-1,0.9-1.5c0.2-0.5,0.3-0.9,0.3-1.4
		c0-0.7-0.2-1.2-0.6-1.6s-0.9-0.5-1.6-0.5c-0.7,0-1.4,0.2-2,0.5s-1.3,0.8-2,1.4L9,489.3c0.9-0.8,1.6-1.3,2.2-1.6
		c0.6-0.3,1.2-0.5,1.9-0.7s1.4-0.2,2.3-0.2c1.1,0,2.1,0.2,3,0.6s1.5,1,2,1.7s0.7,1.6,0.7,2.5c0,0.8-0.1,1.6-0.4,2.3
		c-0.3,0.7-0.7,1.5-1.3,2.2c-0.6,0.8-1.7,1.8-3.2,3.2l-2.3,2.2v0.2h7.8L21.6,504.9L21.6,504.9z"/>
	<path d="M41.6,499.9c0,1.6-0.6,2.9-1.7,3.8s-2.8,1.4-4.8,1.4c-1.9,0-3.6-0.4-5-1.1v-3.5c1.2,0.5,2.2,0.9,3.1,1.1
		c0.8,0.2,1.6,0.3,2.3,0.3c0.8,0,1.5-0.2,1.9-0.5s0.7-0.8,0.7-1.4c0-0.4-0.1-0.7-0.3-0.9c-0.2-0.3-0.5-0.5-0.9-0.8s-1.2-0.7-2.3-1.2
		s-1.9-1-2.5-1.5s-1-1-1.3-1.6s-0.5-1.4-0.5-2.2c0-1.6,0.5-2.8,1.6-3.7c1.1-0.9,2.6-1.4,4.4-1.4c0.9,0,1.8,0.1,2.7,0.3
		c0.8,0.2,1.7,0.5,2.6,0.9l-1.2,2.9c-1-0.4-1.7-0.7-2.4-0.8c-0.6-0.1-1.2-0.2-1.8-0.2c-0.7,0-1.3,0.2-1.7,0.5s-0.6,0.8-0.6,1.3
		c0,0.3,0.1,0.6,0.2,0.9c0.2,0.2,0.4,0.5,0.7,0.7s1.1,0.6,2.4,1.2c1.7,0.8,2.8,1.6,3.4,2.4C41.3,497.8,41.6,498.7,41.6,499.9z"/>
	<path d="M50.3,502.1c0.7,0,1.4-0.1,2.3-0.4v2.8c-0.9,0.4-2.1,0.6-3.4,0.6c-1.5,0-2.6-0.4-3.2-1.1s-1-1.9-1-3.4V494h-1.8v-1.6l2-1.2
		l1.1-2.9h2.4v2.9h3.8v2.8h-3.8v6.6c0,0.5,0.2,0.9,0.5,1.2S49.8,502.1,50.3,502.1z"/>
	<path d="M64.1,504.9l-0.7-1.9h-0.1c-0.6,0.8-1.3,1.3-1.9,1.6c-0.7,0.3-1.5,0.5-2.6,0.5c-1.3,0-2.3-0.4-3.1-1.1s-1.1-1.8-1.1-3.2
		c0-1.5,0.5-2.5,1.5-3.2s2.5-1.1,4.6-1.1l2.4-0.1v-0.6c0-1.4-0.7-2.1-2.1-2.1c-1.1,0-2.4,0.3-3.8,1l-1.2-2.5
		c1.6-0.8,3.3-1.2,5.2-1.2c1.8,0,3.2,0.4,4.2,1.2c1,0.8,1.5,2,1.5,3.6v9.1L64.1,504.9L64.1,504.9z M63,498.5h-1.4
		c-1.1,0-1.9,0.2-2.4,0.6s-0.8,0.9-0.8,1.6c0,1,0.6,1.6,1.8,1.6c0.9,0,1.5-0.2,2.1-0.7s0.8-1.2,0.8-2L63,498.5L63,498.5z"/>
	<path d="M78.1,490.9c0.5,0,0.9,0,1.3,0.1l-0.3,3.5c-0.3-0.1-0.7-0.1-1.1-0.1c-1.2,0-2.1,0.3-2.8,0.9c-0.7,0.6-1,1.5-1,2.6v7h-3.7
		v-13.6h2.8l0.6,2.3h0.2c0.4-0.8,1-1.4,1.7-1.9C76.5,491.2,77.3,490.9,78.1,490.9z"/>
</g>
<path d="M563.1,504.9h-3.8v-10.3v-1.7l0.1-1.9c-0.6,0.6-1.1,1-1.3,1.2l-2,1.6l-1.8-2.3l5.8-4.6h3.1L563.1,504.9L563.1,504.9z"/>
<path d="M576.3,492.3c0,1.9-0.4,3.3-1.1,4.2c-0.7,0.9-1.8,1.4-3.2,1.4c-1.3,0-2.4-0.5-3.1-1.5c-0.7-1-1.1-2.4-1.1-4.2
	c0-3.7,1.4-5.6,4.2-5.6c1.4,0,2.4,0.5,3.2,1.5C576,489.2,576.3,490.5,576.3,492.3z M570.9,492.4c0,1,0.1,1.8,0.3,2.3
	s0.5,0.8,0.9,0.8c0.8,0,1.2-1,1.2-3.1c0-2-0.4-3-1.2-3c-0.4,0-0.7,0.2-0.9,0.8C571,490.5,570.9,491.3,570.9,492.4z M584.7,487
	l-9.9,17.9h-2.9l9.9-17.9H584.7z M588.8,499.5c0,1.9-0.4,3.3-1.1,4.2c-0.7,0.9-1.8,1.4-3.2,1.4c-1.3,0-2.4-0.5-3.1-1.5
	c-0.7-1-1.1-2.4-1.1-4.2c0-3.7,1.4-5.6,4.2-5.6c1.4,0,2.4,0.5,3.2,1.5S588.8,497.7,588.8,499.5z M583.4,499.5c0,1,0.1,1.8,0.3,2.3
	s0.5,0.8,0.9,0.8c0.8,0,1.2-1,1.2-3.1c0-2-0.4-3-1.2-3c-0.4,0-0.7,0.2-0.9,0.8C583.5,497.7,583.4,498.4,583.4,499.5z"/>
<g>
	<g>
		<path class="st1" d="M510.6,520.9H110c-5.7,0-10.3-4.6-10.3-10.3V486c0-5.7,4.6-10.3,10.3-10.3h400.6c5.7,0,10.3,4.6,10.3,10.3
			v24.6C521,516.3,516.3,520.9,510.6,520.9z"/>
	</g>
	<g>
		<path class="st0" d="M248.4,520.9H109.6c-5.7,0-10.3-4.6-10.3-10.3V486c0-5.7,4.6-10.3,10.3-10.3h138.8c5.7,0,10.3,4.6,10.3,10.3
			v24.6C258.8,516.3,254.1,520.9,248.4,520.9z"/>
	</g>
	<g>
		<rect x="110.3" y="475.6" class="st1" width="370.1" height="45.3"/>
	</g>
</g>
<g>
	<path d="M18.4,574.5h-3.8v-10.3v-1.7l0.1-1.9c-0.6,0.6-1.1,1-1.3,1.2l-2.1,1.7l-1.8-2.3l5.8-4.6h3.1V574.5z"/>
	<path d="M41.6,569.5c0,1.6-0.6,2.9-1.7,3.8s-2.8,1.4-4.8,1.4c-1.9,0-3.6-0.4-5-1.1v-3.5c1.2,0.5,2.2,0.9,3.1,1.1
		c0.8,0.2,1.6,0.3,2.3,0.3c0.8,0,1.5-0.2,1.9-0.5s0.7-0.8,0.7-1.4c0-0.3-0.1-0.7-0.3-0.9c-0.2-0.3-0.5-0.5-0.9-0.8s-1.2-0.7-2.3-1.2
		s-1.9-1-2.5-1.5s-1-1-1.3-1.7s-0.5-1.4-0.5-2.2c0-1.6,0.5-2.8,1.6-3.7s2.6-1.4,4.4-1.4c0.9,0,1.8,0.1,2.7,0.3
		c0.8,0.2,1.7,0.5,2.6,0.9l-1.2,2.9c-1-0.4-1.7-0.7-2.4-0.8c-0.6-0.2-1.2-0.2-1.8-0.2c-0.7,0-1.3,0.2-1.7,0.5s-0.6,0.8-0.6,1.3
		c0,0.3,0.1,0.6,0.2,0.9c0.2,0.2,0.4,0.5,0.7,0.7s1.1,0.7,2.4,1.2c1.7,0.8,2.8,1.6,3.4,2.4C41.3,567.4,41.6,568.4,41.6,569.5z"/>
	<path d="M50.3,571.8c0.7,0,1.4-0.1,2.3-0.4v2.8c-0.9,0.4-2.1,0.6-3.4,0.6c-1.5,0-2.6-0.4-3.2-1.1s-1-1.9-1-3.4v-6.6h-1.8V562l2-1.2
		l1.1-2.9h2.4v2.9h3.8v2.8h-3.8v6.6c0,0.5,0.2,0.9,0.5,1.2S49.8,571.8,50.3,571.8z"/>
	<path d="M64.1,574.5l-0.7-1.9h-0.1c-0.6,0.8-1.3,1.3-1.9,1.6c-0.7,0.3-1.5,0.5-2.6,0.5c-1.3,0-2.3-0.4-3.1-1.1s-1.1-1.8-1.1-3.2
		c0-1.5,0.5-2.5,1.5-3.2s2.5-1.1,4.6-1.1L63,566v-0.6c0-1.4-0.7-2.1-2.1-2.1c-1.1,0-2.4,0.3-3.8,1l-1.2-2.5c1.6-0.8,3.3-1.2,5.2-1.2
		c1.8,0,3.2,0.4,4.2,1.2s1.5,2,1.5,3.6v9.1H64.1L64.1,574.5z M63,568.2h-1.4c-1.1,0-1.9,0.2-2.4,0.6s-0.8,0.9-0.8,1.6
		c0,1,0.6,1.6,1.8,1.6c0.9,0,1.5-0.2,2.1-0.7s0.8-1.2,0.8-2L63,568.2L63,568.2z"/>
	<path d="M78.1,560.6c0.5,0,0.9,0,1.3,0.1l-0.3,3.5c-0.3-0.1-0.7-0.1-1.1-0.1c-1.2,0-2.1,0.3-2.8,0.9c-0.7,0.6-1,1.5-1,2.6v7h-3.7
		v-13.7h2.8l0.6,2.3h0.2c0.4-0.8,1-1.4,1.7-1.8C76.5,560.8,77.3,560.6,78.1,560.6z"/>
</g>
<path d="M563.1,574.5h-3.8v-10.3v-1.7l0.1-1.9c-0.6,0.6-1.1,1-1.3,1.2l-2,1.7l-1.8-2.3l5.8-4.6h3.1L563.1,574.5L563.1,574.5z"/>
<path d="M576.3,562c0,1.9-0.4,3.3-1.1,4.2c-0.7,0.9-1.8,1.4-3.2,1.4c-1.3,0-2.4-0.5-3.1-1.5c-0.7-1-1.1-2.4-1.1-4.2
	c0-3.7,1.4-5.6,4.2-5.6c1.4,0,2.4,0.5,3.2,1.5C576,558.8,576.3,560.2,576.3,562z M570.9,562c0,1,0.1,1.8,0.3,2.3s0.5,0.8,0.9,0.8
	c0.8,0,1.2-1,1.2-3.1c0-2-0.4-3-1.2-3c-0.4,0-0.7,0.2-0.9,0.8S570.9,561,570.9,562z M584.7,556.6l-9.9,17.8h-2.9l9.9-17.8H584.7z
	 M588.8,569.1c0,1.9-0.4,3.3-1.1,4.2c-0.7,0.9-1.8,1.4-3.2,1.4c-1.3,0-2.4-0.5-3.1-1.5c-0.7-1-1.1-2.3-1.1-4.2
	c0-3.7,1.4-5.6,4.2-5.6c1.4,0,2.4,0.5,3.2,1.5C588.5,565.9,588.8,567.3,588.8,569.1z M583.4,569.1c0,1,0.1,1.8,0.3,2.3
	s0.5,0.8,0.9,0.8c0.8,0,1.2-1,1.2-3.1c0-2-0.4-3-1.2-3c-0.4,0-0.7,0.2-0.9,0.8C583.5,567.3,583.4,568.1,583.4,569.1z"/>
<g>
	<g>
		<path class="st1" d="M510.6,590.5H110c-5.7,0-10.3-4.6-10.3-10.3v-24.6c0-5.7,4.6-10.3,10.3-10.3h400.6c5.7,0,10.3,4.6,10.3,10.3
			v24.6C521,585.9,516.3,590.5,510.6,590.5z"/>
	</g>
	<g>
		<path class="st0" d="M248.4,590.5H109.6c-5.7,0-10.3-4.6-10.3-10.3v-24.6c0-5.7,4.6-10.3,10.3-10.3h138.8
			c5.7,0,10.3,4.6,10.3,10.3v24.6C258.8,585.9,254.1,590.5,248.4,590.5z"/>
	</g>
	<g>
		<rect x="110.3" y="545.2" class="st1" width="370.1" height="45.3"/>
	</g>
</g>
<g>
	<path d="M22,361.9h-2.1v3.7h-3.7v-3.7H8.5v-2.6l7.8-11.5h3.5V359H22V361.9z M16.1,358.9v-3c0-0.5,0-1.2,0.1-2.2
		c0-1,0.1-1.5,0.1-1.7h-0.1c-0.3,0.7-0.7,1.3-1.1,2l-3.3,4.9L16.1,358.9L16.1,358.9z"/>
	<path d="M41.6,360.6c0,1.6-0.6,2.9-1.7,3.8s-2.8,1.4-4.8,1.4c-1.9,0-3.6-0.4-5-1.1v-3.5c1.2,0.5,2.2,0.9,3.1,1.1
		c0.8,0.2,1.6,0.3,2.3,0.3c0.8,0,1.5-0.2,1.9-0.5s0.7-0.8,0.7-1.4c0-0.4-0.1-0.7-0.3-0.9c-0.2-0.3-0.5-0.5-0.9-0.8s-1.2-0.7-2.3-1.2
		s-1.9-1-2.5-1.5s-1-1-1.3-1.6s-0.5-1.4-0.5-2.2c0-1.6,0.5-2.8,1.6-3.7c1.1-0.9,2.6-1.4,4.4-1.4c0.9,0,1.8,0.1,2.7,0.3
		c0.8,0.2,1.7,0.5,2.6,0.9l-1.2,2.9c-1-0.4-1.7-0.7-2.4-0.8c-0.6-0.1-1.2-0.2-1.8-0.2c-0.7,0-1.3,0.2-1.7,0.5s-0.6,0.8-0.6,1.3
		c0,0.3,0.1,0.6,0.2,0.9c0.2,0.2,0.4,0.5,0.7,0.7s1.1,0.6,2.4,1.2c1.7,0.8,2.8,1.6,3.4,2.4C41.3,358.5,41.6,359.5,41.6,360.6z"/>
	<path d="M50.3,362.9c0.7,0,1.4-0.1,2.3-0.4v2.8c-0.9,0.4-2.1,0.6-3.4,0.6c-1.5,0-2.6-0.4-3.2-1.1s-1-1.9-1-3.4v-6.6h-1.8v-1.6
		l2-1.2l1.1-2.9h2.4v2.9h3.8v2.8h-3.8v6.6c0,0.5,0.2,0.9,0.5,1.2S49.8,362.9,50.3,362.9z"/>
	<path d="M64.1,365.6l-0.7-1.9h-0.1c-0.6,0.8-1.3,1.3-1.9,1.6c-0.7,0.3-1.5,0.5-2.6,0.5c-1.3,0-2.3-0.4-3.1-1.1s-1.1-1.8-1.1-3.2
		c0-1.5,0.5-2.5,1.5-3.2s2.5-1.1,4.6-1.1l2.4-0.1v-0.6c0-1.4-0.7-2.1-2.1-2.1c-1.1,0-2.4,0.3-3.8,1l-1.2-2.5
		c1.6-0.8,3.3-1.2,5.2-1.2c1.8,0,3.2,0.4,4.2,1.2c1,0.8,1.5,2,1.5,3.6v9.1L64.1,365.6L64.1,365.6z M63,359.2h-1.4
		c-1.1,0-1.9,0.2-2.4,0.6s-0.8,0.9-0.8,1.6c0,1,0.6,1.6,1.8,1.6c0.9,0,1.5-0.2,2.1-0.7s0.8-1.2,0.8-2L63,359.2L63,359.2z"/>
	<path d="M78.1,351.7c0.5,0,0.9,0,1.3,0.1l-0.3,3.5c-0.3-0.1-0.7-0.1-1.1-0.1c-1.2,0-2.1,0.3-2.8,0.9c-0.7,0.6-1,1.5-1,2.6v7h-3.7
		v-13.6h2.8l0.6,2.3h0.2c0.4-0.8,1-1.4,1.7-1.9C76.5,351.9,77.3,351.7,78.1,351.7z"/>
</g>
<path d="M560.3,354.2c1.7,0,3.1,0.5,4.1,1.5s1.5,2.3,1.5,4c0,2-0.6,3.5-1.8,4.6s-3,1.6-5.3,1.6c-2,0-3.6-0.3-4.8-1v-3.3
	c0.6,0.3,1.4,0.6,2.2,0.8c0.8,0.2,1.7,0.3,2.4,0.3c2.3,0,3.5-0.9,3.5-2.8c0-1.8-1.2-2.7-3.6-2.7c-0.4,0-0.9,0-1.4,0.1
	s-0.9,0.2-1.3,0.3l-1.5-0.8l0.7-9.1h9.7v3.2h-6.4l-0.3,3.5l0.4-0.1C558.9,354.2,559.6,354.2,560.3,354.2z"/>
<path d="M576.3,353c0,1.9-0.4,3.3-1.1,4.2c-0.7,0.9-1.8,1.4-3.2,1.4c-1.3,0-2.4-0.5-3.1-1.5c-0.7-1-1.1-2.4-1.1-4.2
	c0-3.7,1.4-5.6,4.2-5.6c1.4,0,2.4,0.5,3.2,1.5C576,349.9,576.3,351.3,576.3,353z M570.9,353.1c0,1,0.1,1.8,0.3,2.3s0.5,0.8,0.9,0.8
	c0.8,0,1.2-1,1.2-3.1c0-2-0.4-3-1.2-3c-0.4,0-0.7,0.2-0.9,0.8C571,351.3,570.9,352,570.9,353.1z M584.7,347.7l-9.9,17.9h-2.9
	l9.9-17.9H584.7z M588.8,360.2c0,1.9-0.4,3.3-1.1,4.2c-0.7,0.9-1.8,1.4-3.2,1.4c-1.3,0-2.4-0.5-3.1-1.5c-0.7-1-1.1-2.4-1.1-4.2
	c0-3.7,1.4-5.6,4.2-5.6c1.4,0,2.4,0.5,3.2,1.5C588.5,357,588.8,358.4,588.8,360.2z M583.4,360.2c0,1,0.1,1.8,0.3,2.3
	s0.5,0.8,0.9,0.8c0.8,0,1.2-1,1.2-3.1c0-2-0.4-3-1.2-3c-0.4,0-0.7,0.2-0.9,0.8C583.5,358.4,583.4,359.2,583.4,360.2z"/>
<g>
	<g>
		<path class="st1" d="M510.6,381.5H110c-5.7,0-10.3-4.6-10.3-10.3v-24.6c0-5.7,4.6-10.3,10.3-10.3h400.6c5.7,0,10.3,4.6,10.3,10.3
			v24.6C521,376.9,516.3,381.5,510.6,381.5z"/>
	</g>
	<g>
		<path class="st0" d="M248.4,381.7H109.6c-5.7,0-10.3-4.6-10.3-10.3v-24.6c0-5.7,4.6-10.3,10.3-10.3h138.8
			c5.7,0,10.3,4.6,10.3,10.3v24.6C258.8,377.1,254.1,381.7,248.4,381.7z"/>
	</g>
	<g>
		<rect x="124.3" y="336.4" class="st1" width="345.5" height="45.3"/>
	</g>
</g>
<g>
	<path d="M15.6,281.9c1.7,0,3.1,0.5,4.1,1.5s1.5,2.3,1.5,4c0,2-0.6,3.5-1.8,4.6s-3,1.6-5.3,1.6c-2,0-3.6-0.3-4.8-1v-3.3
		c0.6,0.3,1.4,0.6,2.2,0.8c0.9,0.2,1.7,0.3,2.4,0.3c2.3,0,3.5-0.9,3.5-2.8c0-1.8-1.2-2.7-3.6-2.7c-0.4,0-0.9,0-1.4,0.1
		s-0.9,0.2-1.3,0.3l-1.5-0.8l0.7-9.1H20v3.2h-6.4l-0.3,3.5l0.4-0.1C14.2,281.9,14.9,281.9,15.6,281.9z"/>
	<path d="M41.6,288.3c0,1.6-0.6,2.9-1.7,3.8s-2.8,1.4-4.8,1.4c-1.9,0-3.6-0.4-5-1.1v-3.5c1.2,0.5,2.2,0.9,3.1,1.1
		c0.8,0.2,1.6,0.3,2.3,0.3c0.8,0,1.5-0.2,1.9-0.5s0.7-0.8,0.7-1.4c0-0.4-0.1-0.7-0.3-0.9c-0.2-0.3-0.5-0.5-0.9-0.8s-1.2-0.7-2.3-1.2
		s-1.9-1-2.5-1.5s-1-1-1.3-1.6s-0.5-1.4-0.5-2.2c0-1.6,0.5-2.8,1.6-3.7c1.1-0.9,2.6-1.4,4.4-1.4c0.9,0,1.8,0.1,2.7,0.3
		c0.8,0.2,1.7,0.5,2.6,0.9l-1.2,2.9c-1-0.4-1.7-0.7-2.4-0.8c-0.6-0.1-1.2-0.2-1.8-0.2c-0.7,0-1.3,0.2-1.7,0.5s-0.6,0.8-0.6,1.3
		c0,0.3,0.1,0.6,0.2,0.9c0.2,0.2,0.4,0.5,0.7,0.7s1.1,0.6,2.4,1.2c1.7,0.8,2.8,1.6,3.4,2.4C41.3,286.2,41.6,287.1,41.6,288.3z"/>
	<path d="M50.3,290.5c0.7,0,1.4-0.1,2.3-0.4v2.8c-0.9,0.4-2.1,0.6-3.4,0.6c-1.5,0-2.6-0.4-3.2-1.1s-1-1.9-1-3.4v-6.6h-1.8v-1.6
		l2-1.2l1.1-2.9h2.4v2.9h3.8v2.8h-3.8v6.6c0,0.5,0.2,0.9,0.5,1.2S49.8,290.5,50.3,290.5z"/>
	<path d="M64.1,293.3l-0.7-1.9h-0.1c-0.6,0.8-1.3,1.3-1.9,1.6c-0.7,0.3-1.5,0.5-2.6,0.5c-1.3,0-2.3-0.4-3.1-1.1s-1.1-1.8-1.1-3.2
		c0-1.5,0.5-2.5,1.5-3.2s2.5-1.1,4.6-1.1l2.4-0.1v-0.6c0-1.4-0.7-2.1-2.1-2.1c-1.1,0-2.4,0.3-3.8,1l-1.2-2.5
		c1.6-0.8,3.3-1.2,5.2-1.2c1.8,0,3.2,0.4,4.2,1.2c1,0.8,1.5,2,1.5,3.6v9.1L64.1,293.3L64.1,293.3z M63,287h-1.4
		c-1.1,0-1.9,0.2-2.4,0.6s-0.8,0.9-0.8,1.6c0,1,0.6,1.6,1.8,1.6c0.9,0,1.5-0.2,2.1-0.7s0.8-1.2,0.8-2L63,287L63,287z"/>
	<path d="M78.1,279.4c0.5,0,0.9,0,1.3,0.1l-0.3,3.5c-0.3-0.1-0.7-0.1-1.1-0.1c-1.2,0-2.1,0.3-2.8,0.9c-0.7,0.6-1,1.5-1,2.6v7h-3.7
		v-13.6h2.8l0.6,2.3h0.2c0.4-0.8,1-1.4,1.7-1.9C76.5,279.6,77.3,279.4,78.1,279.4z"/>
</g>
<path d="M551.9,283c0,3.5-0.7,6.1-2.2,7.9c-1.5,1.7-3.7,2.6-6.7,2.6c-1.1,0-1.9-0.1-2.4-0.2v-3c0.7,0.2,1.4,0.3,2.2,0.3
	c1.3,0,2.3-0.2,3.1-0.6s1.4-1,1.9-1.8c0.4-0.8,0.7-1.9,0.7-3.3h-0.2c-0.5,0.8-1,1.3-1.6,1.6c-0.6,0.3-1.4,0.5-2.3,0.5
	c-1.5,0-2.8-0.5-3.7-1.5s-1.3-2.4-1.3-4.2c0-1.9,0.5-3.4,1.6-4.5s2.6-1.7,4.4-1.7c1.3,0,2.5,0.3,3.5,0.9s1.8,1.5,2.3,2.7
	C551.7,280,551.9,281.4,551.9,283z M545.5,278.2c-0.8,0-1.4,0.3-1.8,0.8s-0.7,1.3-0.7,2.3c0,0.9,0.2,1.5,0.6,2
	c0.4,0.5,1,0.8,1.8,0.8s1.4-0.2,2-0.8c0.5-0.5,0.8-1.1,0.8-1.7c0-1-0.2-1.8-0.8-2.5C546.9,278.6,546.3,278.2,545.5,278.2z"/>
<path d="M563.1,293.3h-3.8V283v-1.7l0.1-1.9c-0.6,0.6-1.1,1-1.3,1.2l-2,1.6l-1.8-2.3l5.8-4.6h3.1L563.1,293.3L563.1,293.3z"/>
<path d="M576.3,280.8c0,1.9-0.4,3.3-1.1,4.2c-0.7,0.9-1.8,1.4-3.2,1.4c-1.3,0-2.4-0.5-3.1-1.5c-0.7-1-1.1-2.4-1.1-4.2
	c0-3.7,1.4-5.6,4.2-5.6c1.4,0,2.4,0.5,3.2,1.5C576,277.6,576.3,279,576.3,280.8z M570.9,280.8c0,1,0.1,1.8,0.3,2.3s0.5,0.8,0.9,0.8
	c0.8,0,1.2-1,1.2-3.1c0-2-0.4-3-1.2-3c-0.4,0-0.7,0.2-0.9,0.8C571,279,570.9,279.7,570.9,280.8z M584.7,275.4l-9.9,17.9h-2.9
	l9.9-17.9H584.7z M588.8,287.9c0,1.9-0.4,3.3-1.1,4.2c-0.7,0.9-1.8,1.4-3.2,1.4c-1.3,0-2.4-0.5-3.1-1.5c-0.7-1-1.1-2.4-1.1-4.2
	c0-3.7,1.4-5.6,4.2-5.6c1.4,0,2.4,0.5,3.2,1.5C588.5,284.7,588.8,286.1,588.8,287.9z M583.4,287.9c0,1,0.1,1.8,0.3,2.3
	s0.5,0.8,0.9,0.8c0.8,0,1.2-1,1.2-3.1c0-2-0.4-3-1.2-3c-0.4,0-0.7,0.2-0.9,0.8C583.5,286.1,583.4,286.9,583.4,287.9z"/>
<g>
	<g>
		<path class="st1" d="M510.6,309.4H110c-5.7,0-10.3-4.6-10.3-10.3v-24.6c0-5.7,4.6-10.3,10.3-10.3h400.6c5.7,0,10.3,4.6,10.3,10.3
			V299C521,304.7,516.3,309.4,510.6,309.4z"/>
	</g>
	<g>
		<path class="st0" d="M488.8,309.4H109.6c-5.7,0-10.3-4.6-10.3-10.3v-24.6c0-5.7,4.6-10.3,10.3-10.3h379.1
			c5.7,0,10.3,4.6,10.3,10.3V299C499.1,304.7,494.5,309.4,488.8,309.4z"/>
	</g>
	<g>
		<rect x="486.2" y="264" class="st1" width="18.8" height="45.3"/>
	</g>
</g>
<rect x="9.5" y="188" class="st2" width="421.8" height="68.7"/>
</svg>
