<?xml version="1.0" encoding="utf-8"?>
<!-- Generator: Adobe Illustrator 24.3.0, SVG Export Plug-In . SVG Version: 6.00 Build 0)  -->
<svg version="1.1" id="Layer_1" xmlns="http://www.w3.org/2000/svg" xmlns:xlink="http://www.w3.org/1999/xlink" x="0px" y="0px"
	 viewBox="0 0 600 180" style="enable-background:new 0 0 600 180;" xml:space="preserve">
<style type="text/css">
	.st0{fill:#FFFFFF;}
	.st1{font-family:'OpenSans-Semibold';}
	.st2{font-size:61.172px;}
	.st3{font-size:26.4756px;}
	.st4{font-size:24px;}
	.st5{fill:none;stroke:#B5B5B5;stroke-miterlimit:10;}
	.st6{fill:#FFCB2B;}
</style>
<path class="st0" d="M583.1,176H17.9C10.8,176,5,170.2,5,163.1l0,0V16.9C5,9.8,10.8,4,17.9,4c0,0,0,0,0,0h565.2
	c7.1,0,12.9,5.8,12.9,12.9v146.2C596,170.2,590.2,176,583.1,176z"/>
<text transform="matrix(1 0 0 1 31.3496 162.8184)" class="st1 st2">4.8</text>
<g>
	<text transform="matrix(1 0 0 1 136.1733 135.1846)" class="st1 st3">Out of</text>
	<text transform="matrix(1 0 0 1 134.0533 162.1846)" class="st1 st3">5 stars</text>
</g>
<text transform="matrix(1 0 0 1 243.9514 147.5786)" class="st1 st4">729 Reviews</text>
<line class="st5" x1="232.8" y1="110" x2="232.8" y2="170"/>
<polygon class="st6" points="421.9,150.6 413.1,145.9 404.3,150.6 405.9,140.8 398.8,133.9 408.6,132.4 413,123.4 417.5,132.3 
	427.3,133.7 420.2,140.7 "/>
<polygon class="st6" points="457.9,150.6 449,145.9 440.2,150.6 441.9,140.8 434.7,133.9 444.6,132.4 448.9,123.4 453.4,132.3 
	463.3,133.7 456.1,140.7 "/>
<polygon class="st6" points="493.8,150.6 485,145.9 476.2,150.6 477.8,140.8 470.6,133.9 480.5,132.4 484.9,123.4 489.3,132.3 
	499.2,133.7 492.1,140.7 "/>
<polygon class="st6" points="529.7,150.6 520.9,145.9 512.1,150.6 513.7,140.8 506.6,133.9 516.4,132.4 520.8,123.4 525.2,132.3 
	535.1,133.7 528,140.7 "/>
<polygon class="st6" points="565.7,150.6 556.8,145.9 548,150.6 549.7,140.8 542.5,133.9 552.4,132.4 556.7,123.4 561.2,132.3 
	571.1,133.7 564,140.7 "/>
<path d="M32.9,48.2c-1.4,0-2.6-1.1-2.6-2.6s1.1-2.6,2.6-2.6c0,0,0,0,0,0h23.9c1.4,0,2.6,1.1,2.6,2.6c0,1.4-1.1,2.6-2.6,2.6
	c0,0,0,0,0,0h-8.4c-0.2,0-0.5,0.1-0.5,0.4c0,0,0,0.1,0,0.1v32.1c0,0.8-0.3,1.6-0.9,2.2c-0.6,0.6-1.4,0.9-2.2,0.9
	c-0.8,0-1.6-0.3-2.2-0.9c-0.6-0.6-0.9-1.4-0.9-2.2V48.7c0-0.2-0.1-0.5-0.4-0.5c0,0-0.1,0-0.1,0H32.9z"/>
<path d="M72.4,82.9c-0.6,0.6-1.4,0.9-2.2,0.9c-0.8,0-1.6-0.3-2.2-0.9c-0.6-0.6-0.9-1.4-0.9-2.2V46.5c0-0.9,0.3-1.8,0.9-2.4
	c0.6-0.7,1.4-1.1,2.3-1.2c2.7-0.3,5.3-0.4,8-0.5c5.4,0,9.4,1,12.1,3c2.7,1.9,4.2,5,4.1,8.2c0.1,2.6-0.7,5.1-2.2,7.2
	c-1.5,2-3.5,3.5-5.9,4.2c0,0-0.1,0-0.1,0c0,0,0,0,0,0c0,0.1,0,0.1,0.1,0.1c1.6,1.1,3.1,3.3,4.4,6.6l3.6,9.1c0.3,0.7,0.2,1.4-0.2,2
	c-0.4,0.6-1.1,1-1.8,0.9c-1.9,0-3.6-1.2-4.3-3l-3.5-9.1c-0.8-2-1.6-3.3-2.6-3.9c-1-0.6-2.8-0.9-5.4-0.9h-2.8c-0.2,0-0.5,0.1-0.5,0.4
	c0,0,0,0.1,0,0.1v13.2C73.3,81.6,73,82.4,72.4,82.9z M73.3,48.3v13.5c0,0.2,0.1,0.5,0.4,0.5c0,0,0.1,0,0.1,0h2.8
	c7.9,0,11.8-2.7,11.8-8c0.1-2-0.8-4-2.5-5.1c-1.7-1.1-4.4-1.7-8.2-1.7c-1.4,0-2.7,0.1-4,0.3C73.5,47.8,73.3,48,73.3,48.3z"/>
<path d="M115,84.4c-9.7,0-14.5-4.9-14.5-14.8V46.2c0-0.8,0.3-1.6,0.9-2.2c0.6-0.6,1.4-0.9,2.2-0.9c0.8,0,1.6,0.3,2.2,0.9
	c0.6,0.6,0.9,1.4,0.9,2.2v23.7c0,3.3,0.7,5.7,2,7.2c1.4,1.5,3.5,2.2,6.3,2.2c2.9,0,5-0.7,6.3-2.2c1.4-1.5,2-3.9,2-7.2V46
	c0-0.8,0.3-1.6,0.9-2.1c0.6-0.6,1.3-0.9,2.1-0.9c0.8,0,1.6,0.3,2.1,0.9c0.6,0.6,0.9,1.3,0.9,2.1v23.5
	C129.5,79.5,124.7,84.4,115,84.4z"/>
<path d="M148.2,65.7c-4.2-1.4-7.3-3.2-9.2-5.2c-1.9-2-2.9-4.6-2.8-7.3c-0.1-2.9,1-5.8,3.1-7.8c2.1-1.9,5-2.8,8.6-2.8
	c3.1-0.1,6.1,0.4,9.1,1.2c0.8,0.3,1.5,0.8,1.9,1.5c0.5,0.7,0.8,1.6,0.8,2.4c0,0.6-0.3,1.2-0.8,1.5c-0.5,0.3-1.2,0.4-1.7,0.1
	c-2.7-1.2-5.6-1.8-8.6-1.8c-1.7-0.1-3.3,0.4-4.6,1.5c-1.1,1.1-1.7,2.6-1.6,4.2c0,1.5,0.5,2.9,1.5,3.9c1.2,1.3,2.8,2.3,4.5,2.8
	c4.9,1.6,8.3,3.5,10.3,5.5c1.9,2.1,3,4.8,2.9,7.7c0,3.8-1.2,6.6-3.5,8.6c-2.3,1.9-5.7,2.9-10.2,2.9c-2.7,0-5.4-0.4-8-1.3
	c-1.7-0.6-2.8-2.3-2.6-4.1c0-0.6,0.3-1.1,0.8-1.4c0.5-0.3,1.2-0.3,1.7,0c2.3,1.2,4.9,1.9,7.6,1.8c5.4,0,8.1-2.1,8.1-6.4
	c0-1.6-0.5-3.1-1.6-4.2C152.1,67.3,150.2,66.3,148.2,65.7z"/>
<path d="M169.2,48.2c-1.4,0-2.6-1.1-2.6-2.6c0-1.4,1.1-2.6,2.6-2.6c0,0,0,0,0,0h23.9c1.4,0,2.6,1.1,2.6,2.6c0,1.4-1.1,2.6-2.6,2.6
	c0,0,0,0,0,0h-8.4c-0.2,0-0.5,0.1-0.5,0.4c0,0,0,0.1,0,0.1v32.1c0,0.8-0.3,1.6-0.9,2.2c-0.6,0.6-1.4,0.9-2.2,0.9
	c-0.8,0-1.6-0.3-2.2-0.9c-0.6-0.6-0.9-1.4-0.9-2.2V48.7c0-0.2-0.1-0.5-0.4-0.5c0,0-0.1,0-0.1,0H169.2z"/>
<path d="M206.6,83.8c-1.7,0-3.2-1.4-3.2-3.2V46.2c0-1.7,1.4-3.2,3.2-3.2h18.9c0.7,0,1.3,0.2,1.8,0.7c0.5,0.5,0.7,1.1,0.7,1.8
	c0,0.7-0.2,1.3-0.7,1.8c-0.5,0.5-1.1,0.7-1.8,0.7h-15.4c-0.3,0-0.5,0.2-0.5,0.5v10.7c0,0.2,0.1,0.5,0.4,0.5c0,0,0.1,0,0.1,0h14.4
	c1.3,0,2.4,1.1,2.4,2.4c0,1.3-1.1,2.4-2.4,2.4l0,0h-14.4c-0.2,0-0.5,0.1-0.5,0.4c0,0,0,0.1,0,0.1v13.3c0,0.2,0.1,0.5,0.4,0.5
	c0,0,0.1,0,0.1,0h15.4c0.7,0,1.3,0.2,1.8,0.7c0.5,0.5,0.7,1.1,0.7,1.8c0,0.7-0.2,1.3-0.7,1.8c-0.5,0.5-1.1,0.7-1.8,0.7L206.6,83.8z"
	/>
<path d="M239.9,84c-0.9-0.1-1.7-0.5-2.3-1.2c-0.6-0.7-0.9-1.5-0.9-2.4V46.5c0-0.9,0.3-1.8,0.9-2.4c0.6-0.7,1.4-1.1,2.3-1.2
	c2.5-0.3,5-0.4,7.4-0.4c6.6,0,11.6,1.7,15,5.1c3.4,3.4,5.1,8.5,5.1,15.3c0,14.4-6.7,21.5-20.1,21.5C244.8,84.4,242.3,84.3,239.9,84z
	 M242.8,48.4v30.1c0,0.3,0.2,0.5,0.4,0.6c1.3,0.2,2.7,0.3,4,0.3c5,0,8.6-1.3,10.9-3.8c2.3-2.5,3.4-6.8,3.4-12.7
	c0-5.3-1.2-9.2-3.5-11.7c-2.3-2.5-5.9-3.7-10.8-3.7c-1.4,0-2.7,0.1-4,0.3C243,47.9,242.8,48.1,242.8,48.4z"/>
<path d="M300.2,65.7c-4.2-1.4-7.3-3.2-9.2-5.2c-1.9-2-2.9-4.6-2.8-7.3c-0.1-2.9,1-5.8,3.1-7.8c2.1-1.9,5-2.8,8.6-2.8
	c3.1-0.1,6.1,0.4,9.1,1.2c0.8,0.3,1.5,0.8,1.9,1.5c0.5,0.7,0.8,1.6,0.8,2.4c0,0.6-0.3,1.2-0.8,1.5c-0.5,0.3-1.2,0.4-1.7,0.1
	c-2.7-1.2-5.6-1.8-8.6-1.8c-1.7-0.1-3.3,0.4-4.6,1.5c-1.1,1.1-1.7,2.6-1.6,4.2c0,1.5,0.5,2.9,1.5,3.9c1.2,1.3,2.8,2.3,4.5,2.8
	c4.9,1.6,8.3,3.5,10.3,5.5c1.9,2.1,3,4.8,2.9,7.7c0,3.8-1.2,6.6-3.5,8.6c-2.3,1.9-5.7,2.9-10.2,2.9c-2.7,0-5.4-0.4-8-1.3
	c-1.7-0.6-2.8-2.3-2.6-4.1c0-0.6,0.3-1.1,0.8-1.4c0.5-0.3,1.2-0.3,1.7,0c2.3,1.2,4.9,1.9,7.5,1.8c5.4,0,8.1-2.1,8.1-6.4
	c0-1.6-0.5-3.1-1.6-4.2C304.1,67.3,302.2,66.3,300.2,65.7z"/>
<path d="M326.4,82.9c-0.6,0.6-1.4,0.9-2.2,0.9c-0.8,0-1.6-0.3-2.2-0.9c-0.6-0.6-0.9-1.4-0.9-2.2V46.1c0-0.8,0.3-1.6,0.9-2.2
	c0.6-0.6,1.4-0.9,2.2-0.9c0.8,0,1.6,0.3,2.2,0.9c0.6,0.6,0.9,1.4,0.9,2.2v13.1c0,0.2,0.1,0.5,0.4,0.5c0,0,0.1,0,0.1,0h16.3
	c0.2,0,0.5-0.1,0.5-0.4c0,0,0-0.1,0-0.1V46.1c0-0.8,0.3-1.6,0.9-2.2c0.6-0.6,1.4-0.9,2.2-0.9c0.8,0,1.6,0.3,2.2,0.9
	c0.6,0.6,0.9,1.4,0.9,2.2v34.7c0,1.7-1.4,3.1-3,3.1c0,0,0,0,0,0c-0.8,0-1.6-0.3-2.2-0.9c-0.6-0.6-0.9-1.4-0.9-2.2V65
	c0-0.2-0.1-0.5-0.4-0.5c0,0-0.1,0-0.1,0h-16.3c-0.2,0-0.5,0.1-0.5,0.4c0,0,0,0.1,0,0.1v15.8C327.3,81.6,327,82.4,326.4,82.9z"/>
<path d="M388.9,78.9c-3.3,3.7-7.7,5.5-13.3,5.5c-5.6,0-10-1.8-13.3-5.5c-3.3-3.7-4.9-8.8-4.9-15.4c0-6.6,1.6-11.7,4.9-15.4
	c3.3-3.7,7.7-5.5,13.3-5.5c5.6,0,10,1.8,13.3,5.5c3.3,3.7,4.9,8.8,4.9,15.4C393.8,70,392.1,75.2,388.9,78.9z M384.4,51.5
	c-4.3-4.9-11.6-5.4-16.5-1.1c-0.4,0.3-0.8,0.7-1.1,1.1c-2.1,2.7-3.1,6.6-3.1,11.9c0,5.3,1,9.3,3.1,11.9c4.3,4.9,11.6,5.4,16.5,1.1
	c0.4-0.3,0.8-0.7,1.1-1.1c2.1-2.7,3.1-6.6,3.1-11.9S386.5,54.2,384.4,51.5z"/>
<path d="M405.7,82.9c-0.6,0.6-1.4,0.9-2.2,0.9c-0.8,0-1.6-0.3-2.2-0.9c-0.6-0.6-0.9-1.4-0.9-2.2V46.5c0-0.9,0.3-1.7,0.9-2.4
	c0.6-0.7,1.4-1.1,2.2-1.2c3.2-0.3,6.2-0.5,9.2-0.5c5.1,0,9,1.1,11.7,3.3c2.7,2.2,4,5.3,4,9.3c0,9.1-5.2,13.7-15.7,13.7
	c-2.2,0-4.1-0.1-5.7-0.2c-0.2,0-0.4,0.1-0.5,0.3c0,0,0,0.1,0,0.1v11.8C406.6,81.6,406.2,82.4,405.7,82.9z M406.6,48.3V63
	c0,0.3,0.2,0.5,0.5,0.6c1.7,0.2,3.4,0.4,5.1,0.4c3.3,0,5.8-0.7,7.5-2.2c1.8-1.5,2.8-3.8,2.6-6.2c0.1-2.3-0.8-4.6-2.6-6.1
	c-1.7-1.4-4.2-2.1-7.6-2.1c-1.7,0-3.4,0.1-5.1,0.3C406.7,47.8,406.5,48,406.6,48.3L406.6,48.3z"/>
<path d="M444.8,65.7c-4.3-1.4-7.3-3.2-9.2-5.2c-1.9-2-2.9-4.6-2.8-7.3c-0.1-2.9,1-5.8,3.1-7.8c2.1-1.9,5-2.8,8.6-2.8
	c3.1-0.1,6.1,0.4,9.1,1.2c0.8,0.3,1.5,0.8,1.9,1.5c0.5,0.7,0.8,1.6,0.8,2.4c0,0.6-0.3,1.2-0.8,1.5c-0.5,0.3-1.2,0.4-1.7,0.1
	c-2.7-1.2-5.6-1.8-8.6-1.8c-1.7-0.1-3.3,0.4-4.6,1.5c-1.1,1.1-1.7,2.6-1.6,4.2c0,1.5,0.5,2.9,1.5,3.9c1.2,1.3,2.8,2.3,4.5,2.8
	c4.9,1.6,8.3,3.5,10.3,5.5c1.9,2.1,3,4.8,2.9,7.7c0,3.8-1.2,6.6-3.5,8.6c-2.3,1.9-5.7,2.9-10.2,2.9c-2.7,0-5.4-0.4-8-1.3
	c-1.7-0.6-2.8-2.3-2.6-4.1c0-0.6,0.3-1.1,0.8-1.4c0.5-0.3,1.2-0.3,1.7,0c2.3,1.2,4.9,1.9,7.5,1.8c5.4,0,8.1-2.1,8.1-6.4
	c0-1.6-0.5-3.1-1.6-4.2C448.7,67.3,446.8,66.3,444.8,65.7z"/>
<path d="M470.3,50.7c-0.3,0.3-0.7,0.3-0.9,0c-0.1-0.1-0.2-0.3-0.2-0.5V43c0-0.2,0.1-0.4,0.2-0.5c0.1-0.1,0.3-0.2,0.5-0.2
	c0.6-0.1,1.1-0.1,1.7-0.1c0.9-0.1,1.8,0.2,2.5,0.6c0.6,0.4,0.9,1,0.9,1.7c0,0.5-0.1,1.1-0.5,1.5c-0.3,0.4-0.7,0.7-1.2,0.9
	c0,0,0,0,0,0c0,0,0,0,0,0c0.4,0.4,0.8,0.8,0.9,1.4l0.8,1.9c0.1,0.1,0,0.3,0,0.4c-0.1,0.1-0.2,0.2-0.4,0.2c-0.2,0-0.4-0.1-0.5-0.2
	c-0.2-0.1-0.3-0.3-0.4-0.5l-0.7-1.9c-0.1-0.3-0.3-0.6-0.5-0.8c-0.4-0.1-0.8-0.2-1.1-0.2h-0.6c-0.1,0-0.1,0-0.1,0.1c0,0,0,0,0,0v2.8
	C470.5,50.4,470.4,50.6,470.3,50.7z M470.5,43.4v2.8c0,0.1,0,0.1,0.1,0.1c0,0,0,0,0,0h0.6c1.7,0,2.5-0.6,2.5-1.7
	c0-0.4-0.2-0.8-0.5-1.1c-0.5-0.3-1.1-0.4-1.7-0.4c-0.3,0-0.6,0-0.9,0.1C470.5,43.3,470.5,43.3,470.5,43.4z"/>
<path d="M471.8,53.3c-3.7,0-6.7-3-6.7-6.7s3-6.7,6.7-6.7c3.7,0,6.7,3,6.7,6.7C478.5,50.3,475.5,53.3,471.8,53.3z M471.8,40.9
	c-3.1,0-5.7,2.5-5.7,5.7s2.5,5.7,5.7,5.7c3.1,0,5.7-2.5,5.7-5.7C477.5,43.5,475,40.9,471.8,40.9z"/>
<rect x="21.9" y="105.1" class="st0" width="371.9" height="70.9"/>
<rect x="240.2" y="118.7" class="st0" width="46.8" height="46.8"/>
</svg>
