<?xml version="1.0" encoding="utf-8"?>
<!-- Generator: Adobe Illustrator 24.3.0, SVG Export Plug-In . SVG Version: 6.00 Build 0)  -->
<svg version="1.1" id="Layer_1" xmlns="http://www.w3.org/2000/svg" xmlns:xlink="http://www.w3.org/1999/xlink" x="0px" y="0px"
	 viewBox="0 0 600 180" style="enable-background:new 0 0 600 180;" xml:space="preserve">
<style type="text/css">
	.st0{fill:#FFFFFF;}
	.st1{font-family:'OpenSans-Semibold';}
	.st2{font-size:61.172px;}
	.st3{font-size:26.4756px;}
	.st4{font-size:24px;}
	.st5{fill:none;stroke:#B5B5B5;stroke-miterlimit:10;}
	.st6{fill:#FFCB2B;}
	.st7{fill:#EA4335;}
	.st8{fill:#FBBC05;}
	.st9{fill:#4285F4;}
	.st10{fill:#34A853;}
</style>
<path class="st0" d="M583.1,176H17.9C10.8,176,5,170.2,5,163.1l0,0V16.9C5,9.8,10.8,4,17.9,4c0,0,0,0,0,0h565.2
	c7.1,0,12.9,5.8,12.9,12.9v146.2C596,170.2,590.2,176,583.1,176z"/>
<text transform="matrix(1 0 0 1 31.3496 162.8184)" class="st1 st2">4.9</text>
<g>
	<text transform="matrix(1 0 0 1 136.1733 135.1846)" class="st1 st3">Out of</text>
	<text transform="matrix(1 0 0 1 134.0533 162.1846)" class="st1 st3">5 stars</text>
</g>
<text transform="matrix(1 0 0 1 243.9514 147.5786)" class="st1 st4">641 Reviews</text>
<line class="st5" x1="232.8" y1="110" x2="232.8" y2="170"/>
<polygon class="st6" points="421.9,150.6 413.1,145.9 404.3,150.6 405.9,140.8 398.8,133.9 408.6,132.4 413,123.4 417.5,132.3 
	427.3,133.7 420.2,140.7 "/>
<polygon class="st6" points="457.9,150.6 449,145.9 440.2,150.6 441.9,140.8 434.7,133.9 444.6,132.4 448.9,123.4 453.4,132.3 
	463.3,133.7 456.1,140.7 "/>
<polygon class="st6" points="493.8,150.6 485,145.9 476.2,150.6 477.8,140.8 470.6,133.9 480.5,132.4 484.9,123.4 489.3,132.3 
	499.2,133.7 492.1,140.7 "/>
<polygon class="st6" points="529.7,150.6 520.9,145.9 512.1,150.6 513.7,140.8 506.6,133.9 516.4,132.4 520.8,123.4 525.2,132.3 
	535.1,133.7 528,140.7 "/>
<polygon class="st6" points="565.7,150.6 556.8,145.9 548,150.6 549.7,140.8 542.5,133.9 552.4,132.4 556.7,123.4 561.2,132.3 
	571.1,133.7 564,140.7 "/>
<path class="st7" d="M128.6,65.2c0,10.4-8.4,18.8-18.7,18.9c-10.4,0-18.8-8.4-18.9-18.7c0-10.4,8.4-18.8,18.7-18.9c0,0,0,0,0.1,0
	c10.2-0.2,18.6,8,18.8,18.2C128.6,64.8,128.6,65,128.6,65.2z M120.4,65.2c0-6.7-4.9-11.4-10.6-11.4s-10.6,4.6-10.6,11.4
	c0,6.7,4.9,11.4,10.6,11.4C115.5,76.6,120.4,71.9,120.4,65.2z"/>
<path class="st8" d="M169.2,65.2c0,10.4-8.4,18.8-18.7,18.8c-10.4,0-18.8-8.4-18.8-18.7c0-10.4,8.4-18.8,18.7-18.8c0,0,0,0,0,0
	c10.2-0.2,18.6,8,18.8,18.2C169.2,64.9,169.2,65,169.2,65.2z M161,65.2c0-6.7-4.9-11.4-10.6-11.4s-10.6,4.6-10.6,11.4
	c0,6.7,4.9,11.4,10.6,11.4S161,71.9,161,65.2z"/>
<path class="st9" d="M208.1,47.6v33.6c0,13.8-8.2,19.5-17.8,19.5c-7.3,0-13.8-4.3-16.6-11.1l7.2-3c1.5,3.9,5.2,6.6,9.4,6.7
	c6.2,0,10-3.8,10-11v-2.7H200c-2.5,2.8-6.1,4.4-9.9,4.3c-9.4,0-18-8.2-18-18.7c0-10.6,8.6-18.8,18-18.8c3.7-0.1,7.3,1.4,9.9,4.2h0.3
	v-3L208.1,47.6z M200.9,65.3c0-6.6-4.4-11.4-10-11.4c-5.7,0-10.4,4.8-10.4,11.4c0,6.5,4.8,11.3,10.4,11.3
	C196.4,76.6,200.9,71.8,200.9,65.3z"/>
<path class="st10" d="M221,27.9v54.9h-8V27.9H221z"/>
<path class="st7" d="M252.3,71.4l6.4,4.3c-3.5,5.2-9.3,8.3-15.6,8.3c-10.1,0.1-18.5-7.9-18.6-18.1c0-0.2,0-0.5,0-0.7
	c0-11.2,8-18.8,17.7-18.8c9.7,0,14.5,7.7,16,11.9l0.9,2.1l-25.1,10.4c1.6,3.6,5.2,5.8,9.1,5.7C247.2,76.6,250.1,74.5,252.3,71.4z
	 M232.6,64.6l16.8-7c-0.9-2.3-3.7-4-7-4c-5.7,0.3-10.1,5.1-9.8,10.8C232.6,64.5,232.6,64.6,232.6,64.6z"/>
<path class="st9" d="M60.6,60.3v-8h26.8c0.3,1.6,0.4,3.2,0.4,4.8c0,6-1.6,13.3-6.9,18.6c-5.1,5.3-11.7,8.2-20.3,8.2
	c-16,0-29.5-13.1-29.5-29.1s13.5-29.1,29.5-29.1c7.5-0.1,14.6,2.8,19.9,8L75,39.4c-3.8-3.7-9-5.7-14.3-5.7
	c-11.7,0.2-21,9.8-20.9,21.4c0.2,11.5,9.4,20.7,20.9,20.9c7.6,0,11.9-3.1,14.7-5.8c2.2-2.2,3.7-5.5,4.3-9.8L60.6,60.3z"/>
<rect x="22.4" y="103.2" class="st0" width="364.9" height="70.6"/>
</svg>
