<?xml version="1.0" encoding="utf-8"?>
<svg viewBox="173.53 134.37 43.14 43.06" xmlns="http://www.w3.org/2000/svg">
  <path d="M216.67,144a.34.34,0,0,1-.06-.12l-9.5-9.51a.29.29,0,0,1-.13,0H183.21a.24.24,0,0,1-.12,0l-9.51,9.51a.21.21,0,0,1-.05.12V167.8a.17.17,0,0,1,.05.12l9.51,9.51h24l9.5-9.51a.23.23,0,0,1,.06-.12Zm-42.79.3,1.37.76,3.5,2v17.76l-3.5,2-1.37.76ZM207,134.8l9.18,9.18-.18.1-4.72,2.63-7-7,2.72-4.87Zm4.08,29.8L210,164l-2.21-1.23V149.05l3.3-1.83Zm-28.36-2V149.25l.55.3,1.38.76v11.2l-1.79,1ZM185,150.28l4.45-4.45H200.7l4.46,4.45v11.26L200.7,166H189.47L185,161.54Zm20.51,11.23V150.34l1.38-.76.54-.3V162.6l-.13-.07Zm1.81-12.6-2,1.08L201,145.62l1.09-2,2.62,2.62Zm-5.88-4.81-.77,1.38H189.5l-.76-1.38-.31-.55h13.33Zm-12.72,23.62.76-1.38h11.19l.77,1.38.3.54H188.43Zm13.36.43-1.08-2,4.38-4.37,1.33.74.62.34-2.62,2.62ZM211,146.88h0l-3.29,1.83L205,146l-2.72-2.7,1.83-3.3h0l3.43,3.43Zm-7.63-6.19L202,143.2H188.24L187,141l-.6-1.08h17.38Zm-15.25,3,1.08,2-4.37,4.37-2-1.08,2.62-2.62Zm-9,20.93v-17.4l.55.31,2.74,1.52v13.72L180,164.08Zm3.76-1.69.61-.34,1.34-.74,4.37,4.37-1.08,1.95-2.62-2.62ZM187,171l1.31-2.36H202l1.52,2.74.31.55H186.41Zm17.19.82-.09-.17-1.75-3.16L205,165.8l2.69-2.69,3.32,1.83-3.45,3.4ZM206,135.87l-2,3.69H186.22l-2.3-4.13-.41-.74h23.18ZM186,140l1.85,3.33L185.16,146l-2.69,2.69-3.33-1.85Zm-6.86,24.92,3.33-1.85,2.69,2.69,2.69,2.69L186,171.8l-3.36-3.46ZM184,176.13l2.15-3.87H204l2,3.5.76,1.37H183.51Zm20.23-4,3.5-3.5,3.5-3.5,4.87,2.71h0L207,177Zm10.84-5.27-3.69-2.05V147l3.69-2,1.18-.66v23.18Zm-32-32,.16.29,2.57,4.61-3.5,3.51-3.51,3.5L174,144Zm-4.28,30.31,3.51,3.5,3.5,3.5-2.64,4.75-.09.15L174,167.84Z" fill="#1d1d1b"/>
</svg>