<?xml version="1.0" encoding="utf-8"?>
<svg viewBox="94.39 234.27 37.21 44.73" xmlns="http://www.w3.org/2000/svg">
  <path d="M130.74,241.74a.08.08,0,0,1,0-.07l-2.12-3.75h0L124,234.69h-.09L113,234.27h0l-10.93.42h-.1l-4.59,3.17h0l-2.13,3.75a.08.08,0,0,1,0,.07l-.86,14.94h0l.86,14.94a.11.11,0,0,1,0,.08l2.13,3.75h0l4.59,3.17h.1L113,279h0l10.29-.23h.09l5.24-3.36h0l2.12-3.75a.11.11,0,0,1,0-.08l.86-14.94h0ZM97.38,270.23l2.78-2.15-2.8,6.9-1.87-3.3Zm6.44-29.78.15.42-4.51-2.1L97.74,238l4.16-2.87ZM124.31,273l-2.89-1.54-2.5-6.07,6.18,2.3,3,7.32Zm-11.39-38.36,8.37,6.57-8.38,5.49-3.18-2.1-5.15-3.39,6.61-5.2Zm5.54,30.3-5.55,1.41L107.36,265l-.39-1.8-1.42-6.44,1.42-6.43.39-1.8,5.55-1.38,5.55,1.38.39,1.8,1.41,6.43-1.41,6.44Zm-17.67-18.84,4.57,1.72,1.65.62-1,4.33-.74,3.38-.41-.91Zm4.53,11.16,1,4.54L107,265l-6.11,2.28,2.32-5.24ZM118.81,265l1.35-6.14.34-1.56,4.41,10Zm6.1-18.86-4.41,10-1.69-7.71,2.26-.86Zm-6.41,2-5.16-1.28,7.87-5.16-1,2.44Zm-6-1.28-5.16,1.28-1-2.29-1.71-4.15,7,4.63Zm-7.81,24.31,2.42-5.38.22-.48,5.14,1.27Zm8.7-4.59,5.13-1.27,2.41,5.87-7.55-4.59Zm11.89-20.38,6,10.52-6,10.47-4.63-10.47Zm-1.68.06L118.94,248l1.55-3.67,1.26-3,6.38-3-3,7.3Zm-19.46-4.88L106.9,248l-6.31-2.36-.48-1.22-2.4-6.09Zm-3.7,4.83,4.74,10.52-4.63,10.47-6-10.47,1-1.7Zm.26,21.51,6.18-2.3-2.74,6.07L97.74,275l.15-.37Zm-3.34-29.27,1.77,4.5.92,2.34-4.56-3.54Zm15.55,40.34-8.33-7.15,8.33-4.91,1.09.65,7,4.23-.54.47Zm8.27-6.86,1.8,6.68-9.59.22Zm7.29,3.09-2.83-6.9,4.7,3.6Zm2.74-19-5.75-10.13,5-3.74Zm-5.57-10.7,2.41-5.83.42-1,1.87,3.31Zm-3.74-4.39,2-5.76,4.15,2.87Zm1.15-4.29-1.54,4.34-8.06-6.31,10.15.39Zm-10.67-2-8,6.31L102.25,235Zm-17,7.49,4.81,3.73-5.57,10.12Zm-.8,15.33,5.72,10.07-4.22,3.25-.7.54Zm7.62,15.47,1.73-1-2.08,6.34-4.17-2.88Zm0,5.49,2.14-6.51,8.06,6.9Zm21.1.08-1.77-6.55,6.55,3.48Zm7.09-7.18L128,269.42l-2.51-1.92,5.75-10.07Z" fill="#1d1d1b"/>
</svg>