<?xml version="1.0" encoding="utf-8"?>
<svg viewBox="180.14 32.23 29.96 47.845" xmlns="http://www.w3.org/2000/svg">
  <path d="M210.1,36.4v-.12l-4-4.05a.26.26,0,0,1-.12,0H184.31l-.12,0-4,4.05a.61.61,0,0,1-.05.12V75.94a.33.33,0,0,1,.05.12l4,4a.15.15,0,0,0,.13,0h21.56a.19.19,0,0,0,.13,0l4-4v-.12Zm-29.65.34,1.49,1.08v36.7l-1.49,1.08Zm29.21-.4-.84.6-.72.52-3.43-3.36,1.23-1.52Zm-21.1,38.28-2.37-2.88V40.56l2.37-2.89h13.08L204,40.56V71.78l-2.37,2.88Zm-4.18-35.08,1.46,1V71.75l-1.42,1V56ZM186,72.08l2.27,2.76L187.33,76l-2.79-2.84Zm2.27-34.58L186,40.26l-1.51-1.08,2.83-2.84Zm17.54,35.7L202.91,76,202,74.84l2.27-2.76.43.31Zm-2.94-36.86,2.87,2.81-1.52,1.09L202,37.5l.61-.77Zm3,36.48-1.52-1.09V40.58l1.48-1V56.26Zm-1.43-38.43,3.36,3.29L206,39l-2.94-2.87.5-.62Zm-2,1.87-.84,1h-13l-.86-1.06h14.78ZM187.7,76l.86-1h13.08l.87,1.08h-9.88Zm15.41.24.49-.47,2.48-2.4,1.73,1.23L204.49,78Zm3.12-3.19V39.25L207.94,38V74.27h0Zm-2.16-38.75-.37.45-.93,1.15H187.42l-1.3-1.6Zm-20,5V73.05l-1.78,1.27V38.06l.19.13Zm-1.69,35.3,1-.69.89-.63,2.86,2.9-.46.59-1,1.22-2-2ZM186,78.11l1.38-1.72h15.38l.07.09L204.08,78h-9ZM204.32,34H185.83l-.22-.28-.93-1.15h20.84Zm-18.61.41,1.17,1.45.19.23L184.15,39l-1.2-.85-.59-.42,2.14-2.11Zm0,44.08h18.64l.24.3.89,1.09h-20.8Zm20.15,1.25-1.19-1.47,3.39-3.41L209.62,76Zm2.35-5.2V37.82l.87-.63.63-.45V75.6l-.63-.46ZM184.3,32.62l1.21,1.5-1.25,1.22-2.16,2.14-1.56-1.14Zm-3.6,43.23,1.4-1,3.33,3.49-1.13,1.42L180.54,76Z" fill="#1d1d1b"/>
</svg>