<?xml version="1.0" encoding="utf-8"?>
<svg viewBox="6.663 234.667 47.816 43.679" xmlns="http://www.w3.org/2000/svg">
  <path d="M6.91,252.43h0v.3h0v.11c.08.27.17.54.26.81l.08.22h0V254l.12.31a.86.86,0,0,0,.11.29l.4,1h0l.12.29H8l.07.15h0l.76,1.53v.07l.33.57q.19.33.42.66h0l.17.24.18.25h0l.6.73.19.21A71.56,71.56,0,0,0,21.55,271.7c1.17,1,2.36,2,3.6,2.94l.59.43.52.36h0l4,2.88a.17.17,0,0,0,.21,0l4-2.88h0l.34-.24,1-.72c1.15-.88,2.27-1.82,3.37-2.77l.06-.05a62.28,62.28,0,0,0,5.67-5.22c1.77-2,3.43-4,5.11-6.11l.19-.22.59-.72h0v-.05a.76.76,0,0,0,.08-.11l.06-.08.17-.25-.14-.1h.19c.14-.21.27-.43.41-.65l.43-.77.12-.21.25-.5h0l.39-.84h0l.19-.43v0l.34-.85a.75.75,0,0,1,.07-.18l.13-.37v-.06l.06-.14v-.05l.08-.24c0-.07,0-.14.07-.2h0l.17-.55h0v-.09h0l-.16-.06h.18l-.14-.05h.16v-.17h0c.63-2.25.19-4.92-.11-7.19a10.74,10.74,0,0,0-1.74-4.5,14.56,14.56,0,0,0-1.71-3.3c-1.82-1.54-4.6-2.92-7-2.66h0a20.73,20.73,0,0,0-3.77.26,7.05,7.05,0,0,0-3.46,1,25.88,25.88,0,0,0-5.34,5.16,18.06,18.06,0,0,0-3.27-3.38A11.85,11.85,0,0,0,25,235.67c-1.86-.94-4.71-1-6.78-1h0A10,10,0,0,0,11,237.51a13.42,13.42,0,0,0-1.64,2.38,11.69,11.69,0,0,0-2,3.77c-.47,2.7-1.1,6-.35,8.73Zm.74-8.81A31.09,31.09,0,0,1,11,238.09l1.86,7.41h0Zm41.06,1.86h0l1.86-7.41a32.3,32.3,0,0,1,3.32,5.53Zm-3.83,21.23-5.31,2.63-6.36,3.19L41.75,263,47,259l-1.54,5.62Zm.87-14,1.33,5.78L42,262.34l.92-2.37Zm-17.6,19.13-7.35-8.21,9.72,6L29,272.82Zm-13.73-13.3,1.33-5.78L18.56,260l.92,2.37L16,259.71Zm30.24-4-3.17,8.19-10.74,6.61L20,262.78l-3.16-8.19-.95-2.44,1.65-7.88,13.21-.65,13.21.65,1.65,7.88ZM32.51,272.82,31,269.66l7.08-4.32,2.62-1.61-1.25,1.39Zm8.37-29-8.75-.48,8.46-1.75,3,2.31Zm-14.59-.28-8.35.41,3-2.31,8.42,1.7Zm17.9.45L41,241.45,50.21,238l-1.9,7.58ZM13.3,245.87l3.86-1.53-1.51,7.19-.34-.83Zm-6,6.5L13,246.1l2.5,6.08-1.38,6.16Zm9.29,14.34-2.09-7.64,5.21,4,8.54,9.53-9.63-4.83ZM30.72,270l1.53,3.15L30.72,278l-1.53-4.8Zm15.09-18.43-1.47-7.23,3.85,1.49-2,4.87Zm-7-10-1.61.34-6.48,1.34-7.89-1.64h-.21l8.1.08h0Zm-18.33-.14-3.2,2.49-4.11,1.6-1.9-7.58Zm12,32,.94,1,1,1.11L31,278Zm14.9-15.09L46,252.18l.42-1,2.09-5.07,3.91,4.31,1.77,2-.31.27Zm-36.81,1.23v-.05h0l-.12-.18-.17-.24V259l-.49-.7h0l-.32-.55-.05-.09-.7-1.4-.06-.13L8,254.65v-.18l-.3-.84c-.08-.24-.16-.48-.23-.72L14,258.59l-2.51,1.64-.17.11-.09-.1Zm.91,1.09,2.64-1.72,2,7.27c-1.6-1.87-3.12-3.72-4.64-5.6ZM25.92,274.9l-.09-.06-.1-.08c-1.24-.91-2.42-1.91-3.59-2.92h0c-1.58-1.37-3.12-2.79-4.65-4.23l11.29,5.67-2,2.22-.21-.14Zm3-1.38,1.47,4.61L27,275.62Zm11.54-2.68c-.35.32-.72.64-1.1,1h0c-1.1,1-2.23,1.88-3.39,2.78l-.3.22-.07.06-.59.42-.21.14-2-2.22L44,267.52c-.87.83-2.16,2-3.55,3.27Zm8.31-8.67c-1.49,1.79-2.63,3.15-3.41,4l2-7.27L50,260.61c-.2.26-.66.82-1.21,1.51-1.48,1.79.56-.69,0,0Zm5.24-9.1v.06l-.11.32h0a2.25,2.25,0,0,1-.08.24l-.07.21.16.06h-.18l0,.13.17.07h-.19l-.13.37a1.34,1.34,0,0,1-.07.18l-.12.3v.09L53,256l.16.08h-.17c0,.09-.09.18-.13.27l-.26.55h0l-.24.48a1,1,0,0,0-.12.23l-.44.76c-.12.21-.26.42-.39.62v.06c0,.09-.11.17-.16.25l-.2,0-.08.12h0l-.58.71-.1.1-.17-.11-2.51-1.64,6.52-5.68Zm.28-1L48.7,245.9l2.79-1,2.4-.88c.2,1,.9,5.67.43,8Zm-4.21-14.4L41,241.09l2.48-6h.07a10.69,10.69,0,0,1,6.56,2.53ZM43,235.1l-1.84,4.49-.62,1.5L36.87,236a20.88,20.88,0,0,1,6.18-.91Zm-6.47,1,3.71,5.16-9.23.08c1.14-1.66,4.78-4.65,5.55-5.27Zm-6.12,5.24-9.23-.08,3.72-5.16C25.69,236.69,29.33,239.68,30.43,241.34Zm-5.83-5.4-3.7,5.13-.61-1.5-1.84-4.49a21,21,0,0,1,6.15.83Zm-6.6-.88h.08l2.48,6-9.17-3.47A10.85,10.85,0,0,1,18,235.06ZM7.58,244l2.41.88,2.79,1L7.18,252c-.48-2.32.23-7,.39-8Z" fill="#1d1d1b"/>
</svg>