<?xml version="1.0" encoding="utf-8"?>
<svg viewBox="18.09 131.97 25.529 47.84" xmlns="http://www.w3.org/2000/svg">
  <path d="M43.48,155.91h0c.23-4.83-1.62-9.68-3.89-13.86a35.57,35.57,0,0,0-4.28-6.31c-1.15-1.33-2.79-3.21-4.52-3.77h-.06C26.79,133.88,24,138.33,22,142c-2.27,4.17-4.12,9-3.89,13.86h0c-.24,5,1.74,10,4.15,14.33a34.18,34.18,0,0,0,4.34,6.2c.95,1.06,2.72,3.17,4.22,3.42h.06c1.5-.23,3.29-2.38,4.23-3.42a34.18,34.18,0,0,0,4.34-6.2c2.4-4.29,4.39-9.33,4.15-14.33h-.09ZM25.68,175a39,39,0,0,1-3-4.42l1.37.61,4,1.79-.84.7Zm10.1-38.1a36.8,36.8,0,0,1,3,4.41l-2-.87-3.41-1.52.72-.62ZM39,170.05l-.5.22-5.18,2.32,1.56-7.05,4.22-4.29L39,169Zm-16.54,0V169l-.09-7.71,4.22,4.29,1.57,7.05L23,170.27Zm0-28.28.63-.28,5.06-2.26-1.57,7-4.22,4.28.09-7.7Zm8.1,36.88-2-5.73,2-2.48Zm6.78-19.31c.1-.56.19-1.13.24-1.69l1.49,3.11-.21.22-3.23,3.28A17.64,17.64,0,0,0,37.34,159.34Zm-5.71,9.45-.9.88-.38-.38-.06,0c-3.49-3.39-5.81-7.31-6.11-12.26a7,7,0,0,1,.11-1,4,4,0,0,0-.11-1.14,17.06,17.06,0,0,1,2.24-7.6,25.62,25.62,0,0,1,4.31-5.09l.38.37.07.06c3.48,3.38,5.8,7.31,6.1,12.26a7.07,7.07,0,0,1-.11,1.06m0,0c.06.38.09.73.11,1.07a17.77,17.77,0,0,1-5.65,11.81Zm-14.78,4.84,1.49-3.11a17.92,17.92,0,0,0,2,6.61L22.64,161Zm1.74-8.31c-.11.55-.19,1.12-.25,1.68L22.39,151l.21-.21,3.24-3.29a17.18,17.18,0,0,0-1.71,4.93Zm3.22,14.1a29,29,0,0,0,2.71,2.94l.05,0,.39.39-2,2.54-1.38-6.23.23.3ZM39.07,151l-1.49,3.12a17.84,17.84,0,0,0-1.95-6.62l3.23,3.29Zm-5-5.8a28,28,0,0,0-2.65-2.9l-.06-.06L31,141.9l2-2.56,1.38,6.24c-.09-.12-.18-.24-.28-.35Zm-4-2.93a26.47,26.47,0,0,0-3,3.26l.3-1.34,1.08-4.9,2,2.54-.44.44Zm.85,28.14,2,2.48-2,5.73ZM31,170a34.8,34.8,0,0,0,3.39-3.69l-.64,2.92-.73,3.3-.68-.86Zm8-28.18v1.09l.09,7.7-4.22-4.28h0l-1.56-7,5,2.26Zm-8.07-.44v-8.21l2,5.72Zm-.35,0-2-2.49,2-5.72Zm-6.73,13.48a5.8,5.8,0,0,0,.12,1,4.85,4.85,0,0,1-.12,1.06l-1.69,3.54-3.75-4.59,3.75-4.49Zm13.8,2.1a7.8,7.8,0,0,0-.11-1,4.31,4.31,0,0,1,.11-1l1.69-3.53,3.76,4.59-3.76,4.59Zm-12-20.1,1.66,1.4.73.62-3.41,1.52-1.95.87a39,39,0,0,1,3-4.37Zm10.1,38.1-1.66-1.41-.72-.61,4-1.79,1.37-.61A38.57,38.57,0,0,1,35.78,175Zm7.36-19.52-1.35-1.66L39.48,151l2.63-2a21.07,21.07,0,0,1,1,6.45ZM42,148.64l-2.61,2-.07-6v-2.28a36.1,36.1,0,0,1,2.73,6.32Zm-6.49-12.1-2.42,2.05-1.73-5L31,132.47a17.56,17.56,0,0,1,4.57,4.11Zm-5.15-4.11L30,133.59l-1.73,5-2.41-2.05a17.71,17.71,0,0,1,4.56-4.07Zm-8.26,9.91v3L22,150.65l-2.6-2A35.93,35.93,0,0,1,22.11,142.34ZM19.3,149l2.63,2-1.13,1.38-2.48,3A21.19,21.19,0,0,1,19.3,149Zm-1,7.34,2.48,3,1.13,1.38-2.63,2a21.21,21.21,0,0,1-1-6.42Zm1.09,6.76,2.6-2,.06,5.29v3a36.88,36.88,0,0,1-2.64-6.29Zm6.49,12.09,2.41-2,2.13,6.11a17.88,17.88,0,0,1-4.52-4.11ZM31,179.34l2.11-6.15,2.42,2A17.91,17.91,0,0,1,31,179.34Zm8.32-9.87v-2.33l.07-6,2.6,2a35.68,35.68,0,0,1-2.63,6.33Zm2.8-6.69-2.63-2L41.75,158l1.39-1.68a21.05,21.05,0,0,1-1,6.44Z" fill="#1d1d1b"/>
</svg>