<?xml version="1.0" encoding="utf-8"?>
<svg viewBox="262.981 34.228 28.567 43.865" xmlns="http://www.w3.org/2000/svg">
  <path d="M287.42,40.64c-3.37-5.21-9.56-8.46-15.38-4.94l-.24.15h0l-.25.16c-8.62,5.83-9.93,19.34-7.46,28.55h0c1.09,4.08,3.08,8.18,6.36,10.93a10.23,10.23,0,0,0,12.09,1.14l.24-.15h0l.22-.14c6.29-4.25,8.53-13,8.54-20.13a.11.11,0,0,0,0-.08,28.76,28.76,0,0,0-4.16-15.47Zm-5.77,30.79,1.64-6.09,3.8-2.44v8.55Zm-.47.22-3.89,6-3.89-6,.27-.17,3.62-2.32.12.07Zm-7.78-31,3.89-6,3.89,6-.27.17-3.62,2.32-1.05-.67ZM285.58,63.4l-2.16,1.39,2.14-8,1.51,5.64Zm1.49-13.58-1.51,5.64-2.14-8Zm-1.69,6.31-2.38,9-5.7,3.64-5.69-3.64-2.39-8.93,2.39-8.93,5.69-3.65,5.7,3.65Zm-7.76-12.79,3.7-2.37,1.53,5.73Zm-5.88,3.35L273.27,41,277,43.34Zm-.58.79-2.13,8-1.51-5.64,1.48-1ZM277,69l-3.73,2.39-1.53-5.72ZM267.28,50.2l1.6,6-1.6,6L265.18,59l-1.76-2.71,1.76-2.71Zm.27,12.28L269,56.84l2.13,8-.47-.31ZM277.65,69l5.23-3.35-1.56,5.74-3-1.91Zm9.82-19.5V41.34a25,25,0,0,1,2.69,6.39Zm-.35,0L283.32,47l-1.64-6.11h5.44ZM271.3,47l-3.81,2.44V40.91h5.44Zm-4.23,15.49-2.71,1.73a32,32,0,0,1-1-7.47Zm.07.37V71a24.89,24.89,0,0,1-2.68-6.39Zm.35,0,3.44,2.21.37.23,1.63,6.1h-5.44Zm19.85-.75-1.6-6,1.6-6,1.91,3,1.94,3-1.94,3Zm1.51-10.23-1.34-2.07,2.71-1.74a31.39,31.39,0,0,1,1,7.47Zm-1.91-11.34h-5.29l1.15-4.28A14.94,14.94,0,0,1,286.94,40.56Zm-4.45-4.48-1.13,4.26-1-1.61-2.7-4.18A9.66,9.66,0,0,1,282.49,36.08ZM277,34.52l-.27.42-3.5,5.4-1.13-4.23.13-.09A9.64,9.64,0,0,1,277,34.52Zm-5.26,1.82h.05l1.14,4.28h-5.29A15.07,15.07,0,0,1,271.74,36.34Zm-4.6,13.15-2.68-1.73a24.8,24.8,0,0,1,2.68-6.42Zm-2.78-1.37,2.72,1.74-3.71,5.74a32.17,32.17,0,0,1,1-7.51Zm3.28,23.69h5.29l-1.14,4.28a15.62,15.62,0,0,1-4.15-4.31Zm4.46,4.48,1.13-4.23.95,1.47L277,77.81a9.84,9.84,0,0,1-4.9-1.55Zm5.52,1.55,2.79-4.31.95-1.47,1.13,4.22-.13.09a9.81,9.81,0,0,1-4.74,1.44Zm5.22-1.78h0l-1.15-4.27H287A15.33,15.33,0,0,1,282.84,76Zm4.6-13.15,2.69,1.72A25.28,25.28,0,0,1,287.44,71Zm2.78,1.36-2.49-1.59-.22-.14,1.34-2.07,2.37-3.67a31.66,31.66,0,0,1-1,7.44Z" fill="#1d1d1b"/>
</svg>