<?xml version="1.0" encoding="utf-8"?>
<svg viewBox="91.35 34.61 43.13 43.12" xmlns="http://www.w3.org/2000/svg">
  <path d="M91.35,77.56a.21.21,0,0,0,.13.17h42.87a.21.21,0,0,0,.13-.17V34.78a.17.17,0,0,0-.13-.17H91.52a.18.18,0,0,0-.17.18Zm35-4.71h-.26l-12.25-1.51,12.53-1.54Zm3.45-3.45h-3.08l1.54-12.81.74,5.75ZM112.9,41.26l13.47,1.66L128,56.17l-1.59,13.25-13.47,1.65-13.5-1.65L97.85,56.17l1.59-13.25.76-.1ZM103,70.21l9,1.1L99.46,72.85V69.77Zm25.26-14.46-1.52-12.81h3.08Zm-1.91-16.26v3.07h-.29l-12.24-1.51,9-1.1ZM112,41,99.46,42.56V39.49l3.56.43ZM97.55,55.75,96.86,50,96,43h3.08Zm0,.84.83,6.88.71,5.93H96Zm15.37,15,10.77,1.33H102.14Zm13.8-1.8h3.19l4,7.35L126.77,73Zm3.12-3.1-1.26-10.48,1.26-10.49Zm.07-24.06h-3.19v-3.2l4.81-2.79,2.33-1.36Zm-17-1.81L102.14,39.5h21.53Zm-13.8-1.43v3.2H95.92L92,35.24l2.82,1.63ZM96,45.68l1.26,10.49L96,66.65ZM92,77.1l4-7.35h3.19V73l-3.73,2.17Zm1.08-.22,6.28-3.65H126.5l4.24,2.46,2.92,1.7H92.17Zm41.08,0-2.35-4.38-1.59-3V42.8l1.59-2.94,2.35-4.39Zm-1.69-41.2-5.94,3.45H99.34L92.17,35h41.49ZM91.7,35.47l2.35,4.39,1.59,2.94V69.53l-1.59,3L91.7,76.86Z" fill="#1d1d1b"/>
</svg>