<?xml version="1.0" encoding="utf-8"?>
<svg viewBox="44.828 72.413 43.952 43.96" xmlns="http://www.w3.org/2000/svg">
  <path d="M 46.435 102.85 C 51.116 113.839 63.644 119.165 74.805 114.91 L 75.185 114.75 L 75.565 114.59 C 83.545 111.06 88.712 103.176 88.765 94.45 C 88.785 94.428 88.785 94.393 88.765 94.37 C 88.72 78.912 73.165 68.319 58.765 73.94 L 58.385 74.1 L 58.055 74.25 C 47.11 79.098 41.973 91.743 46.435 102.85 Z M 46.695 86.3 L 47.635 86.69 L 51.055 88.1 L 48.815 90.34 L 45.125 94 C 45.162 91.358 45.695 88.746 46.695 86.3 Z M 73.425 109.69 L 74.805 106.34 L 75.945 103.59 L 82.055 101.08 L 82.055 109.69 L 73.425 109.69 Z M 66.765 116.01 L 64.335 113.59 L 60.685 109.94 L 66.765 107.42 L 70.385 108.92 L 72.855 109.92 L 69.205 113.59 L 66.765 116.01 Z M 45.185 94.43 L 47.625 91.99 L 51.275 88.34 L 53.795 94.43 L 53.145 95.99 L 51.275 100.51 L 47.625 96.86 L 45.185 94.43 Z M 51.565 100.72 L 53.155 96.88 L 53.985 94.88 L 55.695 99.01 L 57.405 103.14 L 55.925 102.53 L 51.565 100.72 Z M 55.695 89.84 L 53.985 93.97 L 51.565 88.13 L 57.405 85.71 L 55.695 89.84 Z M 54.175 94.43 L 56.055 89.97 L 57.905 85.52 L 66.805 81.83 L 71.265 83.68 L 75.715 85.52 L 79.405 94.43 L 75.715 103.33 L 66.805 107.02 L 62.355 105.18 L 57.905 103.33 L 56.755 100.66 L 54.175 94.43 Z M 71.355 83.35 L 67.225 81.64 L 73.055 79.25 L 75.475 85.09 L 71.355 83.35 Z M 79.555 94.88 L 81.975 100.72 L 76.135 103.14 L 79.555 94.88 Z M 62.185 105.5 L 66.315 107.25 L 60.465 109.63 L 58.055 103.79 L 62.185 105.5 Z M 77.845 89.84 L 76.135 85.71 L 81.975 88.13 L 79.555 93.97 L 77.845 89.84 Z M 58.055 85.06 L 60.465 79.25 L 66.305 81.67 L 58.055 85.06 Z M 67.225 107.25 L 75.485 103.83 L 73.055 109.59 L 72.835 109.59 L 67.225 107.25 Z M 51.155 101.08 L 51.155 109.43 C 49.323 107.53 47.856 105.31 46.825 102.88 L 51.155 101.08 Z M 51.505 101.08 L 55.985 102.93 L 57.595 103.6 L 60.115 109.68 L 51.505 109.68 L 51.505 101.08 Z M 79.745 94.42 L 82.265 88.34 L 88.345 94.43 L 82.265 100.51 L 79.745 94.42 Z M 82.375 87.77 L 82.375 79.42 C 84.212 81.32 85.68 83.544 86.705 85.98 L 82.375 87.77 Z M 82.025 87.77 L 75.945 85.25 L 73.425 79.17 L 82.055 79.17 L 82.025 87.77 Z M 72.855 78.93 L 66.765 81.45 L 64.685 80.59 L 60.685 78.93 L 66.765 72.85 L 69.205 75.25 L 72.855 78.93 Z M 58.115 84 L 57.595 85.25 L 51.505 87.77 L 51.505 79.17 L 60.115 79.17 L 58.115 84 Z M 48.785 98.52 L 51.055 100.76 L 46.695 102.59 C 45.697 100.144 45.164 97.532 45.125 94.89 L 48.785 98.52 Z M 60.115 110.03 L 58.315 114.37 C 55.887 113.332 53.668 111.862 51.765 110.03 L 60.115 110.03 Z M 58.645 114.5 L 60.435 110.17 L 62.675 112.41 L 66.345 116.07 C 63.704 116.021 61.094 115.489 58.645 114.5 Z M 74.645 114.59 C 72.258 115.519 69.726 116.02 67.165 116.07 L 70.825 112.41 L 73.055 110.17 L 74.855 114.5 L 74.645 114.59 Z M 75.405 114.27 L 75.185 114.36 L 73.395 110.04 L 81.745 110.04 C 79.903 111.801 77.768 113.226 75.435 114.25 L 75.405 114.27 Z M 82.345 101.08 L 86.675 102.88 C 85.644 105.31 84.176 107.53 82.345 109.43 L 82.345 101.08 Z M 86.845 102.59 L 82.505 100.8 L 88.415 94.89 C 88.366 97.531 87.834 100.141 86.845 102.59 L 86.845 102.59 Z M 82.515 88.1 L 86.845 86.3 C 87.834 88.75 88.366 91.359 88.415 94 L 82.515 88.1 Z M 73.425 78.82 L 75.215 74.49 C 77.653 75.511 79.878 76.98 81.775 78.82 L 73.425 78.82 Z M 74.895 74.35 L 73.055 78.68 L 70.855 76.44 L 67.195 72.78 C 69.836 72.829 72.446 73.361 74.895 74.35 Z M 58.895 74.27 C 61.282 73.328 63.819 72.823 66.385 72.78 L 60.475 78.68 L 58.685 74.36 L 58.895 74.27 Z M 58.145 74.58 L 58.355 74.49 L 60.155 78.82 L 51.765 78.82 C 53.607 77.041 55.755 75.608 58.105 74.59 L 58.145 74.58 Z M 51.145 87.77 L 46.815 85.98 C 47.843 83.546 49.311 81.323 51.145 79.42 L 51.145 87.77 Z" fill="#1d1d1b"/>
</svg>